%TF.GenerationSoftware,KiCad,Pcbnew,5.1.8-5.1.8*%
%TF.CreationDate,2022-10-01T18:22:25+01:00*%
%TF.ProjectId,ESPower,4553506f-7765-4722-9e6b-696361645f70,rev?*%
%TF.SameCoordinates,Original*%
%TF.FileFunction,Legend,Bot*%
%TF.FilePolarity,Positive*%
%FSLAX46Y46*%
G04 Gerber Fmt 4.6, Leading zero omitted, Abs format (unit mm)*
G04 Created by KiCad (PCBNEW 5.1.8-5.1.8) date 2022-10-01 18:22:25*
%MOMM*%
%LPD*%
G01*
G04 APERTURE LIST*
%ADD10C,0.120000*%
%ADD11C,0.250000*%
%ADD12C,0.130000*%
%ADD13C,0.150000*%
%ADD14C,2.700000*%
%ADD15C,1.500000*%
%ADD16R,1.500000X1.500000*%
%ADD17R,1.700000X1.700000*%
%ADD18O,1.700000X1.700000*%
%ADD19C,1.600000*%
%ADD20R,1.600000X1.600000*%
G04 APERTURE END LIST*
D10*
X153798666Y-107873000D02*
X153832000Y-107906333D01*
X153932000Y-107973000D01*
X153998666Y-108006333D01*
X154098666Y-108039666D01*
X154265333Y-108073000D01*
X154398666Y-108073000D01*
X154565333Y-108039666D01*
X154665333Y-108006333D01*
X154732000Y-107973000D01*
X154832000Y-107906333D01*
X154865333Y-107873000D01*
X154098666Y-107306333D02*
X154065333Y-107373000D01*
X154065333Y-107506333D01*
X154098666Y-107573000D01*
X154132000Y-107606333D01*
X154198666Y-107639666D01*
X154398666Y-107639666D01*
X154465333Y-107606333D01*
X154498666Y-107573000D01*
X154532000Y-107506333D01*
X154532000Y-107373000D01*
X154498666Y-107306333D01*
X154098666Y-106706333D02*
X154065333Y-106773000D01*
X154065333Y-106906333D01*
X154098666Y-106973000D01*
X154132000Y-107006333D01*
X154198666Y-107039666D01*
X154398666Y-107039666D01*
X154465333Y-107006333D01*
X154498666Y-106973000D01*
X154532000Y-106906333D01*
X154532000Y-106773000D01*
X154498666Y-106706333D01*
X153798666Y-106473000D02*
X153832000Y-106439666D01*
X153932000Y-106373000D01*
X153998666Y-106339666D01*
X154098666Y-106306333D01*
X154265333Y-106273000D01*
X154398666Y-106273000D01*
X154565333Y-106306333D01*
X154665333Y-106339666D01*
X154732000Y-106373000D01*
X154832000Y-106439666D01*
X154865333Y-106473000D01*
X154432000Y-105173000D02*
X154398666Y-105073000D01*
X154365333Y-105039666D01*
X154298666Y-105006333D01*
X154198666Y-105006333D01*
X154132000Y-105039666D01*
X154098666Y-105073000D01*
X154065333Y-105139666D01*
X154065333Y-105406333D01*
X154765333Y-105406333D01*
X154765333Y-105173000D01*
X154732000Y-105106333D01*
X154698666Y-105073000D01*
X154632000Y-105039666D01*
X154565333Y-105039666D01*
X154498666Y-105073000D01*
X154465333Y-105106333D01*
X154432000Y-105173000D01*
X154432000Y-105406333D01*
X154398666Y-104573000D02*
X154065333Y-104573000D01*
X154765333Y-104806333D02*
X154398666Y-104573000D01*
X154765333Y-104339666D01*
X154332000Y-104106333D02*
X154332000Y-103573000D01*
X154065333Y-103239666D02*
X154765333Y-103239666D01*
X154065333Y-102839666D01*
X154765333Y-102839666D01*
X154132000Y-102106333D02*
X154098666Y-102139666D01*
X154065333Y-102239666D01*
X154065333Y-102306333D01*
X154098666Y-102406333D01*
X154165333Y-102473000D01*
X154232000Y-102506333D01*
X154365333Y-102539666D01*
X154465333Y-102539666D01*
X154598666Y-102506333D01*
X154665333Y-102473000D01*
X154732000Y-102406333D01*
X154765333Y-102306333D01*
X154765333Y-102239666D01*
X154732000Y-102139666D01*
X154698666Y-102106333D01*
X154332000Y-101806333D02*
X154332000Y-101273000D01*
X154098666Y-100973000D02*
X154065333Y-100873000D01*
X154065333Y-100706333D01*
X154098666Y-100639666D01*
X154132000Y-100606333D01*
X154198666Y-100573000D01*
X154265333Y-100573000D01*
X154332000Y-100606333D01*
X154365333Y-100639666D01*
X154398666Y-100706333D01*
X154432000Y-100839666D01*
X154465333Y-100906333D01*
X154498666Y-100939666D01*
X154565333Y-100973000D01*
X154632000Y-100973000D01*
X154698666Y-100939666D01*
X154732000Y-100906333D01*
X154765333Y-100839666D01*
X154765333Y-100673000D01*
X154732000Y-100573000D01*
X154265333Y-100306333D02*
X154265333Y-99973000D01*
X154065333Y-100373000D02*
X154765333Y-100139666D01*
X154065333Y-99906333D01*
X154332000Y-99139666D02*
X154332000Y-98606333D01*
X154698666Y-97773000D02*
X154732000Y-97739666D01*
X154765333Y-97673000D01*
X154765333Y-97506333D01*
X154732000Y-97439666D01*
X154698666Y-97406333D01*
X154632000Y-97373000D01*
X154565333Y-97373000D01*
X154465333Y-97406333D01*
X154065333Y-97806333D01*
X154065333Y-97373000D01*
X154765333Y-96939666D02*
X154765333Y-96873000D01*
X154732000Y-96806333D01*
X154698666Y-96773000D01*
X154632000Y-96739666D01*
X154498666Y-96706333D01*
X154332000Y-96706333D01*
X154198666Y-96739666D01*
X154132000Y-96773000D01*
X154098666Y-96806333D01*
X154065333Y-96873000D01*
X154065333Y-96939666D01*
X154098666Y-97006333D01*
X154132000Y-97039666D01*
X154198666Y-97073000D01*
X154332000Y-97106333D01*
X154498666Y-97106333D01*
X154632000Y-97073000D01*
X154698666Y-97039666D01*
X154732000Y-97006333D01*
X154765333Y-96939666D01*
X154698666Y-96439666D02*
X154732000Y-96406333D01*
X154765333Y-96339666D01*
X154765333Y-96173000D01*
X154732000Y-96106333D01*
X154698666Y-96073000D01*
X154632000Y-96039666D01*
X154565333Y-96039666D01*
X154465333Y-96073000D01*
X154065333Y-96473000D01*
X154065333Y-96039666D01*
X154698666Y-95773000D02*
X154732000Y-95739666D01*
X154765333Y-95673000D01*
X154765333Y-95506333D01*
X154732000Y-95439666D01*
X154698666Y-95406333D01*
X154632000Y-95373000D01*
X154565333Y-95373000D01*
X154465333Y-95406333D01*
X154065333Y-95806333D01*
X154065333Y-95373000D01*
X153362000Y-107823000D02*
X152895333Y-107689666D01*
X153228666Y-107556333D01*
X152895333Y-107423000D01*
X153362000Y-107289666D01*
X153362000Y-107089666D02*
X152895333Y-106956333D01*
X153228666Y-106823000D01*
X152895333Y-106689666D01*
X153362000Y-106556333D01*
X153362000Y-106356333D02*
X152895333Y-106223000D01*
X153228666Y-106089666D01*
X152895333Y-105956333D01*
X153362000Y-105823000D01*
X152962000Y-105556333D02*
X152928666Y-105523000D01*
X152895333Y-105556333D01*
X152928666Y-105589666D01*
X152962000Y-105556333D01*
X152895333Y-105556333D01*
X152895333Y-104923000D02*
X153262000Y-104923000D01*
X153328666Y-104956333D01*
X153362000Y-105023000D01*
X153362000Y-105156333D01*
X153328666Y-105223000D01*
X152928666Y-104923000D02*
X152895333Y-104989666D01*
X152895333Y-105156333D01*
X152928666Y-105223000D01*
X152995333Y-105256333D01*
X153062000Y-105256333D01*
X153128666Y-105223000D01*
X153162000Y-105156333D01*
X153162000Y-104989666D01*
X153195333Y-104923000D01*
X153362000Y-104289666D02*
X152795333Y-104289666D01*
X152728666Y-104323000D01*
X152695333Y-104356333D01*
X152662000Y-104423000D01*
X152662000Y-104523000D01*
X152695333Y-104589666D01*
X152928666Y-104289666D02*
X152895333Y-104356333D01*
X152895333Y-104489666D01*
X152928666Y-104556333D01*
X152962000Y-104589666D01*
X153028666Y-104623000D01*
X153228666Y-104623000D01*
X153295333Y-104589666D01*
X153328666Y-104556333D01*
X153362000Y-104489666D01*
X153362000Y-104356333D01*
X153328666Y-104289666D01*
X152895333Y-103956333D02*
X153362000Y-103956333D01*
X153595333Y-103956333D02*
X153562000Y-103989666D01*
X153528666Y-103956333D01*
X153562000Y-103923000D01*
X153595333Y-103956333D01*
X153528666Y-103956333D01*
X153362000Y-103323000D02*
X152895333Y-103323000D01*
X153362000Y-103623000D02*
X152995333Y-103623000D01*
X152928666Y-103589666D01*
X152895333Y-103523000D01*
X152895333Y-103423000D01*
X152928666Y-103356333D01*
X152962000Y-103323000D01*
X152928666Y-103023000D02*
X152895333Y-102956333D01*
X152895333Y-102823000D01*
X152928666Y-102756333D01*
X152995333Y-102723000D01*
X153028666Y-102723000D01*
X153095333Y-102756333D01*
X153128666Y-102823000D01*
X153128666Y-102923000D01*
X153162000Y-102989666D01*
X153228666Y-103023000D01*
X153262000Y-103023000D01*
X153328666Y-102989666D01*
X153362000Y-102923000D01*
X153362000Y-102823000D01*
X153328666Y-102756333D01*
X153162000Y-102423000D02*
X153162000Y-101889666D01*
X152895333Y-101556333D02*
X153362000Y-101556333D01*
X153595333Y-101556333D02*
X153562000Y-101589666D01*
X153528666Y-101556333D01*
X153562000Y-101523000D01*
X153595333Y-101556333D01*
X153528666Y-101556333D01*
X153362000Y-101223000D02*
X152895333Y-101223000D01*
X153295333Y-101223000D02*
X153328666Y-101189666D01*
X153362000Y-101123000D01*
X153362000Y-101023000D01*
X153328666Y-100956333D01*
X153262000Y-100923000D01*
X152895333Y-100923000D01*
X152895333Y-100289666D02*
X153595333Y-100289666D01*
X152928666Y-100289666D02*
X152895333Y-100356333D01*
X152895333Y-100489666D01*
X152928666Y-100556333D01*
X152962000Y-100589666D01*
X153028666Y-100623000D01*
X153228666Y-100623000D01*
X153295333Y-100589666D01*
X153328666Y-100556333D01*
X153362000Y-100489666D01*
X153362000Y-100356333D01*
X153328666Y-100289666D01*
X153362000Y-99656333D02*
X152895333Y-99656333D01*
X153362000Y-99956333D02*
X152995333Y-99956333D01*
X152928666Y-99923000D01*
X152895333Y-99856333D01*
X152895333Y-99756333D01*
X152928666Y-99689666D01*
X152962000Y-99656333D01*
X152928666Y-99356333D02*
X152895333Y-99289666D01*
X152895333Y-99156333D01*
X152928666Y-99089666D01*
X152995333Y-99056333D01*
X153028666Y-99056333D01*
X153095333Y-99089666D01*
X153128666Y-99156333D01*
X153128666Y-99256333D01*
X153162000Y-99323000D01*
X153228666Y-99356333D01*
X153262000Y-99356333D01*
X153328666Y-99323000D01*
X153362000Y-99256333D01*
X153362000Y-99156333D01*
X153328666Y-99089666D01*
X153362000Y-98856333D02*
X153362000Y-98589666D01*
X153595333Y-98756333D02*
X152995333Y-98756333D01*
X152928666Y-98723000D01*
X152895333Y-98656333D01*
X152895333Y-98589666D01*
X152895333Y-98356333D02*
X153362000Y-98356333D01*
X153228666Y-98356333D02*
X153295333Y-98323000D01*
X153328666Y-98289666D01*
X153362000Y-98223000D01*
X153362000Y-98156333D01*
X152895333Y-97923000D02*
X153362000Y-97923000D01*
X153595333Y-97923000D02*
X153562000Y-97956333D01*
X153528666Y-97923000D01*
X153562000Y-97889666D01*
X153595333Y-97923000D01*
X153528666Y-97923000D01*
X152928666Y-97323000D02*
X152895333Y-97389666D01*
X152895333Y-97523000D01*
X152928666Y-97589666D01*
X152995333Y-97623000D01*
X153262000Y-97623000D01*
X153328666Y-97589666D01*
X153362000Y-97523000D01*
X153362000Y-97389666D01*
X153328666Y-97323000D01*
X153262000Y-97289666D01*
X153195333Y-97289666D01*
X153128666Y-97623000D01*
X152928666Y-97023000D02*
X152895333Y-96956333D01*
X152895333Y-96823000D01*
X152928666Y-96756333D01*
X152995333Y-96723000D01*
X153028666Y-96723000D01*
X153095333Y-96756333D01*
X153128666Y-96823000D01*
X153128666Y-96923000D01*
X153162000Y-96989666D01*
X153228666Y-97023000D01*
X153262000Y-97023000D01*
X153328666Y-96989666D01*
X153362000Y-96923000D01*
X153362000Y-96823000D01*
X153328666Y-96756333D01*
X152962000Y-96423000D02*
X152928666Y-96389666D01*
X152895333Y-96423000D01*
X152928666Y-96456333D01*
X152962000Y-96423000D01*
X152895333Y-96423000D01*
X152928666Y-95823000D02*
X152895333Y-95889666D01*
X152895333Y-96023000D01*
X152928666Y-96089666D01*
X152995333Y-96123000D01*
X153262000Y-96123000D01*
X153328666Y-96089666D01*
X153362000Y-96023000D01*
X153362000Y-95889666D01*
X153328666Y-95823000D01*
X153262000Y-95789666D01*
X153195333Y-95789666D01*
X153128666Y-96123000D01*
X153362000Y-95189666D02*
X152895333Y-95189666D01*
X153362000Y-95489666D02*
X152995333Y-95489666D01*
X152928666Y-95456333D01*
X152895333Y-95389666D01*
X152895333Y-95289666D01*
X152928666Y-95223000D01*
X152962000Y-95189666D01*
D11*
X157043428Y-106457142D02*
X157043428Y-106123809D01*
X156519619Y-105980952D02*
X156519619Y-106457142D01*
X157519619Y-106457142D01*
X157519619Y-105980952D01*
X156567238Y-105600000D02*
X156519619Y-105457142D01*
X156519619Y-105219047D01*
X156567238Y-105123809D01*
X156614857Y-105076190D01*
X156710095Y-105028571D01*
X156805333Y-105028571D01*
X156900571Y-105076190D01*
X156948190Y-105123809D01*
X156995809Y-105219047D01*
X157043428Y-105409523D01*
X157091047Y-105504761D01*
X157138666Y-105552380D01*
X157233904Y-105600000D01*
X157329142Y-105600000D01*
X157424380Y-105552380D01*
X157472000Y-105504761D01*
X157519619Y-105409523D01*
X157519619Y-105171428D01*
X157472000Y-105028571D01*
X156519619Y-104600000D02*
X157519619Y-104600000D01*
X157519619Y-104219047D01*
X157472000Y-104123809D01*
X157424380Y-104076190D01*
X157329142Y-104028571D01*
X157186285Y-104028571D01*
X157091047Y-104076190D01*
X157043428Y-104123809D01*
X156995809Y-104219047D01*
X156995809Y-104600000D01*
X156519619Y-103457142D02*
X156567238Y-103552380D01*
X156614857Y-103600000D01*
X156710095Y-103647619D01*
X156995809Y-103647619D01*
X157091047Y-103600000D01*
X157138666Y-103552380D01*
X157186285Y-103457142D01*
X157186285Y-103314285D01*
X157138666Y-103219047D01*
X157091047Y-103171428D01*
X156995809Y-103123809D01*
X156710095Y-103123809D01*
X156614857Y-103171428D01*
X156567238Y-103219047D01*
X156519619Y-103314285D01*
X156519619Y-103457142D01*
X157186285Y-102790476D02*
X156519619Y-102600000D01*
X156995809Y-102409523D01*
X156519619Y-102219047D01*
X157186285Y-102028571D01*
X156567238Y-101266666D02*
X156519619Y-101361904D01*
X156519619Y-101552380D01*
X156567238Y-101647619D01*
X156662476Y-101695238D01*
X157043428Y-101695238D01*
X157138666Y-101647619D01*
X157186285Y-101552380D01*
X157186285Y-101361904D01*
X157138666Y-101266666D01*
X157043428Y-101219047D01*
X156948190Y-101219047D01*
X156852952Y-101695238D01*
X156519619Y-100790476D02*
X157186285Y-100790476D01*
X156995809Y-100790476D02*
X157091047Y-100742857D01*
X157138666Y-100695238D01*
X157186285Y-100600000D01*
X157186285Y-100504761D01*
X157186285Y-99504761D02*
X156519619Y-99266666D01*
X157186285Y-99028571D01*
X156519619Y-98123809D02*
X156519619Y-98695238D01*
X156519619Y-98409523D02*
X157519619Y-98409523D01*
X157376761Y-98504761D01*
X157281523Y-98600000D01*
X157233904Y-98695238D01*
X156614857Y-97695238D02*
X156567238Y-97647619D01*
X156519619Y-97695238D01*
X156567238Y-97742857D01*
X156614857Y-97695238D01*
X156519619Y-97695238D01*
X157519619Y-97028571D02*
X157519619Y-96933333D01*
X157472000Y-96838095D01*
X157424380Y-96790476D01*
X157329142Y-96742857D01*
X157138666Y-96695238D01*
X156900571Y-96695238D01*
X156710095Y-96742857D01*
X156614857Y-96790476D01*
X156567238Y-96838095D01*
X156519619Y-96933333D01*
X156519619Y-97028571D01*
X156567238Y-97123809D01*
X156614857Y-97171428D01*
X156710095Y-97219047D01*
X156900571Y-97266666D01*
X157138666Y-97266666D01*
X157329142Y-97219047D01*
X157424380Y-97171428D01*
X157472000Y-97123809D01*
X157519619Y-97028571D01*
D12*
X113364642Y-105703904D02*
X113212261Y-105703904D01*
X113136071Y-105742000D01*
X113059880Y-105818190D01*
X113021785Y-105970571D01*
X113021785Y-106237238D01*
X113059880Y-106389619D01*
X113136071Y-106465809D01*
X113212261Y-106503904D01*
X113364642Y-106503904D01*
X113440833Y-106465809D01*
X113517023Y-106389619D01*
X113555119Y-106237238D01*
X113555119Y-105970571D01*
X113517023Y-105818190D01*
X113440833Y-105742000D01*
X113364642Y-105703904D01*
X112678928Y-105970571D02*
X112678928Y-106503904D01*
X112678928Y-106046761D02*
X112640833Y-106008666D01*
X112564642Y-105970571D01*
X112450357Y-105970571D01*
X112374166Y-106008666D01*
X112336071Y-106084857D01*
X112336071Y-106503904D01*
X111955119Y-106427714D02*
X111917023Y-106465809D01*
X111955119Y-106503904D01*
X111993214Y-106465809D01*
X111955119Y-106427714D01*
X111955119Y-106503904D01*
X111955119Y-106008666D02*
X111917023Y-106046761D01*
X111955119Y-106084857D01*
X111993214Y-106046761D01*
X111955119Y-106008666D01*
X111955119Y-106084857D01*
X111078928Y-105703904D02*
X110812261Y-106503904D01*
X110545595Y-105703904D01*
X109821785Y-106427714D02*
X109859880Y-106465809D01*
X109974166Y-106503904D01*
X110050357Y-106503904D01*
X110164642Y-106465809D01*
X110240833Y-106389619D01*
X110278928Y-106313428D01*
X110317023Y-106161047D01*
X110317023Y-106046761D01*
X110278928Y-105894380D01*
X110240833Y-105818190D01*
X110164642Y-105742000D01*
X110050357Y-105703904D01*
X109974166Y-105703904D01*
X109859880Y-105742000D01*
X109821785Y-105780095D01*
X109021785Y-106427714D02*
X109059880Y-106465809D01*
X109174166Y-106503904D01*
X109250357Y-106503904D01*
X109364642Y-106465809D01*
X109440833Y-106389619D01*
X109478928Y-106313428D01*
X109517023Y-106161047D01*
X109517023Y-106046761D01*
X109478928Y-105894380D01*
X109440833Y-105818190D01*
X109364642Y-105742000D01*
X109250357Y-105703904D01*
X109174166Y-105703904D01*
X109059880Y-105742000D01*
X109021785Y-105780095D01*
X108678928Y-106084857D02*
X108069404Y-106084857D01*
X108069404Y-106313428D02*
X108678928Y-106313428D01*
X107688452Y-106503904D02*
X107688452Y-105703904D01*
X107307500Y-105970571D02*
X107307500Y-106503904D01*
X107307500Y-106046761D02*
X107269404Y-106008666D01*
X107193214Y-105970571D01*
X107078928Y-105970571D01*
X107002738Y-106008666D01*
X106964642Y-106084857D01*
X106964642Y-106503904D01*
X106583690Y-105970571D02*
X106583690Y-106770571D01*
X106583690Y-106008666D02*
X106507500Y-105970571D01*
X106355119Y-105970571D01*
X106278928Y-106008666D01*
X106240833Y-106046761D01*
X106202738Y-106122952D01*
X106202738Y-106351523D01*
X106240833Y-106427714D01*
X106278928Y-106465809D01*
X106355119Y-106503904D01*
X106507500Y-106503904D01*
X106583690Y-106465809D01*
X105517023Y-105970571D02*
X105517023Y-106503904D01*
X105859880Y-105970571D02*
X105859880Y-106389619D01*
X105821785Y-106465809D01*
X105745595Y-106503904D01*
X105631309Y-106503904D01*
X105555119Y-106465809D01*
X105517023Y-106427714D01*
X105250357Y-105970571D02*
X104945595Y-105970571D01*
X105136071Y-105703904D02*
X105136071Y-106389619D01*
X105097976Y-106465809D01*
X105021785Y-106503904D01*
X104945595Y-106503904D01*
X104488452Y-106770571D02*
X104488452Y-105627714D01*
X103650357Y-106084857D02*
X103536071Y-106122952D01*
X103497976Y-106161047D01*
X103459880Y-106237238D01*
X103459880Y-106351523D01*
X103497976Y-106427714D01*
X103536071Y-106465809D01*
X103612261Y-106503904D01*
X103917023Y-106503904D01*
X103917023Y-105703904D01*
X103650357Y-105703904D01*
X103574166Y-105742000D01*
X103536071Y-105780095D01*
X103497976Y-105856285D01*
X103497976Y-105932476D01*
X103536071Y-106008666D01*
X103574166Y-106046761D01*
X103650357Y-106084857D01*
X103917023Y-106084857D01*
X102774166Y-106503904D02*
X102774166Y-106084857D01*
X102812261Y-106008666D01*
X102888452Y-105970571D01*
X103040833Y-105970571D01*
X103117023Y-106008666D01*
X102774166Y-106465809D02*
X102850357Y-106503904D01*
X103040833Y-106503904D01*
X103117023Y-106465809D01*
X103155119Y-106389619D01*
X103155119Y-106313428D01*
X103117023Y-106237238D01*
X103040833Y-106199142D01*
X102850357Y-106199142D01*
X102774166Y-106161047D01*
X102507500Y-105970571D02*
X102202738Y-105970571D01*
X102393214Y-105703904D02*
X102393214Y-106389619D01*
X102355119Y-106465809D01*
X102278928Y-106503904D01*
X102202738Y-106503904D01*
X102050357Y-105970571D02*
X101745595Y-105970571D01*
X101936071Y-105703904D02*
X101936071Y-106389619D01*
X101897976Y-106465809D01*
X101821785Y-106503904D01*
X101745595Y-106503904D01*
X113364642Y-107033904D02*
X113212261Y-107033904D01*
X113136071Y-107072000D01*
X113059880Y-107148190D01*
X113021785Y-107300571D01*
X113021785Y-107567238D01*
X113059880Y-107719619D01*
X113136071Y-107795809D01*
X113212261Y-107833904D01*
X113364642Y-107833904D01*
X113440833Y-107795809D01*
X113517023Y-107719619D01*
X113555119Y-107567238D01*
X113555119Y-107300571D01*
X113517023Y-107148190D01*
X113440833Y-107072000D01*
X113364642Y-107033904D01*
X112793214Y-107300571D02*
X112488452Y-107300571D01*
X112678928Y-107833904D02*
X112678928Y-107148190D01*
X112640833Y-107072000D01*
X112564642Y-107033904D01*
X112488452Y-107033904D01*
X112336071Y-107300571D02*
X112031309Y-107300571D01*
X112221785Y-107833904D02*
X112221785Y-107148190D01*
X112183690Y-107072000D01*
X112107500Y-107033904D01*
X112031309Y-107033904D01*
X111764642Y-107757714D02*
X111726547Y-107795809D01*
X111764642Y-107833904D01*
X111802738Y-107795809D01*
X111764642Y-107757714D01*
X111764642Y-107833904D01*
X111764642Y-107338666D02*
X111726547Y-107376761D01*
X111764642Y-107414857D01*
X111802738Y-107376761D01*
X111764642Y-107338666D01*
X111764642Y-107414857D01*
X110888452Y-107033904D02*
X110621785Y-107833904D01*
X110355119Y-107033904D01*
X109631309Y-107757714D02*
X109669404Y-107795809D01*
X109783690Y-107833904D01*
X109859880Y-107833904D01*
X109974166Y-107795809D01*
X110050357Y-107719619D01*
X110088452Y-107643428D01*
X110126547Y-107491047D01*
X110126547Y-107376761D01*
X110088452Y-107224380D01*
X110050357Y-107148190D01*
X109974166Y-107072000D01*
X109859880Y-107033904D01*
X109783690Y-107033904D01*
X109669404Y-107072000D01*
X109631309Y-107110095D01*
X108831309Y-107757714D02*
X108869404Y-107795809D01*
X108983690Y-107833904D01*
X109059880Y-107833904D01*
X109174166Y-107795809D01*
X109250357Y-107719619D01*
X109288452Y-107643428D01*
X109326547Y-107491047D01*
X109326547Y-107376761D01*
X109288452Y-107224380D01*
X109250357Y-107148190D01*
X109174166Y-107072000D01*
X109059880Y-107033904D01*
X108983690Y-107033904D01*
X108869404Y-107072000D01*
X108831309Y-107110095D01*
X108488452Y-107414857D02*
X107878928Y-107414857D01*
X107878928Y-107643428D02*
X108488452Y-107643428D01*
X107231309Y-107414857D02*
X107117023Y-107452952D01*
X107078928Y-107491047D01*
X107040833Y-107567238D01*
X107040833Y-107681523D01*
X107078928Y-107757714D01*
X107117023Y-107795809D01*
X107193214Y-107833904D01*
X107497976Y-107833904D01*
X107497976Y-107033904D01*
X107231309Y-107033904D01*
X107155119Y-107072000D01*
X107117023Y-107110095D01*
X107078928Y-107186285D01*
X107078928Y-107262476D01*
X107117023Y-107338666D01*
X107155119Y-107376761D01*
X107231309Y-107414857D01*
X107497976Y-107414857D01*
X106355119Y-107833904D02*
X106355119Y-107414857D01*
X106393214Y-107338666D01*
X106469404Y-107300571D01*
X106621785Y-107300571D01*
X106697976Y-107338666D01*
X106355119Y-107795809D02*
X106431309Y-107833904D01*
X106621785Y-107833904D01*
X106697976Y-107795809D01*
X106736071Y-107719619D01*
X106736071Y-107643428D01*
X106697976Y-107567238D01*
X106621785Y-107529142D01*
X106431309Y-107529142D01*
X106355119Y-107491047D01*
X106088452Y-107300571D02*
X105783690Y-107300571D01*
X105974166Y-107033904D02*
X105974166Y-107719619D01*
X105936071Y-107795809D01*
X105859880Y-107833904D01*
X105783690Y-107833904D01*
X105631309Y-107300571D02*
X105326547Y-107300571D01*
X105517023Y-107033904D02*
X105517023Y-107719619D01*
X105478928Y-107795809D01*
X105402738Y-107833904D01*
X105326547Y-107833904D01*
D10*
X98425000Y-95250000D02*
X98425000Y-103124000D01*
X100965000Y-95250000D02*
X100965000Y-103124000D01*
X102616000Y-96647000D02*
X92075000Y-96647000D01*
D13*
X102216928Y-97053380D02*
X102121690Y-97053380D01*
X102026452Y-97101000D01*
X101978833Y-97148619D01*
X101931214Y-97243857D01*
X101883595Y-97434333D01*
X101883595Y-97672428D01*
X101931214Y-97862904D01*
X101978833Y-97958142D01*
X102026452Y-98005761D01*
X102121690Y-98053380D01*
X102216928Y-98053380D01*
X102312166Y-98005761D01*
X102359785Y-97958142D01*
X102407404Y-97862904D01*
X102455023Y-97672428D01*
X102455023Y-97434333D01*
X102407404Y-97243857D01*
X102359785Y-97148619D01*
X102312166Y-97101000D01*
X102216928Y-97053380D01*
X99740738Y-97053380D02*
X99645500Y-97053380D01*
X99550261Y-97101000D01*
X99502642Y-97148619D01*
X99455023Y-97243857D01*
X99407404Y-97434333D01*
X99407404Y-97672428D01*
X99455023Y-97862904D01*
X99502642Y-97958142D01*
X99550261Y-98005761D01*
X99645500Y-98053380D01*
X99740738Y-98053380D01*
X99835976Y-98005761D01*
X99883595Y-97958142D01*
X99931214Y-97862904D01*
X99978833Y-97672428D01*
X99978833Y-97434333D01*
X99931214Y-97243857D01*
X99883595Y-97148619D01*
X99835976Y-97101000D01*
X99740738Y-97053380D01*
X97502642Y-97148619D02*
X97455023Y-97101000D01*
X97359785Y-97053380D01*
X97121690Y-97053380D01*
X97026452Y-97101000D01*
X96978833Y-97148619D01*
X96931214Y-97243857D01*
X96931214Y-97339095D01*
X96978833Y-97481952D01*
X97550261Y-98053380D01*
X96931214Y-98053380D01*
X96026452Y-97053380D02*
X96502642Y-97053380D01*
X96550261Y-97529571D01*
X96502642Y-97481952D01*
X96407404Y-97434333D01*
X96169309Y-97434333D01*
X96074071Y-97481952D01*
X96026452Y-97529571D01*
X95978833Y-97624809D01*
X95978833Y-97862904D01*
X96026452Y-97958142D01*
X96074071Y-98005761D01*
X96169309Y-98053380D01*
X96407404Y-98053380D01*
X96502642Y-98005761D01*
X96550261Y-97958142D01*
X95359785Y-97053380D02*
X95264547Y-97053380D01*
X95169309Y-97101000D01*
X95121690Y-97148619D01*
X95074071Y-97243857D01*
X95026452Y-97434333D01*
X95026452Y-97672428D01*
X95074071Y-97862904D01*
X95121690Y-97958142D01*
X95169309Y-98005761D01*
X95264547Y-98053380D01*
X95359785Y-98053380D01*
X95455023Y-98005761D01*
X95502642Y-97958142D01*
X95550261Y-97862904D01*
X95597880Y-97672428D01*
X95597880Y-97434333D01*
X95550261Y-97243857D01*
X95502642Y-97148619D01*
X95455023Y-97101000D01*
X95359785Y-97053380D01*
X94597880Y-98053380D02*
X94597880Y-97386714D01*
X94597880Y-97481952D02*
X94550261Y-97434333D01*
X94455023Y-97386714D01*
X94312166Y-97386714D01*
X94216928Y-97434333D01*
X94169309Y-97529571D01*
X94169309Y-98053380D01*
X94169309Y-97529571D02*
X94121690Y-97434333D01*
X94026452Y-97386714D01*
X93883595Y-97386714D01*
X93788357Y-97434333D01*
X93740738Y-97529571D01*
X93740738Y-98053380D01*
X93312166Y-97767666D02*
X92835976Y-97767666D01*
X93407404Y-98053380D02*
X93074071Y-97053380D01*
X92740738Y-98053380D01*
X102216928Y-98703380D02*
X102121690Y-98703380D01*
X102026452Y-98751000D01*
X101978833Y-98798619D01*
X101931214Y-98893857D01*
X101883595Y-99084333D01*
X101883595Y-99322428D01*
X101931214Y-99512904D01*
X101978833Y-99608142D01*
X102026452Y-99655761D01*
X102121690Y-99703380D01*
X102216928Y-99703380D01*
X102312166Y-99655761D01*
X102359785Y-99608142D01*
X102407404Y-99512904D01*
X102455023Y-99322428D01*
X102455023Y-99084333D01*
X102407404Y-98893857D01*
X102359785Y-98798619D01*
X102312166Y-98751000D01*
X102216928Y-98703380D01*
X99407404Y-99703380D02*
X99978833Y-99703380D01*
X99693119Y-99703380D02*
X99693119Y-98703380D01*
X99788357Y-98846238D01*
X99883595Y-98941476D01*
X99978833Y-98989095D01*
X97550261Y-98703380D02*
X96931214Y-98703380D01*
X97264547Y-99084333D01*
X97121690Y-99084333D01*
X97026452Y-99131952D01*
X96978833Y-99179571D01*
X96931214Y-99274809D01*
X96931214Y-99512904D01*
X96978833Y-99608142D01*
X97026452Y-99655761D01*
X97121690Y-99703380D01*
X97407404Y-99703380D01*
X97502642Y-99655761D01*
X97550261Y-99608142D01*
X96597880Y-98703380D02*
X95978833Y-98703380D01*
X96312166Y-99084333D01*
X96169309Y-99084333D01*
X96074071Y-99131952D01*
X96026452Y-99179571D01*
X95978833Y-99274809D01*
X95978833Y-99512904D01*
X96026452Y-99608142D01*
X96074071Y-99655761D01*
X96169309Y-99703380D01*
X96455023Y-99703380D01*
X96550261Y-99655761D01*
X96597880Y-99608142D01*
X95359785Y-98703380D02*
X95264547Y-98703380D01*
X95169309Y-98751000D01*
X95121690Y-98798619D01*
X95074071Y-98893857D01*
X95026452Y-99084333D01*
X95026452Y-99322428D01*
X95074071Y-99512904D01*
X95121690Y-99608142D01*
X95169309Y-99655761D01*
X95264547Y-99703380D01*
X95359785Y-99703380D01*
X95455023Y-99655761D01*
X95502642Y-99608142D01*
X95550261Y-99512904D01*
X95597880Y-99322428D01*
X95597880Y-99084333D01*
X95550261Y-98893857D01*
X95502642Y-98798619D01*
X95455023Y-98751000D01*
X95359785Y-98703380D01*
X94597880Y-99703380D02*
X94597880Y-99036714D01*
X94597880Y-99131952D02*
X94550261Y-99084333D01*
X94455023Y-99036714D01*
X94312166Y-99036714D01*
X94216928Y-99084333D01*
X94169309Y-99179571D01*
X94169309Y-99703380D01*
X94169309Y-99179571D02*
X94121690Y-99084333D01*
X94026452Y-99036714D01*
X93883595Y-99036714D01*
X93788357Y-99084333D01*
X93740738Y-99179571D01*
X93740738Y-99703380D01*
X93312166Y-99417666D02*
X92835976Y-99417666D01*
X93407404Y-99703380D02*
X93074071Y-98703380D01*
X92740738Y-99703380D01*
X101883595Y-101353380D02*
X102455023Y-101353380D01*
X102169309Y-101353380D02*
X102169309Y-100353380D01*
X102264547Y-100496238D01*
X102359785Y-100591476D01*
X102455023Y-100639095D01*
X99740738Y-100353380D02*
X99645500Y-100353380D01*
X99550261Y-100401000D01*
X99502642Y-100448619D01*
X99455023Y-100543857D01*
X99407404Y-100734333D01*
X99407404Y-100972428D01*
X99455023Y-101162904D01*
X99502642Y-101258142D01*
X99550261Y-101305761D01*
X99645500Y-101353380D01*
X99740738Y-101353380D01*
X99835976Y-101305761D01*
X99883595Y-101258142D01*
X99931214Y-101162904D01*
X99978833Y-100972428D01*
X99978833Y-100734333D01*
X99931214Y-100543857D01*
X99883595Y-100448619D01*
X99835976Y-100401000D01*
X99740738Y-100353380D01*
X96978833Y-100353380D02*
X97455023Y-100353380D01*
X97502642Y-100829571D01*
X97455023Y-100781952D01*
X97359785Y-100734333D01*
X97121690Y-100734333D01*
X97026452Y-100781952D01*
X96978833Y-100829571D01*
X96931214Y-100924809D01*
X96931214Y-101162904D01*
X96978833Y-101258142D01*
X97026452Y-101305761D01*
X97121690Y-101353380D01*
X97359785Y-101353380D01*
X97455023Y-101305761D01*
X97502642Y-101258142D01*
X96312166Y-100353380D02*
X96216928Y-100353380D01*
X96121690Y-100401000D01*
X96074071Y-100448619D01*
X96026452Y-100543857D01*
X95978833Y-100734333D01*
X95978833Y-100972428D01*
X96026452Y-101162904D01*
X96074071Y-101258142D01*
X96121690Y-101305761D01*
X96216928Y-101353380D01*
X96312166Y-101353380D01*
X96407404Y-101305761D01*
X96455023Y-101258142D01*
X96502642Y-101162904D01*
X96550261Y-100972428D01*
X96550261Y-100734333D01*
X96502642Y-100543857D01*
X96455023Y-100448619D01*
X96407404Y-100401000D01*
X96312166Y-100353380D01*
X95359785Y-100353380D02*
X95264547Y-100353380D01*
X95169309Y-100401000D01*
X95121690Y-100448619D01*
X95074071Y-100543857D01*
X95026452Y-100734333D01*
X95026452Y-100972428D01*
X95074071Y-101162904D01*
X95121690Y-101258142D01*
X95169309Y-101305761D01*
X95264547Y-101353380D01*
X95359785Y-101353380D01*
X95455023Y-101305761D01*
X95502642Y-101258142D01*
X95550261Y-101162904D01*
X95597880Y-100972428D01*
X95597880Y-100734333D01*
X95550261Y-100543857D01*
X95502642Y-100448619D01*
X95455023Y-100401000D01*
X95359785Y-100353380D01*
X94597880Y-101353380D02*
X94597880Y-100686714D01*
X94597880Y-100781952D02*
X94550261Y-100734333D01*
X94455023Y-100686714D01*
X94312166Y-100686714D01*
X94216928Y-100734333D01*
X94169309Y-100829571D01*
X94169309Y-101353380D01*
X94169309Y-100829571D02*
X94121690Y-100734333D01*
X94026452Y-100686714D01*
X93883595Y-100686714D01*
X93788357Y-100734333D01*
X93740738Y-100829571D01*
X93740738Y-101353380D01*
X93312166Y-101067666D02*
X92835976Y-101067666D01*
X93407404Y-101353380D02*
X93074071Y-100353380D01*
X92740738Y-101353380D01*
X101883595Y-103003380D02*
X102455023Y-103003380D01*
X102169309Y-103003380D02*
X102169309Y-102003380D01*
X102264547Y-102146238D01*
X102359785Y-102241476D01*
X102455023Y-102289095D01*
X99407404Y-103003380D02*
X99978833Y-103003380D01*
X99693119Y-103003380D02*
X99693119Y-102003380D01*
X99788357Y-102146238D01*
X99883595Y-102241476D01*
X99978833Y-102289095D01*
X96931214Y-103003380D02*
X97502642Y-103003380D01*
X97216928Y-103003380D02*
X97216928Y-102003380D01*
X97312166Y-102146238D01*
X97407404Y-102241476D01*
X97502642Y-102289095D01*
X96550261Y-102717666D02*
X96074071Y-102717666D01*
X96645500Y-103003380D02*
X96312166Y-102003380D01*
X95978833Y-103003380D01*
X102328023Y-95924666D02*
X101851833Y-95924666D01*
X102423261Y-96210380D02*
X102089928Y-95210380D01*
X101756595Y-96210380D01*
X99566119Y-95686571D02*
X99423261Y-95734190D01*
X99375642Y-95781809D01*
X99328023Y-95877047D01*
X99328023Y-96019904D01*
X99375642Y-96115142D01*
X99423261Y-96162761D01*
X99518500Y-96210380D01*
X99899452Y-96210380D01*
X99899452Y-95210380D01*
X99566119Y-95210380D01*
X99470880Y-95258000D01*
X99423261Y-95305619D01*
X99375642Y-95400857D01*
X99375642Y-95496095D01*
X99423261Y-95591333D01*
X99470880Y-95638952D01*
X99566119Y-95686571D01*
X99899452Y-95686571D01*
X96804214Y-96115142D02*
X96851833Y-96162761D01*
X96994690Y-96210380D01*
X97089928Y-96210380D01*
X97232785Y-96162761D01*
X97328023Y-96067523D01*
X97375642Y-95972285D01*
X97423261Y-95781809D01*
X97423261Y-95638952D01*
X97375642Y-95448476D01*
X97328023Y-95353238D01*
X97232785Y-95258000D01*
X97089928Y-95210380D01*
X96994690Y-95210380D01*
X96851833Y-95258000D01*
X96804214Y-95305619D01*
X95947071Y-95543714D02*
X95947071Y-96210380D01*
X96375642Y-95543714D02*
X96375642Y-96067523D01*
X96328023Y-96162761D01*
X96232785Y-96210380D01*
X96089928Y-96210380D01*
X95994690Y-96162761D01*
X95947071Y-96115142D01*
X95470880Y-96210380D02*
X95470880Y-95543714D01*
X95470880Y-95734190D02*
X95423261Y-95638952D01*
X95375642Y-95591333D01*
X95280404Y-95543714D01*
X95185166Y-95543714D01*
X94851833Y-96210380D02*
X94851833Y-95543714D01*
X94851833Y-95734190D02*
X94804214Y-95638952D01*
X94756595Y-95591333D01*
X94661357Y-95543714D01*
X94566119Y-95543714D01*
X93851833Y-96162761D02*
X93947071Y-96210380D01*
X94137547Y-96210380D01*
X94232785Y-96162761D01*
X94280404Y-96067523D01*
X94280404Y-95686571D01*
X94232785Y-95591333D01*
X94137547Y-95543714D01*
X93947071Y-95543714D01*
X93851833Y-95591333D01*
X93804214Y-95686571D01*
X93804214Y-95781809D01*
X94280404Y-95877047D01*
X93375642Y-95543714D02*
X93375642Y-96210380D01*
X93375642Y-95638952D02*
X93328023Y-95591333D01*
X93232785Y-95543714D01*
X93089928Y-95543714D01*
X92994690Y-95591333D01*
X92947071Y-95686571D01*
X92947071Y-96210380D01*
X92613738Y-95543714D02*
X92232785Y-95543714D01*
X92470880Y-95210380D02*
X92470880Y-96067523D01*
X92423261Y-96162761D01*
X92328023Y-96210380D01*
X92232785Y-96210380D01*
D10*
X89254064Y-100303000D02*
X88799936Y-100303000D01*
X89254064Y-98833000D02*
X88799936Y-98833000D01*
X88799936Y-102516000D02*
X89254064Y-102516000D01*
X88799936Y-103986000D02*
X89254064Y-103986000D01*
X97562936Y-106072000D02*
X98017064Y-106072000D01*
X97562936Y-107542000D02*
X98017064Y-107542000D01*
D13*
X86415571Y-99496571D02*
X86272714Y-99544190D01*
X86225095Y-99591809D01*
X86177476Y-99687047D01*
X86177476Y-99829904D01*
X86225095Y-99925142D01*
X86272714Y-99972761D01*
X86367952Y-100020380D01*
X86748904Y-100020380D01*
X86748904Y-99020380D01*
X86415571Y-99020380D01*
X86320333Y-99068000D01*
X86272714Y-99115619D01*
X86225095Y-99210857D01*
X86225095Y-99306095D01*
X86272714Y-99401333D01*
X86320333Y-99448952D01*
X86415571Y-99496571D01*
X86748904Y-99496571D01*
X86725095Y-103417666D02*
X86248904Y-103417666D01*
X86820333Y-103703380D02*
X86487000Y-102703380D01*
X86153666Y-103703380D01*
X93455619Y-107259380D02*
X93455619Y-106259380D01*
X93074666Y-106259380D01*
X92979428Y-106307000D01*
X92931809Y-106354619D01*
X92884190Y-106449857D01*
X92884190Y-106592714D01*
X92931809Y-106687952D01*
X92979428Y-106735571D01*
X93074666Y-106783190D01*
X93455619Y-106783190D01*
X92312761Y-107259380D02*
X92408000Y-107211761D01*
X92455619Y-107164142D01*
X92503238Y-107068904D01*
X92503238Y-106783190D01*
X92455619Y-106687952D01*
X92408000Y-106640333D01*
X92312761Y-106592714D01*
X92169904Y-106592714D01*
X92074666Y-106640333D01*
X92027047Y-106687952D01*
X91979428Y-106783190D01*
X91979428Y-107068904D01*
X92027047Y-107164142D01*
X92074666Y-107211761D01*
X92169904Y-107259380D01*
X92312761Y-107259380D01*
X91646095Y-106592714D02*
X91455619Y-107259380D01*
X91265142Y-106783190D01*
X91074666Y-107259380D01*
X90884190Y-106592714D01*
X90122285Y-107211761D02*
X90217523Y-107259380D01*
X90408000Y-107259380D01*
X90503238Y-107211761D01*
X90550857Y-107116523D01*
X90550857Y-106735571D01*
X90503238Y-106640333D01*
X90408000Y-106592714D01*
X90217523Y-106592714D01*
X90122285Y-106640333D01*
X90074666Y-106735571D01*
X90074666Y-106830809D01*
X90550857Y-106926047D01*
X89646095Y-107259380D02*
X89646095Y-106592714D01*
X89646095Y-106783190D02*
X89598476Y-106687952D01*
X89550857Y-106640333D01*
X89455619Y-106592714D01*
X89360380Y-106592714D01*
X88265142Y-107259380D02*
X88265142Y-106259380D01*
X87884190Y-106259380D01*
X87788952Y-106307000D01*
X87741333Y-106354619D01*
X87693714Y-106449857D01*
X87693714Y-106592714D01*
X87741333Y-106687952D01*
X87788952Y-106735571D01*
X87884190Y-106783190D01*
X88265142Y-106783190D01*
X86836571Y-107259380D02*
X86836571Y-106735571D01*
X86884190Y-106640333D01*
X86979428Y-106592714D01*
X87169904Y-106592714D01*
X87265142Y-106640333D01*
X86836571Y-107211761D02*
X86931809Y-107259380D01*
X87169904Y-107259380D01*
X87265142Y-107211761D01*
X87312761Y-107116523D01*
X87312761Y-107021285D01*
X87265142Y-106926047D01*
X87169904Y-106878428D01*
X86931809Y-106878428D01*
X86836571Y-106830809D01*
X86503238Y-106592714D02*
X86122285Y-106592714D01*
X86360380Y-106259380D02*
X86360380Y-107116523D01*
X86312761Y-107211761D01*
X86217523Y-107259380D01*
X86122285Y-107259380D01*
X85788952Y-107259380D02*
X85788952Y-106259380D01*
X85360380Y-107259380D02*
X85360380Y-106735571D01*
X85408000Y-106640333D01*
X85503238Y-106592714D01*
X85646095Y-106592714D01*
X85741333Y-106640333D01*
X85788952Y-106687952D01*
%LPC*%
D14*
X127254000Y-101600000D03*
D15*
X144272000Y-105410000D03*
X144272000Y-102870000D03*
X144272000Y-100330000D03*
X144272000Y-97790000D03*
D16*
X146812000Y-97790000D03*
D15*
X146812000Y-100330000D03*
X146812000Y-102870000D03*
X146812000Y-105410000D03*
G36*
G01*
X88627000Y-99117998D02*
X88627000Y-100018002D01*
G75*
G02*
X88377002Y-100268000I-249998J0D01*
G01*
X87851998Y-100268000D01*
G75*
G02*
X87602000Y-100018002I0J249998D01*
G01*
X87602000Y-99117998D01*
G75*
G02*
X87851998Y-98868000I249998J0D01*
G01*
X88377002Y-98868000D01*
G75*
G02*
X88627000Y-99117998I0J-249998D01*
G01*
G37*
G36*
G01*
X90452000Y-99117998D02*
X90452000Y-100018002D01*
G75*
G02*
X90202002Y-100268000I-249998J0D01*
G01*
X89676998Y-100268000D01*
G75*
G02*
X89427000Y-100018002I0J249998D01*
G01*
X89427000Y-99117998D01*
G75*
G02*
X89676998Y-98868000I249998J0D01*
G01*
X90202002Y-98868000D01*
G75*
G02*
X90452000Y-99117998I0J-249998D01*
G01*
G37*
G36*
G01*
X89427000Y-103701002D02*
X89427000Y-102800998D01*
G75*
G02*
X89676998Y-102551000I249998J0D01*
G01*
X90202002Y-102551000D01*
G75*
G02*
X90452000Y-102800998I0J-249998D01*
G01*
X90452000Y-103701002D01*
G75*
G02*
X90202002Y-103951000I-249998J0D01*
G01*
X89676998Y-103951000D01*
G75*
G02*
X89427000Y-103701002I0J249998D01*
G01*
G37*
G36*
G01*
X87602000Y-103701002D02*
X87602000Y-102800998D01*
G75*
G02*
X87851998Y-102551000I249998J0D01*
G01*
X88377002Y-102551000D01*
G75*
G02*
X88627000Y-102800998I0J-249998D01*
G01*
X88627000Y-103701002D01*
G75*
G02*
X88377002Y-103951000I-249998J0D01*
G01*
X87851998Y-103951000D01*
G75*
G02*
X87602000Y-103701002I0J249998D01*
G01*
G37*
G36*
G01*
X98190000Y-107257002D02*
X98190000Y-106356998D01*
G75*
G02*
X98439998Y-106107000I249998J0D01*
G01*
X98965002Y-106107000D01*
G75*
G02*
X99215000Y-106356998I0J-249998D01*
G01*
X99215000Y-107257002D01*
G75*
G02*
X98965002Y-107507000I-249998J0D01*
G01*
X98439998Y-107507000D01*
G75*
G02*
X98190000Y-107257002I0J249998D01*
G01*
G37*
G36*
G01*
X96365000Y-107257002D02*
X96365000Y-106356998D01*
G75*
G02*
X96614998Y-106107000I249998J0D01*
G01*
X97140002Y-106107000D01*
G75*
G02*
X97390000Y-106356998I0J-249998D01*
G01*
X97390000Y-107257002D01*
G75*
G02*
X97140002Y-107507000I-249998J0D01*
G01*
X96614998Y-107507000D01*
G75*
G02*
X96365000Y-107257002I0J249998D01*
G01*
G37*
D17*
X131064000Y-96139000D03*
D18*
X128524000Y-96139000D03*
X125984000Y-96139000D03*
X123444000Y-96139000D03*
D17*
X106401000Y-96139000D03*
D18*
X103861000Y-96139000D03*
D17*
X131039000Y-106807000D03*
D18*
X128499000Y-106807000D03*
X125959000Y-106807000D03*
X123419000Y-106807000D03*
D17*
X115443000Y-106807000D03*
D18*
X117983000Y-106807000D03*
X84074000Y-99822000D03*
D17*
X84074000Y-97282000D03*
D19*
X136398000Y-99751000D03*
D20*
X136398000Y-103251000D03*
D19*
X119253000Y-100116000D03*
D20*
X119253000Y-102616000D03*
M02*
