%FSLAX45Y45*%
G04 Gerber Fmt 4.5, Leading zero omitted, Abs format (unit mm)*
G04 Created by KiCad (PCBNEW 5.1.8-5.1.8) date 2022-10-01 18:22:28*
%MOMM*%
%LPD*%
G01*
G04 APERTURE LIST*
%TA.AperFunction,Profile*%
%ADD10C,0.050000*%
%TD*%
%ADD11C,0.200000*%
%ADD12C,0.300000*%
G04 APERTURE END LIST*
D10*
X8191500Y-10896600D02*
X8191500Y-9398000D01*
X15887700Y-10896600D02*
X8191500Y-10896600D01*
X15887700Y-9398000D02*
X15887700Y-10896600D01*
X8191500Y-9398000D02*
X15887700Y-9398000D01*
D11*
X12590400Y-10025000D02*
X12860400Y-10295000D01*
X12860400Y-10025000D02*
X12590400Y-10295000D01*
D12*
X8475428Y-11364814D02*
X8475428Y-11064814D01*
X8546857Y-11064814D01*
X8589714Y-11079100D01*
X8618286Y-11107672D01*
X8632571Y-11136243D01*
X8646857Y-11193386D01*
X8646857Y-11236243D01*
X8632571Y-11293386D01*
X8618286Y-11321957D01*
X8589714Y-11350529D01*
X8546857Y-11364814D01*
X8475428Y-11364814D01*
X8775428Y-11364814D02*
X8775428Y-11164814D01*
X8775428Y-11221957D02*
X8789714Y-11193386D01*
X8804000Y-11179100D01*
X8832571Y-11164814D01*
X8861143Y-11164814D01*
X8961143Y-11364814D02*
X8961143Y-11164814D01*
X8961143Y-11064814D02*
X8946857Y-11079100D01*
X8961143Y-11093386D01*
X8975428Y-11079100D01*
X8961143Y-11064814D01*
X8961143Y-11093386D01*
X9146857Y-11364814D02*
X9118286Y-11350529D01*
X9104000Y-11321957D01*
X9104000Y-11064814D01*
X9304000Y-11364814D02*
X9275428Y-11350529D01*
X9261143Y-11321957D01*
X9261143Y-11064814D01*
X9646857Y-11364814D02*
X9646857Y-11064814D01*
X9746857Y-11279100D01*
X9846857Y-11064814D01*
X9846857Y-11364814D01*
X10118286Y-11364814D02*
X10118286Y-11207671D01*
X10104000Y-11179100D01*
X10075428Y-11164814D01*
X10018286Y-11164814D01*
X9989714Y-11179100D01*
X10118286Y-11350529D02*
X10089714Y-11364814D01*
X10018286Y-11364814D01*
X9989714Y-11350529D01*
X9975428Y-11321957D01*
X9975428Y-11293386D01*
X9989714Y-11264814D01*
X10018286Y-11250529D01*
X10089714Y-11250529D01*
X10118286Y-11236243D01*
X10261143Y-11164814D02*
X10261143Y-11464814D01*
X10261143Y-11179100D02*
X10289714Y-11164814D01*
X10346857Y-11164814D01*
X10375428Y-11179100D01*
X10389714Y-11193386D01*
X10404000Y-11221957D01*
X10404000Y-11307671D01*
X10389714Y-11336243D01*
X10375428Y-11350529D01*
X10346857Y-11364814D01*
X10289714Y-11364814D01*
X10261143Y-11350529D01*
X10532571Y-11336243D02*
X10546857Y-11350529D01*
X10532571Y-11364814D01*
X10518286Y-11350529D01*
X10532571Y-11336243D01*
X10532571Y-11364814D01*
X10532571Y-11179100D02*
X10546857Y-11193386D01*
X10532571Y-11207671D01*
X10518286Y-11193386D01*
X10532571Y-11179100D01*
X10532571Y-11207671D01*
X7919000Y-11724100D02*
X8189000Y-11994100D01*
X8189000Y-11724100D02*
X7919000Y-11994100D01*
X8461143Y-11723386D02*
X8475428Y-11709100D01*
X8504000Y-11694814D01*
X8575428Y-11694814D01*
X8604000Y-11709100D01*
X8618286Y-11723386D01*
X8632571Y-11751957D01*
X8632571Y-11780529D01*
X8618286Y-11823386D01*
X8446857Y-11994814D01*
X8632571Y-11994814D01*
X8761143Y-11966243D02*
X8775428Y-11980529D01*
X8761143Y-11994814D01*
X8746857Y-11980529D01*
X8761143Y-11966243D01*
X8761143Y-11994814D01*
X8875428Y-11694814D02*
X9075428Y-11694814D01*
X8946857Y-11994814D01*
X9246857Y-11694814D02*
X9275428Y-11694814D01*
X9304000Y-11709100D01*
X9318286Y-11723386D01*
X9332571Y-11751957D01*
X9346857Y-11809100D01*
X9346857Y-11880529D01*
X9332571Y-11937671D01*
X9318286Y-11966243D01*
X9304000Y-11980529D01*
X9275428Y-11994814D01*
X9246857Y-11994814D01*
X9218286Y-11980529D01*
X9204000Y-11966243D01*
X9189714Y-11937671D01*
X9175428Y-11880529D01*
X9175428Y-11809100D01*
X9189714Y-11751957D01*
X9204000Y-11723386D01*
X9218286Y-11709100D01*
X9246857Y-11694814D01*
X9475428Y-11994814D02*
X9475428Y-11794814D01*
X9475428Y-11823386D02*
X9489714Y-11809100D01*
X9518286Y-11794814D01*
X9561143Y-11794814D01*
X9589714Y-11809100D01*
X9604000Y-11837671D01*
X9604000Y-11994814D01*
X9604000Y-11837671D02*
X9618286Y-11809100D01*
X9646857Y-11794814D01*
X9689714Y-11794814D01*
X9718286Y-11809100D01*
X9732571Y-11837671D01*
X9732571Y-11994814D01*
X9875428Y-11994814D02*
X9875428Y-11794814D01*
X9875428Y-11823386D02*
X9889714Y-11809100D01*
X9918286Y-11794814D01*
X9961143Y-11794814D01*
X9989714Y-11809100D01*
X10004000Y-11837671D01*
X10004000Y-11994814D01*
X10004000Y-11837671D02*
X10018286Y-11809100D01*
X10046857Y-11794814D01*
X10089714Y-11794814D01*
X10118286Y-11809100D01*
X10132571Y-11837671D01*
X10132571Y-11994814D01*
X10718286Y-11680529D02*
X10461143Y-12066243D01*
X11104000Y-11694814D02*
X11132571Y-11694814D01*
X11161143Y-11709100D01*
X11175428Y-11723386D01*
X11189714Y-11751957D01*
X11204000Y-11809100D01*
X11204000Y-11880529D01*
X11189714Y-11937671D01*
X11175428Y-11966243D01*
X11161143Y-11980529D01*
X11132571Y-11994814D01*
X11104000Y-11994814D01*
X11075428Y-11980529D01*
X11061143Y-11966243D01*
X11046857Y-11937671D01*
X11032571Y-11880529D01*
X11032571Y-11809100D01*
X11046857Y-11751957D01*
X11061143Y-11723386D01*
X11075428Y-11709100D01*
X11104000Y-11694814D01*
X11332571Y-11966243D02*
X11346857Y-11980529D01*
X11332571Y-11994814D01*
X11318286Y-11980529D01*
X11332571Y-11966243D01*
X11332571Y-11994814D01*
X11632571Y-11994814D02*
X11461143Y-11994814D01*
X11546857Y-11994814D02*
X11546857Y-11694814D01*
X11518286Y-11737671D01*
X11489714Y-11766243D01*
X11461143Y-11780529D01*
X11818286Y-11694814D02*
X11846857Y-11694814D01*
X11875428Y-11709100D01*
X11889714Y-11723386D01*
X11904000Y-11751957D01*
X11918286Y-11809100D01*
X11918286Y-11880529D01*
X11904000Y-11937671D01*
X11889714Y-11966243D01*
X11875428Y-11980529D01*
X11846857Y-11994814D01*
X11818286Y-11994814D01*
X11789714Y-11980529D01*
X11775428Y-11966243D01*
X11761143Y-11937671D01*
X11746857Y-11880529D01*
X11746857Y-11809100D01*
X11761143Y-11751957D01*
X11775428Y-11723386D01*
X11789714Y-11709100D01*
X11818286Y-11694814D01*
X12175428Y-11694814D02*
X12118286Y-11694814D01*
X12089714Y-11709100D01*
X12075428Y-11723386D01*
X12046857Y-11766243D01*
X12032571Y-11823386D01*
X12032571Y-11937671D01*
X12046857Y-11966243D01*
X12061143Y-11980529D01*
X12089714Y-11994814D01*
X12146857Y-11994814D01*
X12175428Y-11980529D01*
X12189714Y-11966243D01*
X12204000Y-11937671D01*
X12204000Y-11866243D01*
X12189714Y-11837671D01*
X12175428Y-11823386D01*
X12146857Y-11809100D01*
X12089714Y-11809100D01*
X12061143Y-11823386D01*
X12046857Y-11837671D01*
X12032571Y-11866243D01*
X12318286Y-11694814D02*
X12318286Y-11751957D01*
X12432571Y-11694814D02*
X12432571Y-11751957D01*
X12875428Y-12109100D02*
X12861143Y-12094814D01*
X12832571Y-12051957D01*
X12818286Y-12023386D01*
X12804000Y-11980529D01*
X12789714Y-11909100D01*
X12789714Y-11851957D01*
X12804000Y-11780529D01*
X12818286Y-11737671D01*
X12832571Y-11709100D01*
X12861143Y-11666243D01*
X12875428Y-11651957D01*
X13146857Y-11994814D02*
X12975428Y-11994814D01*
X13061143Y-11994814D02*
X13061143Y-11694814D01*
X13032571Y-11737671D01*
X13004000Y-11766243D01*
X12975428Y-11780529D01*
X13504000Y-11994814D02*
X13504000Y-11694814D01*
X13632571Y-11994814D02*
X13632571Y-11837671D01*
X13618286Y-11809100D01*
X13589714Y-11794814D01*
X13546857Y-11794814D01*
X13518286Y-11809100D01*
X13504000Y-11823386D01*
X13818286Y-11994814D02*
X13789714Y-11980529D01*
X13775428Y-11966243D01*
X13761143Y-11937671D01*
X13761143Y-11851957D01*
X13775428Y-11823386D01*
X13789714Y-11809100D01*
X13818286Y-11794814D01*
X13861143Y-11794814D01*
X13889714Y-11809100D01*
X13904000Y-11823386D01*
X13918286Y-11851957D01*
X13918286Y-11937671D01*
X13904000Y-11966243D01*
X13889714Y-11980529D01*
X13861143Y-11994814D01*
X13818286Y-11994814D01*
X14089714Y-11994814D02*
X14061143Y-11980529D01*
X14046857Y-11951957D01*
X14046857Y-11694814D01*
X14318286Y-11980529D02*
X14289714Y-11994814D01*
X14232571Y-11994814D01*
X14204000Y-11980529D01*
X14189714Y-11951957D01*
X14189714Y-11837671D01*
X14204000Y-11809100D01*
X14232571Y-11794814D01*
X14289714Y-11794814D01*
X14318286Y-11809100D01*
X14332571Y-11837671D01*
X14332571Y-11866243D01*
X14189714Y-11894814D01*
X14432571Y-12109100D02*
X14446857Y-12094814D01*
X14475428Y-12051957D01*
X14489714Y-12023386D01*
X14504000Y-11980529D01*
X14518286Y-11909100D01*
X14518286Y-11851957D01*
X14504000Y-11780529D01*
X14489714Y-11737671D01*
X14475428Y-11709100D01*
X14446857Y-11666243D01*
X14432571Y-11651957D01*
X14975428Y-12109100D02*
X14961143Y-12094814D01*
X14932571Y-12051957D01*
X14918286Y-12023386D01*
X14904000Y-11980529D01*
X14889714Y-11909100D01*
X14889714Y-11851957D01*
X14904000Y-11780529D01*
X14918286Y-11737671D01*
X14932571Y-11709100D01*
X14961143Y-11666243D01*
X14975428Y-11651957D01*
X15089714Y-11794814D02*
X15089714Y-11994814D01*
X15089714Y-11823386D02*
X15104000Y-11809100D01*
X15132571Y-11794814D01*
X15175428Y-11794814D01*
X15204000Y-11809100D01*
X15218286Y-11837671D01*
X15218286Y-11994814D01*
X15404000Y-11994814D02*
X15375428Y-11980529D01*
X15361143Y-11966243D01*
X15346857Y-11937671D01*
X15346857Y-11851957D01*
X15361143Y-11823386D01*
X15375428Y-11809100D01*
X15404000Y-11794814D01*
X15446857Y-11794814D01*
X15475428Y-11809100D01*
X15489714Y-11823386D01*
X15504000Y-11851957D01*
X15504000Y-11937671D01*
X15489714Y-11966243D01*
X15475428Y-11980529D01*
X15446857Y-11994814D01*
X15404000Y-11994814D01*
X15589714Y-11794814D02*
X15704000Y-11794814D01*
X15632571Y-11694814D02*
X15632571Y-11951957D01*
X15646857Y-11980529D01*
X15675428Y-11994814D01*
X15704000Y-11994814D01*
X16032571Y-11794814D02*
X16032571Y-12094814D01*
X16032571Y-11809100D02*
X16061143Y-11794814D01*
X16118286Y-11794814D01*
X16146857Y-11809100D01*
X16161143Y-11823386D01*
X16175428Y-11851957D01*
X16175428Y-11937671D01*
X16161143Y-11966243D01*
X16146857Y-11980529D01*
X16118286Y-11994814D01*
X16061143Y-11994814D01*
X16032571Y-11980529D01*
X16346857Y-11994814D02*
X16318286Y-11980529D01*
X16304000Y-11951957D01*
X16304000Y-11694814D01*
X16589714Y-11994814D02*
X16589714Y-11837671D01*
X16575428Y-11809100D01*
X16546857Y-11794814D01*
X16489714Y-11794814D01*
X16461143Y-11809100D01*
X16589714Y-11980529D02*
X16561143Y-11994814D01*
X16489714Y-11994814D01*
X16461143Y-11980529D01*
X16446857Y-11951957D01*
X16446857Y-11923386D01*
X16461143Y-11894814D01*
X16489714Y-11880529D01*
X16561143Y-11880529D01*
X16589714Y-11866243D01*
X16689714Y-11794814D02*
X16804000Y-11794814D01*
X16732571Y-11694814D02*
X16732571Y-11951957D01*
X16746857Y-11980529D01*
X16775428Y-11994814D01*
X16804000Y-11994814D01*
X17018286Y-11980529D02*
X16989714Y-11994814D01*
X16932571Y-11994814D01*
X16904000Y-11980529D01*
X16889714Y-11951957D01*
X16889714Y-11837671D01*
X16904000Y-11809100D01*
X16932571Y-11794814D01*
X16989714Y-11794814D01*
X17018286Y-11809100D01*
X17032571Y-11837671D01*
X17032571Y-11866243D01*
X16889714Y-11894814D01*
X17289714Y-11994814D02*
X17289714Y-11694814D01*
X17289714Y-11980529D02*
X17261143Y-11994814D01*
X17204000Y-11994814D01*
X17175428Y-11980529D01*
X17161143Y-11966243D01*
X17146857Y-11937671D01*
X17146857Y-11851957D01*
X17161143Y-11823386D01*
X17175428Y-11809100D01*
X17204000Y-11794814D01*
X17261143Y-11794814D01*
X17289714Y-11809100D01*
X17404000Y-12109100D02*
X17418286Y-12094814D01*
X17446857Y-12051957D01*
X17461143Y-12023386D01*
X17475428Y-11980529D01*
X17489714Y-11909100D01*
X17489714Y-11851957D01*
X17475428Y-11780529D01*
X17461143Y-11737671D01*
X17446857Y-11709100D01*
X17418286Y-11666243D01*
X17404000Y-11651957D01*
M02*
