%TF.GenerationSoftware,KiCad,Pcbnew,5.1.8-5.1.8*%
%TF.CreationDate,2022-10-01T18:22:25+01:00*%
%TF.ProjectId,ESPower,4553506f-7765-4722-9e6b-696361645f70,rev?*%
%TF.SameCoordinates,Original*%
%TF.FileFunction,Legend,Top*%
%TF.FilePolarity,Positive*%
%FSLAX46Y46*%
G04 Gerber Fmt 4.6, Leading zero omitted, Abs format (unit mm)*
G04 Created by KiCad (PCBNEW 5.1.8-5.1.8) date 2022-10-01 18:22:25*
%MOMM*%
%LPD*%
G01*
G04 APERTURE LIST*
%ADD10C,0.150000*%
%ADD11C,0.120000*%
%ADD12C,0.200000*%
%ADD13C,0.127000*%
%ADD14R,2.500000X1.800000*%
%ADD15C,2.700000*%
%ADD16C,1.500000*%
%ADD17R,1.500000X1.500000*%
%ADD18R,0.900000X0.800000*%
%ADD19R,0.650000X1.060000*%
%ADD20R,3.200000X2.400000*%
%ADD21R,0.800000X0.900000*%
%ADD22R,1.700000X1.700000*%
%ADD23O,1.700000X1.700000*%
%ADD24C,1.600000*%
%ADD25R,1.600000X1.600000*%
G04 APERTURE END LIST*
D10*
X108585000Y-104751142D02*
X108632619Y-104798761D01*
X108585000Y-104846380D01*
X108537380Y-104798761D01*
X108585000Y-104751142D01*
X108585000Y-104846380D01*
X92329000Y-104751142D02*
X92376619Y-104798761D01*
X92329000Y-104846380D01*
X92281380Y-104798761D01*
X92329000Y-104751142D01*
X92329000Y-104846380D01*
X154432000Y-107418142D02*
X154479619Y-107465761D01*
X154432000Y-107513380D01*
X154384380Y-107465761D01*
X154432000Y-107418142D01*
X154432000Y-107513380D01*
X112141000Y-99290142D02*
X112188619Y-99337761D01*
X112141000Y-99385380D01*
X112093380Y-99337761D01*
X112141000Y-99290142D01*
X112141000Y-99385380D01*
X109601000Y-95099142D02*
X109648619Y-95146761D01*
X109601000Y-95194380D01*
X109553380Y-95146761D01*
X109601000Y-95099142D01*
X109601000Y-95194380D01*
X94869000Y-103735142D02*
X94916619Y-103782761D01*
X94869000Y-103830380D01*
X94821380Y-103782761D01*
X94869000Y-103735142D01*
X94869000Y-103830380D01*
X90805000Y-96115142D02*
X90852619Y-96162761D01*
X90805000Y-96210380D01*
X90757380Y-96162761D01*
X90805000Y-96115142D01*
X90805000Y-96210380D01*
X93345000Y-96115142D02*
X93392619Y-96162761D01*
X93345000Y-96210380D01*
X93297380Y-96162761D01*
X93345000Y-96115142D01*
X93345000Y-96210380D01*
X124526972Y-99919980D02*
X124193506Y-100396077D01*
X124722412Y-100456947D02*
X123782719Y-100798967D01*
X123652426Y-100440989D01*
X123664600Y-100335208D01*
X123693061Y-100274174D01*
X123766268Y-100196853D01*
X123900510Y-100147993D01*
X124006291Y-100160167D01*
X124067325Y-100188628D01*
X124144646Y-100261835D01*
X124274939Y-100619814D01*
X124412965Y-99606749D02*
X123607350Y-99342542D01*
X123786504Y-99834762D02*
X124233812Y-99114529D01*
X124014024Y-98789124D02*
X124042485Y-98728090D01*
X124103518Y-98756551D01*
X124075058Y-98817585D01*
X124014024Y-98789124D01*
X124103518Y-98756551D01*
X123033532Y-98740593D02*
X122821806Y-98158878D01*
X123293791Y-98341816D01*
X123244931Y-98207574D01*
X123257104Y-98101793D01*
X123285565Y-98040759D01*
X123358773Y-97963438D01*
X123582509Y-97882005D01*
X123688290Y-97894179D01*
X123749324Y-97922639D01*
X123826645Y-97995847D01*
X123924365Y-98264331D01*
X123912191Y-98370112D01*
X123883731Y-98431146D01*
X125783620Y-98594207D02*
X125722587Y-98565746D01*
X125645266Y-98492538D01*
X125563833Y-98268802D01*
X125576006Y-98163021D01*
X125604467Y-98101987D01*
X125677675Y-98024666D01*
X125767169Y-97992093D01*
X125917698Y-97987980D01*
X126650105Y-98329507D01*
X126438379Y-97747792D01*
X128870863Y-100694341D02*
X128675423Y-100157373D01*
X129712835Y-100083837D02*
X128773143Y-100425857D01*
X129533682Y-99591617D02*
X128728067Y-99327410D01*
X128907220Y-99819630D02*
X129354529Y-99099397D01*
X129134741Y-98773992D02*
X129163201Y-98712958D01*
X129224235Y-98741419D01*
X129195775Y-98802453D01*
X129134741Y-98773992D01*
X129224235Y-98741419D01*
X128882215Y-97801726D02*
X129077655Y-98338693D01*
X128979935Y-98070210D02*
X128040242Y-98412230D01*
X128207058Y-98452865D01*
X128329125Y-98509786D01*
X128406446Y-98582994D01*
X130692693Y-98403044D02*
X130660119Y-98313549D01*
X130672293Y-98207768D01*
X130700754Y-98146734D01*
X130773962Y-98069413D01*
X130936664Y-97959519D01*
X131160400Y-97878086D01*
X131355676Y-97857686D01*
X131461457Y-97869860D01*
X131522491Y-97898321D01*
X131599812Y-97971529D01*
X131632385Y-98061023D01*
X131620211Y-98166805D01*
X131591751Y-98227839D01*
X131518543Y-98305159D01*
X131355840Y-98415053D01*
X131132104Y-98496486D01*
X130936828Y-98516886D01*
X130831047Y-98504712D01*
X130770013Y-98476251D01*
X130692693Y-98403044D01*
X130473740Y-104645966D02*
X130461566Y-104751747D01*
X130510426Y-104885989D01*
X130604033Y-105003944D01*
X130726101Y-105060865D01*
X130831882Y-105073039D01*
X131027158Y-105052640D01*
X131161400Y-105003780D01*
X131324102Y-104893886D01*
X131397310Y-104816565D01*
X131454231Y-104694497D01*
X131450119Y-104543969D01*
X131417545Y-104454474D01*
X131323938Y-104336519D01*
X131262904Y-104308058D01*
X130949673Y-104422065D01*
X131014820Y-104601054D01*
X131205819Y-103872760D02*
X130266126Y-104214780D01*
X131010379Y-103335792D01*
X130070686Y-103677813D01*
X130847512Y-102888320D02*
X129907819Y-103230340D01*
X129826386Y-103006604D01*
X129822273Y-102856075D01*
X129879194Y-102734007D01*
X129952402Y-102656687D01*
X130115104Y-102546793D01*
X130249346Y-102497933D01*
X130444622Y-102477533D01*
X130550403Y-102489707D01*
X130672471Y-102546628D01*
X130766078Y-102664583D01*
X130847512Y-102888320D01*
X128455322Y-104858012D02*
X128341315Y-104544781D01*
X128784675Y-104231386D02*
X128947542Y-104678859D01*
X128007849Y-105020879D01*
X127844983Y-104573406D01*
X128638095Y-103828661D02*
X127698403Y-104170681D01*
X128442655Y-103291693D01*
X127502962Y-103633714D01*
X125339293Y-105079462D02*
X125127566Y-104497747D01*
X125599551Y-104680685D01*
X125550691Y-104546443D01*
X125562865Y-104440662D01*
X125591325Y-104379628D01*
X125664533Y-104302307D01*
X125888270Y-104220874D01*
X125994051Y-104233048D01*
X126055085Y-104261508D01*
X126132405Y-104334716D01*
X126230125Y-104603200D01*
X126217951Y-104708981D01*
X126189491Y-104770015D01*
X125831184Y-103785575D02*
X125859645Y-103724541D01*
X125920679Y-103753002D01*
X125892218Y-103814035D01*
X125831184Y-103785575D01*
X125920679Y-103753002D01*
X124850693Y-103737044D02*
X124638966Y-103155329D01*
X125110951Y-103338267D01*
X125062091Y-103204025D01*
X125074265Y-103098244D01*
X125102725Y-103037210D01*
X125175933Y-102959889D01*
X125399669Y-102878456D01*
X125505451Y-102890630D01*
X125566485Y-102919090D01*
X125643805Y-102992298D01*
X125741525Y-103260782D01*
X125729351Y-103366563D01*
X125700891Y-103427597D01*
X124541246Y-102886845D02*
X125366932Y-102231594D01*
X124313232Y-102260384D01*
X123258433Y-105199220D02*
X124084119Y-104543969D01*
X123030419Y-104572758D01*
X123571171Y-103413113D02*
X123632205Y-103441574D01*
X123725812Y-103559529D01*
X123758385Y-103649023D01*
X123762498Y-103799552D01*
X123705577Y-103921620D01*
X123632369Y-103998940D01*
X123469667Y-104108834D01*
X123335425Y-104157694D01*
X123140149Y-104178094D01*
X123034368Y-104165920D01*
X122912300Y-104108999D01*
X122818693Y-103991044D01*
X122786119Y-103901549D01*
X122782006Y-103751021D01*
X122810467Y-103689987D01*
X123229150Y-102473420D02*
X123290184Y-102501881D01*
X123383792Y-102619836D01*
X123416365Y-102709331D01*
X123420478Y-102859859D01*
X123363557Y-102981927D01*
X123290349Y-103059248D01*
X123127646Y-103169142D01*
X122993405Y-103218002D01*
X122798129Y-103238401D01*
X122692348Y-103226227D01*
X122570280Y-103169306D01*
X122476672Y-103051351D01*
X122444099Y-102961856D01*
X122439986Y-102811328D01*
X122468447Y-102750294D01*
D11*
X152133333Y-106730000D02*
X152666666Y-106730000D01*
X152400000Y-106996666D02*
X152400000Y-106463333D01*
D10*
X108640571Y-96686619D02*
X108688190Y-96543761D01*
X108735809Y-96496142D01*
X108831047Y-96448523D01*
X108973904Y-96448523D01*
X109069142Y-96496142D01*
X109116761Y-96543761D01*
X109164380Y-96639000D01*
X109164380Y-97019952D01*
X108164380Y-97019952D01*
X108164380Y-96686619D01*
X108212000Y-96591380D01*
X108259619Y-96543761D01*
X108354857Y-96496142D01*
X108450095Y-96496142D01*
X108545333Y-96543761D01*
X108592952Y-96591380D01*
X108640571Y-96686619D01*
X108640571Y-97019952D01*
X108783428Y-96019952D02*
X108783428Y-95258047D01*
X82407285Y-102179428D02*
X83169190Y-102179428D01*
X82788238Y-102560380D02*
X82788238Y-101798476D01*
X84121571Y-101560380D02*
X83645380Y-101560380D01*
X83597761Y-102036571D01*
X83645380Y-101988952D01*
X83740619Y-101941333D01*
X83978714Y-101941333D01*
X84073952Y-101988952D01*
X84121571Y-102036571D01*
X84169190Y-102131809D01*
X84169190Y-102369904D01*
X84121571Y-102465142D01*
X84073952Y-102512761D01*
X83978714Y-102560380D01*
X83740619Y-102560380D01*
X83645380Y-102512761D01*
X83597761Y-102465142D01*
X84454904Y-101560380D02*
X84788238Y-102560380D01*
X85121571Y-101560380D01*
D11*
X109064000Y-108457000D02*
X109064000Y-105157000D01*
X109064000Y-105157000D02*
X103664000Y-105157000D01*
X109064000Y-108457000D02*
X103664000Y-108457000D01*
X92808000Y-108457000D02*
X92808000Y-105157000D01*
X92808000Y-105157000D02*
X87408000Y-105157000D01*
X92808000Y-108457000D02*
X87408000Y-108457000D01*
X87390500Y-100186258D02*
X87390500Y-99711742D01*
X86345500Y-100186258D02*
X86345500Y-99711742D01*
D12*
X146912000Y-93540000D02*
G75*
G03*
X146912000Y-93540000I-100000J0D01*
G01*
D13*
X160772000Y-108690000D02*
X160772000Y-94290000D01*
X142772000Y-108690000D02*
X142772000Y-94290000D01*
X160772000Y-108690000D02*
X142772000Y-108690000D01*
X167472000Y-108690000D02*
X160772000Y-108690000D01*
X167472000Y-94290000D02*
X167472000Y-108690000D01*
X160772000Y-94290000D02*
X167472000Y-94290000D01*
X142772000Y-94290000D02*
X160772000Y-94290000D01*
D11*
X153668000Y-99497000D02*
X152208000Y-99497000D01*
X153668000Y-96337000D02*
X151508000Y-96337000D01*
X153668000Y-96337000D02*
X153668000Y-97267000D01*
X153668000Y-99497000D02*
X153668000Y-98567000D01*
X153965000Y-104383000D02*
X153965000Y-106833000D01*
X157185000Y-106183000D02*
X157185000Y-104383000D01*
X112735000Y-102373000D02*
X112735000Y-99923000D01*
X109515000Y-100573000D02*
X109515000Y-102373000D01*
X94214000Y-99695000D02*
X94214000Y-103145000D01*
X94214000Y-99695000D02*
X94214000Y-97745000D01*
X99334000Y-99695000D02*
X99334000Y-101645000D01*
X99334000Y-99695000D02*
X99334000Y-97745000D01*
X142000500Y-104885258D02*
X142000500Y-104410742D01*
X140955500Y-104885258D02*
X140955500Y-104410742D01*
X107427500Y-102886742D02*
X107427500Y-103361258D01*
X108472500Y-102886742D02*
X108472500Y-103361258D01*
X87390500Y-96503258D02*
X87390500Y-96028742D01*
X86345500Y-96503258D02*
X86345500Y-96028742D01*
X87390500Y-103869258D02*
X87390500Y-103394742D01*
X86345500Y-103869258D02*
X86345500Y-103394742D01*
X92724500Y-101329258D02*
X92724500Y-100854742D01*
X91679500Y-101329258D02*
X91679500Y-100854742D01*
X90184500Y-101329258D02*
X90184500Y-100854742D01*
X89139500Y-101329258D02*
X89139500Y-100854742D01*
X114285500Y-99584742D02*
X114285500Y-100059258D01*
X115330500Y-99584742D02*
X115330500Y-100059258D01*
X101487500Y-101837258D02*
X101487500Y-101362742D01*
X100442500Y-101837258D02*
X100442500Y-101362742D01*
X113665000Y-94529000D02*
X110065000Y-94529000D01*
X113665000Y-94529000D02*
X115865000Y-94529000D01*
X113665000Y-97749000D02*
X111465000Y-97749000D01*
X113665000Y-97749000D02*
X115865000Y-97749000D01*
X105466000Y-100713000D02*
X105466000Y-102173000D01*
X102306000Y-100713000D02*
X102306000Y-102873000D01*
X102306000Y-100713000D02*
X103236000Y-100713000D01*
X105466000Y-100713000D02*
X104536000Y-100713000D01*
X122114000Y-94809000D02*
X122114000Y-97469000D01*
X129794000Y-94809000D02*
X122114000Y-94809000D01*
X129794000Y-97469000D02*
X122114000Y-97469000D01*
X129794000Y-94809000D02*
X129794000Y-97469000D01*
X131064000Y-94809000D02*
X132394000Y-94809000D01*
X132394000Y-94809000D02*
X132394000Y-96139000D01*
X102531000Y-94809000D02*
X102531000Y-97469000D01*
X105131000Y-94809000D02*
X102531000Y-94809000D01*
X105131000Y-97469000D02*
X102531000Y-97469000D01*
X105131000Y-94809000D02*
X105131000Y-97469000D01*
X106401000Y-94809000D02*
X107731000Y-94809000D01*
X107731000Y-94809000D02*
X107731000Y-96139000D01*
X122089000Y-105477000D02*
X122089000Y-108137000D01*
X129769000Y-105477000D02*
X122089000Y-105477000D01*
X129769000Y-108137000D02*
X122089000Y-108137000D01*
X129769000Y-105477000D02*
X129769000Y-108137000D01*
X131039000Y-105477000D02*
X132369000Y-105477000D01*
X132369000Y-105477000D02*
X132369000Y-106807000D01*
X119313000Y-108137000D02*
X119313000Y-105477000D01*
X116713000Y-108137000D02*
X119313000Y-108137000D01*
X116713000Y-105477000D02*
X119313000Y-105477000D01*
X116713000Y-108137000D02*
X116713000Y-105477000D01*
X115443000Y-108137000D02*
X114113000Y-108137000D01*
X114113000Y-108137000D02*
X114113000Y-106807000D01*
X82744000Y-95952000D02*
X84074000Y-95952000D01*
X82744000Y-97282000D02*
X82744000Y-95952000D01*
X82744000Y-98552000D02*
X85404000Y-98552000D01*
X85404000Y-98552000D02*
X85404000Y-101152000D01*
X82744000Y-98552000D02*
X82744000Y-101152000D01*
X82744000Y-101152000D02*
X85404000Y-101152000D01*
X91467000Y-95797000D02*
X91467000Y-98082000D01*
X92937000Y-95797000D02*
X91467000Y-95797000D01*
X92937000Y-98082000D02*
X92937000Y-95797000D01*
X88927000Y-95797000D02*
X88927000Y-98082000D01*
X90397000Y-95797000D02*
X88927000Y-95797000D01*
X90397000Y-98082000D02*
X90397000Y-95797000D01*
X133683000Y-105510698D02*
X134483000Y-105510698D01*
X134083000Y-105910698D02*
X134083000Y-105110698D01*
X135865000Y-97420000D02*
X136931000Y-97420000D01*
X135630000Y-97460000D02*
X137166000Y-97460000D01*
X135450000Y-97500000D02*
X137346000Y-97500000D01*
X135300000Y-97540000D02*
X137496000Y-97540000D01*
X135169000Y-97580000D02*
X137627000Y-97580000D01*
X135052000Y-97620000D02*
X137744000Y-97620000D01*
X134945000Y-97660000D02*
X137851000Y-97660000D01*
X134846000Y-97700000D02*
X137950000Y-97700000D01*
X134753000Y-97740000D02*
X138043000Y-97740000D01*
X134667000Y-97780000D02*
X138129000Y-97780000D01*
X134585000Y-97820000D02*
X138211000Y-97820000D01*
X134508000Y-97860000D02*
X138288000Y-97860000D01*
X134434000Y-97900000D02*
X138362000Y-97900000D01*
X134364000Y-97940000D02*
X138432000Y-97940000D01*
X134296000Y-97980000D02*
X138500000Y-97980000D01*
X134232000Y-98020000D02*
X138564000Y-98020000D01*
X134170000Y-98060000D02*
X138626000Y-98060000D01*
X134111000Y-98100000D02*
X138685000Y-98100000D01*
X134053000Y-98140000D02*
X138743000Y-98140000D01*
X133998000Y-98180000D02*
X138798000Y-98180000D01*
X133944000Y-98220000D02*
X138852000Y-98220000D01*
X133893000Y-98260000D02*
X138903000Y-98260000D01*
X133842000Y-98300000D02*
X138954000Y-98300000D01*
X133794000Y-98340000D02*
X139002000Y-98340000D01*
X133747000Y-98380000D02*
X139049000Y-98380000D01*
X133701000Y-98420000D02*
X139095000Y-98420000D01*
X133657000Y-98460000D02*
X139139000Y-98460000D01*
X133614000Y-98500000D02*
X139182000Y-98500000D01*
X133572000Y-98540000D02*
X139224000Y-98540000D01*
X133531000Y-98580000D02*
X139265000Y-98580000D01*
X133491000Y-98620000D02*
X139305000Y-98620000D01*
X133453000Y-98660000D02*
X139343000Y-98660000D01*
X133415000Y-98700000D02*
X139381000Y-98700000D01*
X137438000Y-98740000D02*
X139417000Y-98740000D01*
X133379000Y-98740000D02*
X135358000Y-98740000D01*
X137438000Y-98780000D02*
X139453000Y-98780000D01*
X133343000Y-98780000D02*
X135358000Y-98780000D01*
X137438000Y-98820000D02*
X139488000Y-98820000D01*
X133308000Y-98820000D02*
X135358000Y-98820000D01*
X137438000Y-98860000D02*
X139522000Y-98860000D01*
X133274000Y-98860000D02*
X135358000Y-98860000D01*
X137438000Y-98900000D02*
X139554000Y-98900000D01*
X133242000Y-98900000D02*
X135358000Y-98900000D01*
X137438000Y-98940000D02*
X139587000Y-98940000D01*
X133209000Y-98940000D02*
X135358000Y-98940000D01*
X137438000Y-98980000D02*
X139618000Y-98980000D01*
X133178000Y-98980000D02*
X135358000Y-98980000D01*
X137438000Y-99020000D02*
X139648000Y-99020000D01*
X133148000Y-99020000D02*
X135358000Y-99020000D01*
X137438000Y-99060000D02*
X139678000Y-99060000D01*
X133118000Y-99060000D02*
X135358000Y-99060000D01*
X137438000Y-99100000D02*
X139707000Y-99100000D01*
X133089000Y-99100000D02*
X135358000Y-99100000D01*
X137438000Y-99140000D02*
X139736000Y-99140000D01*
X133060000Y-99140000D02*
X135358000Y-99140000D01*
X137438000Y-99180000D02*
X139763000Y-99180000D01*
X133033000Y-99180000D02*
X135358000Y-99180000D01*
X137438000Y-99220000D02*
X139790000Y-99220000D01*
X133006000Y-99220000D02*
X135358000Y-99220000D01*
X137438000Y-99260000D02*
X139816000Y-99260000D01*
X132980000Y-99260000D02*
X135358000Y-99260000D01*
X137438000Y-99300000D02*
X139842000Y-99300000D01*
X132954000Y-99300000D02*
X135358000Y-99300000D01*
X137438000Y-99340000D02*
X139867000Y-99340000D01*
X132929000Y-99340000D02*
X135358000Y-99340000D01*
X137438000Y-99380000D02*
X139891000Y-99380000D01*
X132905000Y-99380000D02*
X135358000Y-99380000D01*
X137438000Y-99420000D02*
X139915000Y-99420000D01*
X132881000Y-99420000D02*
X135358000Y-99420000D01*
X137438000Y-99460000D02*
X139938000Y-99460000D01*
X132858000Y-99460000D02*
X135358000Y-99460000D01*
X137438000Y-99500000D02*
X139960000Y-99500000D01*
X132836000Y-99500000D02*
X135358000Y-99500000D01*
X137438000Y-99540000D02*
X139982000Y-99540000D01*
X132814000Y-99540000D02*
X135358000Y-99540000D01*
X137438000Y-99580000D02*
X140004000Y-99580000D01*
X132792000Y-99580000D02*
X135358000Y-99580000D01*
X137438000Y-99620000D02*
X140025000Y-99620000D01*
X132771000Y-99620000D02*
X135358000Y-99620000D01*
X137438000Y-99660000D02*
X140045000Y-99660000D01*
X132751000Y-99660000D02*
X135358000Y-99660000D01*
X137438000Y-99700000D02*
X140064000Y-99700000D01*
X132732000Y-99700000D02*
X135358000Y-99700000D01*
X137438000Y-99740000D02*
X140084000Y-99740000D01*
X132712000Y-99740000D02*
X135358000Y-99740000D01*
X137438000Y-99780000D02*
X140102000Y-99780000D01*
X132694000Y-99780000D02*
X135358000Y-99780000D01*
X137438000Y-99820000D02*
X140120000Y-99820000D01*
X132676000Y-99820000D02*
X135358000Y-99820000D01*
X137438000Y-99860000D02*
X140138000Y-99860000D01*
X132658000Y-99860000D02*
X135358000Y-99860000D01*
X137438000Y-99900000D02*
X140155000Y-99900000D01*
X132641000Y-99900000D02*
X135358000Y-99900000D01*
X137438000Y-99940000D02*
X140172000Y-99940000D01*
X132624000Y-99940000D02*
X135358000Y-99940000D01*
X137438000Y-99980000D02*
X140188000Y-99980000D01*
X132608000Y-99980000D02*
X135358000Y-99980000D01*
X137438000Y-100020000D02*
X140203000Y-100020000D01*
X132593000Y-100020000D02*
X135358000Y-100020000D01*
X137438000Y-100060000D02*
X140219000Y-100060000D01*
X132577000Y-100060000D02*
X135358000Y-100060000D01*
X137438000Y-100100000D02*
X140233000Y-100100000D01*
X132563000Y-100100000D02*
X135358000Y-100100000D01*
X137438000Y-100140000D02*
X140248000Y-100140000D01*
X132548000Y-100140000D02*
X135358000Y-100140000D01*
X137438000Y-100180000D02*
X140261000Y-100180000D01*
X132535000Y-100180000D02*
X135358000Y-100180000D01*
X137438000Y-100220000D02*
X140275000Y-100220000D01*
X132521000Y-100220000D02*
X135358000Y-100220000D01*
X137438000Y-100260000D02*
X140287000Y-100260000D01*
X132509000Y-100260000D02*
X135358000Y-100260000D01*
X137438000Y-100300000D02*
X140300000Y-100300000D01*
X132496000Y-100300000D02*
X135358000Y-100300000D01*
X137438000Y-100340000D02*
X140312000Y-100340000D01*
X132484000Y-100340000D02*
X135358000Y-100340000D01*
X137438000Y-100380000D02*
X140323000Y-100380000D01*
X132473000Y-100380000D02*
X135358000Y-100380000D01*
X137438000Y-100420000D02*
X140334000Y-100420000D01*
X132462000Y-100420000D02*
X135358000Y-100420000D01*
X137438000Y-100460000D02*
X140345000Y-100460000D01*
X132451000Y-100460000D02*
X135358000Y-100460000D01*
X137438000Y-100500000D02*
X140355000Y-100500000D01*
X132441000Y-100500000D02*
X135358000Y-100500000D01*
X137438000Y-100540000D02*
X140365000Y-100540000D01*
X132431000Y-100540000D02*
X135358000Y-100540000D01*
X137438000Y-100580000D02*
X140374000Y-100580000D01*
X132422000Y-100580000D02*
X135358000Y-100580000D01*
X137438000Y-100620000D02*
X140383000Y-100620000D01*
X132413000Y-100620000D02*
X135358000Y-100620000D01*
X137438000Y-100660000D02*
X140392000Y-100660000D01*
X132404000Y-100660000D02*
X135358000Y-100660000D01*
X137438000Y-100700000D02*
X140400000Y-100700000D01*
X132396000Y-100700000D02*
X135358000Y-100700000D01*
X137438000Y-100740000D02*
X140408000Y-100740000D01*
X132388000Y-100740000D02*
X135358000Y-100740000D01*
X137438000Y-100780000D02*
X140415000Y-100780000D01*
X132381000Y-100780000D02*
X135358000Y-100780000D01*
X132374000Y-100821000D02*
X140422000Y-100821000D01*
X132368000Y-100861000D02*
X140428000Y-100861000D01*
X132361000Y-100901000D02*
X140435000Y-100901000D01*
X132356000Y-100941000D02*
X140440000Y-100941000D01*
X132350000Y-100981000D02*
X140446000Y-100981000D01*
X132346000Y-101021000D02*
X140450000Y-101021000D01*
X132341000Y-101061000D02*
X140455000Y-101061000D01*
X132337000Y-101101000D02*
X140459000Y-101101000D01*
X132333000Y-101141000D02*
X140463000Y-101141000D01*
X132330000Y-101181000D02*
X140466000Y-101181000D01*
X132327000Y-101221000D02*
X140469000Y-101221000D01*
X132324000Y-101261000D02*
X140472000Y-101261000D01*
X132322000Y-101301000D02*
X140474000Y-101301000D01*
X132321000Y-101341000D02*
X140475000Y-101341000D01*
X132319000Y-101381000D02*
X140477000Y-101381000D01*
X132318000Y-101421000D02*
X140478000Y-101421000D01*
X132318000Y-101461000D02*
X140478000Y-101461000D01*
X132318000Y-101501000D02*
X140478000Y-101501000D01*
X140518000Y-101501000D02*
G75*
G03*
X140518000Y-101501000I-4120000J0D01*
G01*
X156974000Y-98057580D02*
X156974000Y-97776420D01*
X155954000Y-98057580D02*
X155954000Y-97776420D01*
X108460000Y-99581580D02*
X108460000Y-99300420D01*
X107440000Y-99581580D02*
X107440000Y-99300420D01*
X111238420Y-105539000D02*
X111519580Y-105539000D01*
X111238420Y-104519000D02*
X111519580Y-104519000D01*
X151938000Y-107085000D02*
X151938000Y-103175000D01*
X150068000Y-107085000D02*
X151938000Y-107085000D01*
X150068000Y-103175000D02*
X150068000Y-107085000D01*
X155842580Y-100201000D02*
X155561420Y-100201000D01*
X155842580Y-101221000D02*
X155561420Y-101221000D01*
X117099000Y-104551241D02*
X117729000Y-104551241D01*
X117414000Y-104866241D02*
X117414000Y-104236241D01*
X118851000Y-98125000D02*
X119655000Y-98125000D01*
X118620000Y-98165000D02*
X119886000Y-98165000D01*
X118451000Y-98205000D02*
X120055000Y-98205000D01*
X118313000Y-98245000D02*
X120193000Y-98245000D01*
X118194000Y-98285000D02*
X120312000Y-98285000D01*
X118088000Y-98325000D02*
X120418000Y-98325000D01*
X117991000Y-98365000D02*
X120515000Y-98365000D01*
X117903000Y-98405000D02*
X120603000Y-98405000D01*
X117821000Y-98445000D02*
X120685000Y-98445000D01*
X117744000Y-98485000D02*
X120762000Y-98485000D01*
X117672000Y-98525000D02*
X120834000Y-98525000D01*
X117603000Y-98565000D02*
X120903000Y-98565000D01*
X117539000Y-98605000D02*
X120967000Y-98605000D01*
X117477000Y-98645000D02*
X121029000Y-98645000D01*
X117419000Y-98685000D02*
X121087000Y-98685000D01*
X117363000Y-98725000D02*
X121143000Y-98725000D01*
X117309000Y-98765000D02*
X121197000Y-98765000D01*
X117258000Y-98805000D02*
X121248000Y-98805000D01*
X117209000Y-98845000D02*
X121297000Y-98845000D01*
X117161000Y-98885000D02*
X121345000Y-98885000D01*
X117116000Y-98925000D02*
X121390000Y-98925000D01*
X117071000Y-98965000D02*
X121435000Y-98965000D01*
X117029000Y-99005000D02*
X121477000Y-99005000D01*
X116988000Y-99045000D02*
X121518000Y-99045000D01*
X120293000Y-99085000D02*
X121558000Y-99085000D01*
X116948000Y-99085000D02*
X118213000Y-99085000D01*
X120293000Y-99125000D02*
X121596000Y-99125000D01*
X116910000Y-99125000D02*
X118213000Y-99125000D01*
X120293000Y-99165000D02*
X121633000Y-99165000D01*
X116873000Y-99165000D02*
X118213000Y-99165000D01*
X120293000Y-99205000D02*
X121669000Y-99205000D01*
X116837000Y-99205000D02*
X118213000Y-99205000D01*
X120293000Y-99245000D02*
X121703000Y-99245000D01*
X116803000Y-99245000D02*
X118213000Y-99245000D01*
X120293000Y-99285000D02*
X121737000Y-99285000D01*
X116769000Y-99285000D02*
X118213000Y-99285000D01*
X120293000Y-99325000D02*
X121769000Y-99325000D01*
X116737000Y-99325000D02*
X118213000Y-99325000D01*
X120293000Y-99365000D02*
X121801000Y-99365000D01*
X116705000Y-99365000D02*
X118213000Y-99365000D01*
X120293000Y-99405000D02*
X121831000Y-99405000D01*
X116675000Y-99405000D02*
X118213000Y-99405000D01*
X120293000Y-99445000D02*
X121860000Y-99445000D01*
X116646000Y-99445000D02*
X118213000Y-99445000D01*
X120293000Y-99485000D02*
X121889000Y-99485000D01*
X116617000Y-99485000D02*
X118213000Y-99485000D01*
X120293000Y-99525000D02*
X121917000Y-99525000D01*
X116589000Y-99525000D02*
X118213000Y-99525000D01*
X120293000Y-99565000D02*
X121943000Y-99565000D01*
X116563000Y-99565000D02*
X118213000Y-99565000D01*
X120293000Y-99605000D02*
X121969000Y-99605000D01*
X116537000Y-99605000D02*
X118213000Y-99605000D01*
X120293000Y-99645000D02*
X121995000Y-99645000D01*
X116511000Y-99645000D02*
X118213000Y-99645000D01*
X120293000Y-99685000D02*
X122019000Y-99685000D01*
X116487000Y-99685000D02*
X118213000Y-99685000D01*
X120293000Y-99725000D02*
X122043000Y-99725000D01*
X116463000Y-99725000D02*
X118213000Y-99725000D01*
X120293000Y-99765000D02*
X122065000Y-99765000D01*
X116441000Y-99765000D02*
X118213000Y-99765000D01*
X120293000Y-99805000D02*
X122087000Y-99805000D01*
X116419000Y-99805000D02*
X118213000Y-99805000D01*
X120293000Y-99845000D02*
X122109000Y-99845000D01*
X116397000Y-99845000D02*
X118213000Y-99845000D01*
X120293000Y-99885000D02*
X122129000Y-99885000D01*
X116377000Y-99885000D02*
X118213000Y-99885000D01*
X120293000Y-99925000D02*
X122149000Y-99925000D01*
X116357000Y-99925000D02*
X118213000Y-99925000D01*
X120293000Y-99965000D02*
X122169000Y-99965000D01*
X116337000Y-99965000D02*
X118213000Y-99965000D01*
X120293000Y-100005000D02*
X122187000Y-100005000D01*
X116319000Y-100005000D02*
X118213000Y-100005000D01*
X120293000Y-100045000D02*
X122205000Y-100045000D01*
X116301000Y-100045000D02*
X118213000Y-100045000D01*
X120293000Y-100085000D02*
X122223000Y-100085000D01*
X116283000Y-100085000D02*
X118213000Y-100085000D01*
X120293000Y-100125000D02*
X122239000Y-100125000D01*
X116267000Y-100125000D02*
X118213000Y-100125000D01*
X120293000Y-100165000D02*
X122255000Y-100165000D01*
X116251000Y-100165000D02*
X118213000Y-100165000D01*
X120293000Y-100205000D02*
X122271000Y-100205000D01*
X116235000Y-100205000D02*
X118213000Y-100205000D01*
X120293000Y-100245000D02*
X122286000Y-100245000D01*
X116220000Y-100245000D02*
X118213000Y-100245000D01*
X120293000Y-100285000D02*
X122300000Y-100285000D01*
X116206000Y-100285000D02*
X118213000Y-100285000D01*
X120293000Y-100325000D02*
X122314000Y-100325000D01*
X116192000Y-100325000D02*
X118213000Y-100325000D01*
X120293000Y-100365000D02*
X122327000Y-100365000D01*
X116179000Y-100365000D02*
X118213000Y-100365000D01*
X120293000Y-100405000D02*
X122339000Y-100405000D01*
X116167000Y-100405000D02*
X118213000Y-100405000D01*
X120293000Y-100445000D02*
X122351000Y-100445000D01*
X116155000Y-100445000D02*
X118213000Y-100445000D01*
X120293000Y-100485000D02*
X122363000Y-100485000D01*
X116143000Y-100485000D02*
X118213000Y-100485000D01*
X120293000Y-100525000D02*
X122374000Y-100525000D01*
X116132000Y-100525000D02*
X118213000Y-100525000D01*
X120293000Y-100565000D02*
X122384000Y-100565000D01*
X116122000Y-100565000D02*
X118213000Y-100565000D01*
X120293000Y-100605000D02*
X122394000Y-100605000D01*
X116112000Y-100605000D02*
X118213000Y-100605000D01*
X120293000Y-100645000D02*
X122403000Y-100645000D01*
X116103000Y-100645000D02*
X118213000Y-100645000D01*
X120293000Y-100686000D02*
X122412000Y-100686000D01*
X116094000Y-100686000D02*
X118213000Y-100686000D01*
X120293000Y-100726000D02*
X122420000Y-100726000D01*
X116086000Y-100726000D02*
X118213000Y-100726000D01*
X120293000Y-100766000D02*
X122428000Y-100766000D01*
X116078000Y-100766000D02*
X118213000Y-100766000D01*
X120293000Y-100806000D02*
X122435000Y-100806000D01*
X116071000Y-100806000D02*
X118213000Y-100806000D01*
X120293000Y-100846000D02*
X122442000Y-100846000D01*
X116064000Y-100846000D02*
X118213000Y-100846000D01*
X120293000Y-100886000D02*
X122448000Y-100886000D01*
X116058000Y-100886000D02*
X118213000Y-100886000D01*
X120293000Y-100926000D02*
X122454000Y-100926000D01*
X116052000Y-100926000D02*
X118213000Y-100926000D01*
X120293000Y-100966000D02*
X122459000Y-100966000D01*
X116047000Y-100966000D02*
X118213000Y-100966000D01*
X120293000Y-101006000D02*
X122464000Y-101006000D01*
X116042000Y-101006000D02*
X118213000Y-101006000D01*
X120293000Y-101046000D02*
X122468000Y-101046000D01*
X116038000Y-101046000D02*
X118213000Y-101046000D01*
X120293000Y-101086000D02*
X122471000Y-101086000D01*
X116035000Y-101086000D02*
X118213000Y-101086000D01*
X120293000Y-101126000D02*
X122475000Y-101126000D01*
X116031000Y-101126000D02*
X118213000Y-101126000D01*
X116029000Y-101166000D02*
X122477000Y-101166000D01*
X116026000Y-101206000D02*
X122480000Y-101206000D01*
X116025000Y-101246000D02*
X122481000Y-101246000D01*
X116023000Y-101286000D02*
X122483000Y-101286000D01*
X116023000Y-101326000D02*
X122483000Y-101326000D01*
X116023000Y-101366000D02*
X122483000Y-101366000D01*
X122523000Y-101366000D02*
G75*
G03*
X122523000Y-101366000I-3270000J0D01*
G01*
X105121333Y-107123666D02*
X105121333Y-106423666D01*
X105288000Y-106423666D01*
X105388000Y-106457000D01*
X105454666Y-106523666D01*
X105488000Y-106590333D01*
X105521333Y-106723666D01*
X105521333Y-106823666D01*
X105488000Y-106957000D01*
X105454666Y-107023666D01*
X105388000Y-107090333D01*
X105288000Y-107123666D01*
X105121333Y-107123666D01*
X105788000Y-106490333D02*
X105821333Y-106457000D01*
X105888000Y-106423666D01*
X106054666Y-106423666D01*
X106121333Y-106457000D01*
X106154666Y-106490333D01*
X106188000Y-106557000D01*
X106188000Y-106623666D01*
X106154666Y-106723666D01*
X105754666Y-107123666D01*
X106188000Y-107123666D01*
X88891333Y-107250666D02*
X88891333Y-106550666D01*
X89058000Y-106550666D01*
X89158000Y-106584000D01*
X89224666Y-106650666D01*
X89258000Y-106717333D01*
X89291333Y-106850666D01*
X89291333Y-106950666D01*
X89258000Y-107084000D01*
X89224666Y-107150666D01*
X89158000Y-107217333D01*
X89058000Y-107250666D01*
X88891333Y-107250666D01*
X89958000Y-107250666D02*
X89558000Y-107250666D01*
X89758000Y-107250666D02*
X89758000Y-106550666D01*
X89691333Y-106650666D01*
X89624666Y-106717333D01*
X89558000Y-106750666D01*
X88454666Y-100065666D02*
X88121333Y-100299000D01*
X88454666Y-100465666D02*
X87754666Y-100465666D01*
X87754666Y-100199000D01*
X87788000Y-100132333D01*
X87821333Y-100099000D01*
X87888000Y-100065666D01*
X87988000Y-100065666D01*
X88054666Y-100099000D01*
X88088000Y-100132333D01*
X88121333Y-100199000D01*
X88121333Y-100465666D01*
X87754666Y-99465666D02*
X87754666Y-99599000D01*
X87788000Y-99665666D01*
X87821333Y-99699000D01*
X87921333Y-99765666D01*
X88054666Y-99799000D01*
X88321333Y-99799000D01*
X88388000Y-99765666D01*
X88421333Y-99732333D01*
X88454666Y-99665666D01*
X88454666Y-99532333D01*
X88421333Y-99465666D01*
X88388000Y-99432333D01*
X88321333Y-99399000D01*
X88154666Y-99399000D01*
X88088000Y-99432333D01*
X88054666Y-99465666D01*
X88021333Y-99532333D01*
X88021333Y-99665666D01*
X88054666Y-99732333D01*
X88088000Y-99765666D01*
X88154666Y-99799000D01*
D10*
X143415095Y-95432571D02*
X143748428Y-95432571D01*
X143891285Y-95956380D02*
X143415095Y-95956380D01*
X143415095Y-94956380D01*
X143891285Y-94956380D01*
X144272238Y-95908761D02*
X144415095Y-95956380D01*
X144653190Y-95956380D01*
X144748428Y-95908761D01*
X144796047Y-95861142D01*
X144843666Y-95765904D01*
X144843666Y-95670666D01*
X144796047Y-95575428D01*
X144748428Y-95527809D01*
X144653190Y-95480190D01*
X144462714Y-95432571D01*
X144367476Y-95384952D01*
X144319857Y-95337333D01*
X144272238Y-95242095D01*
X144272238Y-95146857D01*
X144319857Y-95051619D01*
X144367476Y-95004000D01*
X144462714Y-94956380D01*
X144700809Y-94956380D01*
X144843666Y-95004000D01*
X145272238Y-95956380D02*
X145272238Y-94956380D01*
X145653190Y-94956380D01*
X145748428Y-95004000D01*
X145796047Y-95051619D01*
X145843666Y-95146857D01*
X145843666Y-95289714D01*
X145796047Y-95384952D01*
X145748428Y-95432571D01*
X145653190Y-95480190D01*
X145272238Y-95480190D01*
X146272238Y-95575428D02*
X147034142Y-95575428D01*
X147700809Y-94956380D02*
X147796047Y-94956380D01*
X147891285Y-95004000D01*
X147938904Y-95051619D01*
X147986523Y-95146857D01*
X148034142Y-95337333D01*
X148034142Y-95575428D01*
X147986523Y-95765904D01*
X147938904Y-95861142D01*
X147891285Y-95908761D01*
X147796047Y-95956380D01*
X147700809Y-95956380D01*
X147605571Y-95908761D01*
X147557952Y-95861142D01*
X147510333Y-95765904D01*
X147462714Y-95575428D01*
X147462714Y-95337333D01*
X147510333Y-95146857D01*
X147557952Y-95051619D01*
X147605571Y-95004000D01*
X147700809Y-94956380D01*
X148986523Y-95956380D02*
X148415095Y-95956380D01*
X148700809Y-95956380D02*
X148700809Y-94956380D01*
X148605571Y-95099238D01*
X148510333Y-95194476D01*
X148415095Y-95242095D01*
D11*
X151993666Y-95247666D02*
X151993666Y-95814333D01*
X152027000Y-95881000D01*
X152060333Y-95914333D01*
X152127000Y-95947666D01*
X152260333Y-95947666D01*
X152327000Y-95914333D01*
X152360333Y-95881000D01*
X152393666Y-95814333D01*
X152393666Y-95247666D01*
X153027000Y-95481000D02*
X153027000Y-95947666D01*
X152860333Y-95214333D02*
X152693666Y-95714333D01*
X153127000Y-95714333D01*
X155041666Y-107566666D02*
X155041666Y-108133333D01*
X155075000Y-108200000D01*
X155108333Y-108233333D01*
X155175000Y-108266666D01*
X155308333Y-108266666D01*
X155375000Y-108233333D01*
X155408333Y-108200000D01*
X155441666Y-108133333D01*
X155441666Y-107566666D01*
X155708333Y-107566666D02*
X156141666Y-107566666D01*
X155908333Y-107833333D01*
X156008333Y-107833333D01*
X156075000Y-107866666D01*
X156108333Y-107900000D01*
X156141666Y-107966666D01*
X156141666Y-108133333D01*
X156108333Y-108200000D01*
X156075000Y-108233333D01*
X156008333Y-108266666D01*
X155808333Y-108266666D01*
X155741666Y-108233333D01*
X155708333Y-108200000D01*
X113131666Y-103121666D02*
X113131666Y-103688333D01*
X113165000Y-103755000D01*
X113198333Y-103788333D01*
X113265000Y-103821666D01*
X113398333Y-103821666D01*
X113465000Y-103788333D01*
X113498333Y-103755000D01*
X113531666Y-103688333D01*
X113531666Y-103121666D01*
X113831666Y-103188333D02*
X113865000Y-103155000D01*
X113931666Y-103121666D01*
X114098333Y-103121666D01*
X114165000Y-103155000D01*
X114198333Y-103188333D01*
X114231666Y-103255000D01*
X114231666Y-103321666D01*
X114198333Y-103421666D01*
X113798333Y-103821666D01*
X114231666Y-103821666D01*
X96240666Y-94612666D02*
X96240666Y-95179333D01*
X96274000Y-95246000D01*
X96307333Y-95279333D01*
X96374000Y-95312666D01*
X96507333Y-95312666D01*
X96574000Y-95279333D01*
X96607333Y-95246000D01*
X96640666Y-95179333D01*
X96640666Y-94612666D01*
X97340666Y-95312666D02*
X96940666Y-95312666D01*
X97140666Y-95312666D02*
X97140666Y-94612666D01*
X97074000Y-94712666D01*
X97007333Y-94779333D01*
X96940666Y-94812666D01*
X141361333Y-107250666D02*
X141128000Y-106917333D01*
X140961333Y-107250666D02*
X140961333Y-106550666D01*
X141228000Y-106550666D01*
X141294666Y-106584000D01*
X141328000Y-106617333D01*
X141361333Y-106684000D01*
X141361333Y-106784000D01*
X141328000Y-106850666D01*
X141294666Y-106884000D01*
X141228000Y-106917333D01*
X140961333Y-106917333D01*
X141694666Y-107250666D02*
X141828000Y-107250666D01*
X141894666Y-107217333D01*
X141928000Y-107184000D01*
X141994666Y-107084000D01*
X142028000Y-106950666D01*
X142028000Y-106684000D01*
X141994666Y-106617333D01*
X141961333Y-106584000D01*
X141894666Y-106550666D01*
X141761333Y-106550666D01*
X141694666Y-106584000D01*
X141661333Y-106617333D01*
X141628000Y-106684000D01*
X141628000Y-106850666D01*
X141661333Y-106917333D01*
X141694666Y-106950666D01*
X141761333Y-106984000D01*
X141894666Y-106984000D01*
X141961333Y-106950666D01*
X141994666Y-106917333D01*
X142028000Y-106850666D01*
X106309333Y-103440666D02*
X106076000Y-103107333D01*
X105909333Y-103440666D02*
X105909333Y-102740666D01*
X106176000Y-102740666D01*
X106242666Y-102774000D01*
X106276000Y-102807333D01*
X106309333Y-102874000D01*
X106309333Y-102974000D01*
X106276000Y-103040666D01*
X106242666Y-103074000D01*
X106176000Y-103107333D01*
X105909333Y-103107333D01*
X106709333Y-103040666D02*
X106642666Y-103007333D01*
X106609333Y-102974000D01*
X106576000Y-102907333D01*
X106576000Y-102874000D01*
X106609333Y-102807333D01*
X106642666Y-102774000D01*
X106709333Y-102740666D01*
X106842666Y-102740666D01*
X106909333Y-102774000D01*
X106942666Y-102807333D01*
X106976000Y-102874000D01*
X106976000Y-102907333D01*
X106942666Y-102974000D01*
X106909333Y-103007333D01*
X106842666Y-103040666D01*
X106709333Y-103040666D01*
X106642666Y-103074000D01*
X106609333Y-103107333D01*
X106576000Y-103174000D01*
X106576000Y-103307333D01*
X106609333Y-103374000D01*
X106642666Y-103407333D01*
X106709333Y-103440666D01*
X106842666Y-103440666D01*
X106909333Y-103407333D01*
X106942666Y-103374000D01*
X106976000Y-103307333D01*
X106976000Y-103174000D01*
X106942666Y-103107333D01*
X106909333Y-103074000D01*
X106842666Y-103040666D01*
X88454666Y-96382666D02*
X88121333Y-96616000D01*
X88454666Y-96782666D02*
X87754666Y-96782666D01*
X87754666Y-96516000D01*
X87788000Y-96449333D01*
X87821333Y-96416000D01*
X87888000Y-96382666D01*
X87988000Y-96382666D01*
X88054666Y-96416000D01*
X88088000Y-96449333D01*
X88121333Y-96516000D01*
X88121333Y-96782666D01*
X87754666Y-96149333D02*
X87754666Y-95682666D01*
X88454666Y-95982666D01*
X88454666Y-103748666D02*
X88121333Y-103982000D01*
X88454666Y-104148666D02*
X87754666Y-104148666D01*
X87754666Y-103882000D01*
X87788000Y-103815333D01*
X87821333Y-103782000D01*
X87888000Y-103748666D01*
X87988000Y-103748666D01*
X88054666Y-103782000D01*
X88088000Y-103815333D01*
X88121333Y-103882000D01*
X88121333Y-104148666D01*
X87754666Y-103115333D02*
X87754666Y-103448666D01*
X88088000Y-103482000D01*
X88054666Y-103448666D01*
X88021333Y-103382000D01*
X88021333Y-103215333D01*
X88054666Y-103148666D01*
X88088000Y-103115333D01*
X88154666Y-103082000D01*
X88321333Y-103082000D01*
X88388000Y-103115333D01*
X88421333Y-103148666D01*
X88454666Y-103215333D01*
X88454666Y-103382000D01*
X88421333Y-103448666D01*
X88388000Y-103482000D01*
X92085333Y-103694666D02*
X91852000Y-103361333D01*
X91685333Y-103694666D02*
X91685333Y-102994666D01*
X91952000Y-102994666D01*
X92018666Y-103028000D01*
X92052000Y-103061333D01*
X92085333Y-103128000D01*
X92085333Y-103228000D01*
X92052000Y-103294666D01*
X92018666Y-103328000D01*
X91952000Y-103361333D01*
X91685333Y-103361333D01*
X92685333Y-103228000D02*
X92685333Y-103694666D01*
X92518666Y-102961333D02*
X92352000Y-103461333D01*
X92785333Y-103461333D01*
X89545333Y-103694666D02*
X89312000Y-103361333D01*
X89145333Y-103694666D02*
X89145333Y-102994666D01*
X89412000Y-102994666D01*
X89478666Y-103028000D01*
X89512000Y-103061333D01*
X89545333Y-103128000D01*
X89545333Y-103228000D01*
X89512000Y-103294666D01*
X89478666Y-103328000D01*
X89412000Y-103361333D01*
X89145333Y-103361333D01*
X89778666Y-102994666D02*
X90212000Y-102994666D01*
X89978666Y-103261333D01*
X90078666Y-103261333D01*
X90145333Y-103294666D01*
X90178666Y-103328000D01*
X90212000Y-103394666D01*
X90212000Y-103561333D01*
X90178666Y-103628000D01*
X90145333Y-103661333D01*
X90078666Y-103694666D01*
X89878666Y-103694666D01*
X89812000Y-103661333D01*
X89778666Y-103628000D01*
X114691333Y-102170666D02*
X114458000Y-101837333D01*
X114291333Y-102170666D02*
X114291333Y-101470666D01*
X114558000Y-101470666D01*
X114624666Y-101504000D01*
X114658000Y-101537333D01*
X114691333Y-101604000D01*
X114691333Y-101704000D01*
X114658000Y-101770666D01*
X114624666Y-101804000D01*
X114558000Y-101837333D01*
X114291333Y-101837333D01*
X114958000Y-101537333D02*
X114991333Y-101504000D01*
X115058000Y-101470666D01*
X115224666Y-101470666D01*
X115291333Y-101504000D01*
X115324666Y-101537333D01*
X115358000Y-101604000D01*
X115358000Y-101670666D01*
X115324666Y-101770666D01*
X114924666Y-102170666D01*
X115358000Y-102170666D01*
X100848333Y-103948666D02*
X100615000Y-103615333D01*
X100448333Y-103948666D02*
X100448333Y-103248666D01*
X100715000Y-103248666D01*
X100781666Y-103282000D01*
X100815000Y-103315333D01*
X100848333Y-103382000D01*
X100848333Y-103482000D01*
X100815000Y-103548666D01*
X100781666Y-103582000D01*
X100715000Y-103615333D01*
X100448333Y-103615333D01*
X101515000Y-103948666D02*
X101115000Y-103948666D01*
X101315000Y-103948666D02*
X101315000Y-103248666D01*
X101248333Y-103348666D01*
X101181666Y-103415333D01*
X101115000Y-103448666D01*
X113471333Y-96522333D02*
X113404666Y-96489000D01*
X113338000Y-96422333D01*
X113238000Y-96322333D01*
X113171333Y-96289000D01*
X113104666Y-96289000D01*
X113138000Y-96455666D02*
X113071333Y-96422333D01*
X113004666Y-96355666D01*
X112971333Y-96222333D01*
X112971333Y-95989000D01*
X113004666Y-95855666D01*
X113071333Y-95789000D01*
X113138000Y-95755666D01*
X113271333Y-95755666D01*
X113338000Y-95789000D01*
X113404666Y-95855666D01*
X113438000Y-95989000D01*
X113438000Y-96222333D01*
X113404666Y-96355666D01*
X113338000Y-96422333D01*
X113271333Y-96455666D01*
X113138000Y-96455666D01*
X113704666Y-95822333D02*
X113738000Y-95789000D01*
X113804666Y-95755666D01*
X113971333Y-95755666D01*
X114038000Y-95789000D01*
X114071333Y-95822333D01*
X114104666Y-95889000D01*
X114104666Y-95955666D01*
X114071333Y-96055666D01*
X113671333Y-96455666D01*
X114104666Y-96455666D01*
X106359333Y-101856333D02*
X106292666Y-101823000D01*
X106226000Y-101756333D01*
X106126000Y-101656333D01*
X106059333Y-101623000D01*
X105992666Y-101623000D01*
X106026000Y-101789666D02*
X105959333Y-101756333D01*
X105892666Y-101689666D01*
X105859333Y-101556333D01*
X105859333Y-101323000D01*
X105892666Y-101189666D01*
X105959333Y-101123000D01*
X106026000Y-101089666D01*
X106159333Y-101089666D01*
X106226000Y-101123000D01*
X106292666Y-101189666D01*
X106326000Y-101323000D01*
X106326000Y-101556333D01*
X106292666Y-101689666D01*
X106226000Y-101756333D01*
X106159333Y-101789666D01*
X106026000Y-101789666D01*
X106992666Y-101789666D02*
X106592666Y-101789666D01*
X106792666Y-101789666D02*
X106792666Y-101089666D01*
X106726000Y-101189666D01*
X106659333Y-101256333D01*
X106592666Y-101289666D01*
D10*
X133620000Y-94877000D02*
X133524761Y-94829380D01*
X133381904Y-94829380D01*
X133239047Y-94877000D01*
X133143809Y-94972238D01*
X133096190Y-95067476D01*
X133048571Y-95257952D01*
X133048571Y-95400809D01*
X133096190Y-95591285D01*
X133143809Y-95686523D01*
X133239047Y-95781761D01*
X133381904Y-95829380D01*
X133477142Y-95829380D01*
X133620000Y-95781761D01*
X133667619Y-95734142D01*
X133667619Y-95400809D01*
X133477142Y-95400809D01*
X134096190Y-95829380D02*
X134096190Y-94829380D01*
X134477142Y-94829380D01*
X134572380Y-94877000D01*
X134620000Y-94924619D01*
X134667619Y-95019857D01*
X134667619Y-95162714D01*
X134620000Y-95257952D01*
X134572380Y-95305571D01*
X134477142Y-95353190D01*
X134096190Y-95353190D01*
X135096190Y-95829380D02*
X135096190Y-94829380D01*
X135762857Y-94829380D02*
X135953333Y-94829380D01*
X136048571Y-94877000D01*
X136143809Y-94972238D01*
X136191428Y-95162714D01*
X136191428Y-95496047D01*
X136143809Y-95686523D01*
X136048571Y-95781761D01*
X135953333Y-95829380D01*
X135762857Y-95829380D01*
X135667619Y-95781761D01*
X135572380Y-95686523D01*
X135524761Y-95496047D01*
X135524761Y-95162714D01*
X135572380Y-94972238D01*
X135667619Y-94877000D01*
X135762857Y-94829380D01*
X101528571Y-96686619D02*
X101576190Y-96543761D01*
X101623809Y-96496142D01*
X101719047Y-96448523D01*
X101861904Y-96448523D01*
X101957142Y-96496142D01*
X102004761Y-96543761D01*
X102052380Y-96639000D01*
X102052380Y-97019952D01*
X101052380Y-97019952D01*
X101052380Y-96686619D01*
X101100000Y-96591380D01*
X101147619Y-96543761D01*
X101242857Y-96496142D01*
X101338095Y-96496142D01*
X101433333Y-96543761D01*
X101480952Y-96591380D01*
X101528571Y-96686619D01*
X101528571Y-97019952D01*
X101671428Y-96019952D02*
X101671428Y-95258047D01*
X102052380Y-95639000D02*
X101290476Y-95639000D01*
X133151809Y-107894380D02*
X133151809Y-106894380D01*
X133532761Y-106894380D01*
X133628000Y-106942000D01*
X133675619Y-106989619D01*
X133723238Y-107084857D01*
X133723238Y-107227714D01*
X133675619Y-107322952D01*
X133628000Y-107370571D01*
X133532761Y-107418190D01*
X133151809Y-107418190D01*
X134294666Y-107894380D02*
X134199428Y-107846761D01*
X134151809Y-107799142D01*
X134104190Y-107703904D01*
X134104190Y-107418190D01*
X134151809Y-107322952D01*
X134199428Y-107275333D01*
X134294666Y-107227714D01*
X134437523Y-107227714D01*
X134532761Y-107275333D01*
X134580380Y-107322952D01*
X134628000Y-107418190D01*
X134628000Y-107703904D01*
X134580380Y-107799142D01*
X134532761Y-107846761D01*
X134437523Y-107894380D01*
X134294666Y-107894380D01*
X134961333Y-107227714D02*
X135151809Y-107894380D01*
X135342285Y-107418190D01*
X135532761Y-107894380D01*
X135723238Y-107227714D01*
X136485142Y-107846761D02*
X136389904Y-107894380D01*
X136199428Y-107894380D01*
X136104190Y-107846761D01*
X136056571Y-107751523D01*
X136056571Y-107370571D01*
X136104190Y-107275333D01*
X136199428Y-107227714D01*
X136389904Y-107227714D01*
X136485142Y-107275333D01*
X136532761Y-107370571D01*
X136532761Y-107465809D01*
X136056571Y-107561047D01*
X136961333Y-107894380D02*
X136961333Y-107227714D01*
X136961333Y-107418190D02*
X137008952Y-107322952D01*
X137056571Y-107275333D01*
X137151809Y-107227714D01*
X137247047Y-107227714D01*
X109418714Y-107973761D02*
X109561571Y-108021380D01*
X109799666Y-108021380D01*
X109894904Y-107973761D01*
X109942523Y-107926142D01*
X109990142Y-107830904D01*
X109990142Y-107735666D01*
X109942523Y-107640428D01*
X109894904Y-107592809D01*
X109799666Y-107545190D01*
X109609190Y-107497571D01*
X109513952Y-107449952D01*
X109466333Y-107402333D01*
X109418714Y-107307095D01*
X109418714Y-107211857D01*
X109466333Y-107116619D01*
X109513952Y-107069000D01*
X109609190Y-107021380D01*
X109847285Y-107021380D01*
X109990142Y-107069000D01*
X110323476Y-107354714D02*
X110513952Y-108021380D01*
X110704428Y-107545190D01*
X110894904Y-108021380D01*
X111085380Y-107354714D01*
X111466333Y-108021380D02*
X111466333Y-107354714D01*
X111466333Y-107021380D02*
X111418714Y-107069000D01*
X111466333Y-107116619D01*
X111513952Y-107069000D01*
X111466333Y-107021380D01*
X111466333Y-107116619D01*
X111799666Y-107354714D02*
X112180619Y-107354714D01*
X111942523Y-107021380D02*
X111942523Y-107878523D01*
X111990142Y-107973761D01*
X112085380Y-108021380D01*
X112180619Y-108021380D01*
X112942523Y-107973761D02*
X112847285Y-108021380D01*
X112656809Y-108021380D01*
X112561571Y-107973761D01*
X112513952Y-107926142D01*
X112466333Y-107830904D01*
X112466333Y-107545190D01*
X112513952Y-107449952D01*
X112561571Y-107402333D01*
X112656809Y-107354714D01*
X112847285Y-107354714D01*
X112942523Y-107402333D01*
X113371095Y-108021380D02*
X113371095Y-107021380D01*
X113799666Y-108021380D02*
X113799666Y-107497571D01*
X113752047Y-107402333D01*
X113656809Y-107354714D01*
X113513952Y-107354714D01*
X113418714Y-107402333D01*
X113371095Y-107449952D01*
X83159695Y-94623000D02*
X83064457Y-94575380D01*
X82921600Y-94575380D01*
X82778742Y-94623000D01*
X82683504Y-94718238D01*
X82635885Y-94813476D01*
X82588266Y-95003952D01*
X82588266Y-95146809D01*
X82635885Y-95337285D01*
X82683504Y-95432523D01*
X82778742Y-95527761D01*
X82921600Y-95575380D01*
X83016838Y-95575380D01*
X83159695Y-95527761D01*
X83207314Y-95480142D01*
X83207314Y-95146809D01*
X83016838Y-95146809D01*
X83635885Y-95575380D02*
X83635885Y-94575380D01*
X84207314Y-95575380D01*
X84207314Y-94575380D01*
X84683504Y-95575380D02*
X84683504Y-94575380D01*
X84921600Y-94575380D01*
X85064457Y-94623000D01*
X85159695Y-94718238D01*
X85207314Y-94813476D01*
X85254933Y-95003952D01*
X85254933Y-95146809D01*
X85207314Y-95337285D01*
X85159695Y-95432523D01*
X85064457Y-95527761D01*
X84921600Y-95575380D01*
X84683504Y-95575380D01*
D11*
X91685333Y-95312666D02*
X91685333Y-94612666D01*
X91852000Y-94612666D01*
X91952000Y-94646000D01*
X92018666Y-94712666D01*
X92052000Y-94779333D01*
X92085333Y-94912666D01*
X92085333Y-95012666D01*
X92052000Y-95146000D01*
X92018666Y-95212666D01*
X91952000Y-95279333D01*
X91852000Y-95312666D01*
X91685333Y-95312666D01*
X92685333Y-94846000D02*
X92685333Y-95312666D01*
X92518666Y-94579333D02*
X92352000Y-95079333D01*
X92785333Y-95079333D01*
X89119933Y-95312666D02*
X89119933Y-94612666D01*
X89286600Y-94612666D01*
X89386600Y-94646000D01*
X89453266Y-94712666D01*
X89486600Y-94779333D01*
X89519933Y-94912666D01*
X89519933Y-95012666D01*
X89486600Y-95146000D01*
X89453266Y-95212666D01*
X89386600Y-95279333D01*
X89286600Y-95312666D01*
X89119933Y-95312666D01*
X89753266Y-94612666D02*
X90186600Y-94612666D01*
X89953266Y-94879333D01*
X90053266Y-94879333D01*
X90119933Y-94912666D01*
X90153266Y-94946000D01*
X90186600Y-95012666D01*
X90186600Y-95179333D01*
X90153266Y-95246000D01*
X90119933Y-95279333D01*
X90053266Y-95312666D01*
X89853266Y-95312666D01*
X89786600Y-95279333D01*
X89753266Y-95246000D01*
X140218333Y-98421000D02*
X140185000Y-98454333D01*
X140085000Y-98487666D01*
X140018333Y-98487666D01*
X139918333Y-98454333D01*
X139851666Y-98387666D01*
X139818333Y-98321000D01*
X139785000Y-98187666D01*
X139785000Y-98087666D01*
X139818333Y-97954333D01*
X139851666Y-97887666D01*
X139918333Y-97821000D01*
X140018333Y-97787666D01*
X140085000Y-97787666D01*
X140185000Y-97821000D01*
X140218333Y-97854333D01*
X140451666Y-97787666D02*
X140918333Y-97787666D01*
X140618333Y-98487666D01*
X156347333Y-95868000D02*
X156314000Y-95901333D01*
X156214000Y-95934666D01*
X156147333Y-95934666D01*
X156047333Y-95901333D01*
X155980666Y-95834666D01*
X155947333Y-95768000D01*
X155914000Y-95634666D01*
X155914000Y-95534666D01*
X155947333Y-95401333D01*
X155980666Y-95334666D01*
X156047333Y-95268000D01*
X156147333Y-95234666D01*
X156214000Y-95234666D01*
X156314000Y-95268000D01*
X156347333Y-95301333D01*
X156947333Y-95234666D02*
X156814000Y-95234666D01*
X156747333Y-95268000D01*
X156714000Y-95301333D01*
X156647333Y-95401333D01*
X156614000Y-95534666D01*
X156614000Y-95801333D01*
X156647333Y-95868000D01*
X156680666Y-95901333D01*
X156747333Y-95934666D01*
X156880666Y-95934666D01*
X156947333Y-95901333D01*
X156980666Y-95868000D01*
X157014000Y-95801333D01*
X157014000Y-95634666D01*
X156980666Y-95568000D01*
X156947333Y-95534666D01*
X156880666Y-95501333D01*
X156747333Y-95501333D01*
X156680666Y-95534666D01*
X156647333Y-95568000D01*
X156614000Y-95634666D01*
X106309333Y-99818000D02*
X106276000Y-99851333D01*
X106176000Y-99884666D01*
X106109333Y-99884666D01*
X106009333Y-99851333D01*
X105942666Y-99784666D01*
X105909333Y-99718000D01*
X105876000Y-99584666D01*
X105876000Y-99484666D01*
X105909333Y-99351333D01*
X105942666Y-99284666D01*
X106009333Y-99218000D01*
X106109333Y-99184666D01*
X106176000Y-99184666D01*
X106276000Y-99218000D01*
X106309333Y-99251333D01*
X106942666Y-99184666D02*
X106609333Y-99184666D01*
X106576000Y-99518000D01*
X106609333Y-99484666D01*
X106676000Y-99451333D01*
X106842666Y-99451333D01*
X106909333Y-99484666D01*
X106942666Y-99518000D01*
X106976000Y-99584666D01*
X106976000Y-99751333D01*
X106942666Y-99818000D01*
X106909333Y-99851333D01*
X106842666Y-99884666D01*
X106676000Y-99884666D01*
X106609333Y-99851333D01*
X106576000Y-99818000D01*
X113548333Y-105279000D02*
X113515000Y-105312333D01*
X113415000Y-105345666D01*
X113348333Y-105345666D01*
X113248333Y-105312333D01*
X113181666Y-105245666D01*
X113148333Y-105179000D01*
X113115000Y-105045666D01*
X113115000Y-104945666D01*
X113148333Y-104812333D01*
X113181666Y-104745666D01*
X113248333Y-104679000D01*
X113348333Y-104645666D01*
X113415000Y-104645666D01*
X113515000Y-104679000D01*
X113548333Y-104712333D01*
X114148333Y-104879000D02*
X114148333Y-105345666D01*
X113981666Y-104612333D02*
X113815000Y-105112333D01*
X114248333Y-105112333D01*
X149108333Y-105025000D02*
X149075000Y-105058333D01*
X148975000Y-105091666D01*
X148908333Y-105091666D01*
X148808333Y-105058333D01*
X148741666Y-104991666D01*
X148708333Y-104925000D01*
X148675000Y-104791666D01*
X148675000Y-104691666D01*
X148708333Y-104558333D01*
X148741666Y-104491666D01*
X148808333Y-104425000D01*
X148908333Y-104391666D01*
X148975000Y-104391666D01*
X149075000Y-104425000D01*
X149108333Y-104458333D01*
X149341666Y-104391666D02*
X149775000Y-104391666D01*
X149541666Y-104658333D01*
X149641666Y-104658333D01*
X149708333Y-104691666D01*
X149741666Y-104725000D01*
X149775000Y-104791666D01*
X149775000Y-104958333D01*
X149741666Y-105025000D01*
X149708333Y-105058333D01*
X149641666Y-105091666D01*
X149441666Y-105091666D01*
X149375000Y-105058333D01*
X149341666Y-105025000D01*
X153299333Y-100961000D02*
X153266000Y-100994333D01*
X153166000Y-101027666D01*
X153099333Y-101027666D01*
X152999333Y-100994333D01*
X152932666Y-100927666D01*
X152899333Y-100861000D01*
X152866000Y-100727666D01*
X152866000Y-100627666D01*
X152899333Y-100494333D01*
X152932666Y-100427666D01*
X152999333Y-100361000D01*
X153099333Y-100327666D01*
X153166000Y-100327666D01*
X153266000Y-100361000D01*
X153299333Y-100394333D01*
X153566000Y-100394333D02*
X153599333Y-100361000D01*
X153666000Y-100327666D01*
X153832666Y-100327666D01*
X153899333Y-100361000D01*
X153932666Y-100394333D01*
X153966000Y-100461000D01*
X153966000Y-100527666D01*
X153932666Y-100627666D01*
X153532666Y-101027666D01*
X153966000Y-101027666D01*
X120533333Y-105533000D02*
X120500000Y-105566333D01*
X120400000Y-105599666D01*
X120333333Y-105599666D01*
X120233333Y-105566333D01*
X120166666Y-105499666D01*
X120133333Y-105433000D01*
X120100000Y-105299666D01*
X120100000Y-105199666D01*
X120133333Y-105066333D01*
X120166666Y-104999666D01*
X120233333Y-104933000D01*
X120333333Y-104899666D01*
X120400000Y-104899666D01*
X120500000Y-104933000D01*
X120533333Y-104966333D01*
X121200000Y-105599666D02*
X120800000Y-105599666D01*
X121000000Y-105599666D02*
X121000000Y-104899666D01*
X120933333Y-104999666D01*
X120866666Y-105066333D01*
X120800000Y-105099666D01*
%LPC*%
D14*
X103664000Y-106807000D03*
X107664000Y-106807000D03*
X87408000Y-106807000D03*
X91408000Y-106807000D03*
D15*
X127254000Y-101600000D03*
G36*
G01*
X87143000Y-99524000D02*
X86593000Y-99524000D01*
G75*
G02*
X86393000Y-99324000I0J200000D01*
G01*
X86393000Y-98924000D01*
G75*
G02*
X86593000Y-98724000I200000J0D01*
G01*
X87143000Y-98724000D01*
G75*
G02*
X87343000Y-98924000I0J-200000D01*
G01*
X87343000Y-99324000D01*
G75*
G02*
X87143000Y-99524000I-200000J0D01*
G01*
G37*
G36*
G01*
X87143000Y-101174000D02*
X86593000Y-101174000D01*
G75*
G02*
X86393000Y-100974000I0J200000D01*
G01*
X86393000Y-100574000D01*
G75*
G02*
X86593000Y-100374000I200000J0D01*
G01*
X87143000Y-100374000D01*
G75*
G02*
X87343000Y-100574000I0J-200000D01*
G01*
X87343000Y-100974000D01*
G75*
G02*
X87143000Y-101174000I-200000J0D01*
G01*
G37*
D16*
X144272000Y-105410000D03*
X144272000Y-102870000D03*
X144272000Y-100330000D03*
X144272000Y-97790000D03*
D17*
X146812000Y-97790000D03*
D16*
X146812000Y-100330000D03*
X146812000Y-102870000D03*
X146812000Y-105410000D03*
D18*
X153908000Y-97917000D03*
X151908000Y-98867000D03*
X151908000Y-96967000D03*
D19*
X154625000Y-104183000D03*
X156525000Y-104183000D03*
X156525000Y-106383000D03*
X155575000Y-106383000D03*
X154625000Y-106383000D03*
X111125000Y-102573000D03*
X112075000Y-102573000D03*
X110175000Y-102573000D03*
X110175000Y-100373000D03*
X111125000Y-100373000D03*
X112075000Y-100373000D03*
D20*
X96774000Y-99695000D03*
G36*
G01*
X95019000Y-97845000D02*
X94719000Y-97845000D01*
G75*
G02*
X94569000Y-97695000I0J150000D01*
G01*
X94569000Y-96395000D01*
G75*
G02*
X94719000Y-96245000I150000J0D01*
G01*
X95019000Y-96245000D01*
G75*
G02*
X95169000Y-96395000I0J-150000D01*
G01*
X95169000Y-97695000D01*
G75*
G02*
X95019000Y-97845000I-150000J0D01*
G01*
G37*
G36*
G01*
X96289000Y-97845000D02*
X95989000Y-97845000D01*
G75*
G02*
X95839000Y-97695000I0J150000D01*
G01*
X95839000Y-96395000D01*
G75*
G02*
X95989000Y-96245000I150000J0D01*
G01*
X96289000Y-96245000D01*
G75*
G02*
X96439000Y-96395000I0J-150000D01*
G01*
X96439000Y-97695000D01*
G75*
G02*
X96289000Y-97845000I-150000J0D01*
G01*
G37*
G36*
G01*
X97559000Y-97845000D02*
X97259000Y-97845000D01*
G75*
G02*
X97109000Y-97695000I0J150000D01*
G01*
X97109000Y-96395000D01*
G75*
G02*
X97259000Y-96245000I150000J0D01*
G01*
X97559000Y-96245000D01*
G75*
G02*
X97709000Y-96395000I0J-150000D01*
G01*
X97709000Y-97695000D01*
G75*
G02*
X97559000Y-97845000I-150000J0D01*
G01*
G37*
G36*
G01*
X98829000Y-97845000D02*
X98529000Y-97845000D01*
G75*
G02*
X98379000Y-97695000I0J150000D01*
G01*
X98379000Y-96395000D01*
G75*
G02*
X98529000Y-96245000I150000J0D01*
G01*
X98829000Y-96245000D01*
G75*
G02*
X98979000Y-96395000I0J-150000D01*
G01*
X98979000Y-97695000D01*
G75*
G02*
X98829000Y-97845000I-150000J0D01*
G01*
G37*
G36*
G01*
X98829000Y-103145000D02*
X98529000Y-103145000D01*
G75*
G02*
X98379000Y-102995000I0J150000D01*
G01*
X98379000Y-101695000D01*
G75*
G02*
X98529000Y-101545000I150000J0D01*
G01*
X98829000Y-101545000D01*
G75*
G02*
X98979000Y-101695000I0J-150000D01*
G01*
X98979000Y-102995000D01*
G75*
G02*
X98829000Y-103145000I-150000J0D01*
G01*
G37*
G36*
G01*
X97559000Y-103145000D02*
X97259000Y-103145000D01*
G75*
G02*
X97109000Y-102995000I0J150000D01*
G01*
X97109000Y-101695000D01*
G75*
G02*
X97259000Y-101545000I150000J0D01*
G01*
X97559000Y-101545000D01*
G75*
G02*
X97709000Y-101695000I0J-150000D01*
G01*
X97709000Y-102995000D01*
G75*
G02*
X97559000Y-103145000I-150000J0D01*
G01*
G37*
G36*
G01*
X96289000Y-103145000D02*
X95989000Y-103145000D01*
G75*
G02*
X95839000Y-102995000I0J150000D01*
G01*
X95839000Y-101695000D01*
G75*
G02*
X95989000Y-101545000I150000J0D01*
G01*
X96289000Y-101545000D01*
G75*
G02*
X96439000Y-101695000I0J-150000D01*
G01*
X96439000Y-102995000D01*
G75*
G02*
X96289000Y-103145000I-150000J0D01*
G01*
G37*
G36*
G01*
X95019000Y-103145000D02*
X94719000Y-103145000D01*
G75*
G02*
X94569000Y-102995000I0J150000D01*
G01*
X94569000Y-101695000D01*
G75*
G02*
X94719000Y-101545000I150000J0D01*
G01*
X95019000Y-101545000D01*
G75*
G02*
X95169000Y-101695000I0J-150000D01*
G01*
X95169000Y-102995000D01*
G75*
G02*
X95019000Y-103145000I-150000J0D01*
G01*
G37*
G36*
G01*
X141753000Y-104223000D02*
X141203000Y-104223000D01*
G75*
G02*
X141003000Y-104023000I0J200000D01*
G01*
X141003000Y-103623000D01*
G75*
G02*
X141203000Y-103423000I200000J0D01*
G01*
X141753000Y-103423000D01*
G75*
G02*
X141953000Y-103623000I0J-200000D01*
G01*
X141953000Y-104023000D01*
G75*
G02*
X141753000Y-104223000I-200000J0D01*
G01*
G37*
G36*
G01*
X141753000Y-105873000D02*
X141203000Y-105873000D01*
G75*
G02*
X141003000Y-105673000I0J200000D01*
G01*
X141003000Y-105273000D01*
G75*
G02*
X141203000Y-105073000I200000J0D01*
G01*
X141753000Y-105073000D01*
G75*
G02*
X141953000Y-105273000I0J-200000D01*
G01*
X141953000Y-105673000D01*
G75*
G02*
X141753000Y-105873000I-200000J0D01*
G01*
G37*
G36*
G01*
X107675000Y-103549000D02*
X108225000Y-103549000D01*
G75*
G02*
X108425000Y-103749000I0J-200000D01*
G01*
X108425000Y-104149000D01*
G75*
G02*
X108225000Y-104349000I-200000J0D01*
G01*
X107675000Y-104349000D01*
G75*
G02*
X107475000Y-104149000I0J200000D01*
G01*
X107475000Y-103749000D01*
G75*
G02*
X107675000Y-103549000I200000J0D01*
G01*
G37*
G36*
G01*
X107675000Y-101899000D02*
X108225000Y-101899000D01*
G75*
G02*
X108425000Y-102099000I0J-200000D01*
G01*
X108425000Y-102499000D01*
G75*
G02*
X108225000Y-102699000I-200000J0D01*
G01*
X107675000Y-102699000D01*
G75*
G02*
X107475000Y-102499000I0J200000D01*
G01*
X107475000Y-102099000D01*
G75*
G02*
X107675000Y-101899000I200000J0D01*
G01*
G37*
G36*
G01*
X87143000Y-95841000D02*
X86593000Y-95841000D01*
G75*
G02*
X86393000Y-95641000I0J200000D01*
G01*
X86393000Y-95241000D01*
G75*
G02*
X86593000Y-95041000I200000J0D01*
G01*
X87143000Y-95041000D01*
G75*
G02*
X87343000Y-95241000I0J-200000D01*
G01*
X87343000Y-95641000D01*
G75*
G02*
X87143000Y-95841000I-200000J0D01*
G01*
G37*
G36*
G01*
X87143000Y-97491000D02*
X86593000Y-97491000D01*
G75*
G02*
X86393000Y-97291000I0J200000D01*
G01*
X86393000Y-96891000D01*
G75*
G02*
X86593000Y-96691000I200000J0D01*
G01*
X87143000Y-96691000D01*
G75*
G02*
X87343000Y-96891000I0J-200000D01*
G01*
X87343000Y-97291000D01*
G75*
G02*
X87143000Y-97491000I-200000J0D01*
G01*
G37*
G36*
G01*
X87143000Y-103207000D02*
X86593000Y-103207000D01*
G75*
G02*
X86393000Y-103007000I0J200000D01*
G01*
X86393000Y-102607000D01*
G75*
G02*
X86593000Y-102407000I200000J0D01*
G01*
X87143000Y-102407000D01*
G75*
G02*
X87343000Y-102607000I0J-200000D01*
G01*
X87343000Y-103007000D01*
G75*
G02*
X87143000Y-103207000I-200000J0D01*
G01*
G37*
G36*
G01*
X87143000Y-104857000D02*
X86593000Y-104857000D01*
G75*
G02*
X86393000Y-104657000I0J200000D01*
G01*
X86393000Y-104257000D01*
G75*
G02*
X86593000Y-104057000I200000J0D01*
G01*
X87143000Y-104057000D01*
G75*
G02*
X87343000Y-104257000I0J-200000D01*
G01*
X87343000Y-104657000D01*
G75*
G02*
X87143000Y-104857000I-200000J0D01*
G01*
G37*
G36*
G01*
X92477000Y-100667000D02*
X91927000Y-100667000D01*
G75*
G02*
X91727000Y-100467000I0J200000D01*
G01*
X91727000Y-100067000D01*
G75*
G02*
X91927000Y-99867000I200000J0D01*
G01*
X92477000Y-99867000D01*
G75*
G02*
X92677000Y-100067000I0J-200000D01*
G01*
X92677000Y-100467000D01*
G75*
G02*
X92477000Y-100667000I-200000J0D01*
G01*
G37*
G36*
G01*
X92477000Y-102317000D02*
X91927000Y-102317000D01*
G75*
G02*
X91727000Y-102117000I0J200000D01*
G01*
X91727000Y-101717000D01*
G75*
G02*
X91927000Y-101517000I200000J0D01*
G01*
X92477000Y-101517000D01*
G75*
G02*
X92677000Y-101717000I0J-200000D01*
G01*
X92677000Y-102117000D01*
G75*
G02*
X92477000Y-102317000I-200000J0D01*
G01*
G37*
G36*
G01*
X89937000Y-100667000D02*
X89387000Y-100667000D01*
G75*
G02*
X89187000Y-100467000I0J200000D01*
G01*
X89187000Y-100067000D01*
G75*
G02*
X89387000Y-99867000I200000J0D01*
G01*
X89937000Y-99867000D01*
G75*
G02*
X90137000Y-100067000I0J-200000D01*
G01*
X90137000Y-100467000D01*
G75*
G02*
X89937000Y-100667000I-200000J0D01*
G01*
G37*
G36*
G01*
X89937000Y-102317000D02*
X89387000Y-102317000D01*
G75*
G02*
X89187000Y-102117000I0J200000D01*
G01*
X89187000Y-101717000D01*
G75*
G02*
X89387000Y-101517000I200000J0D01*
G01*
X89937000Y-101517000D01*
G75*
G02*
X90137000Y-101717000I0J-200000D01*
G01*
X90137000Y-102117000D01*
G75*
G02*
X89937000Y-102317000I-200000J0D01*
G01*
G37*
G36*
G01*
X114533000Y-100247000D02*
X115083000Y-100247000D01*
G75*
G02*
X115283000Y-100447000I0J-200000D01*
G01*
X115283000Y-100847000D01*
G75*
G02*
X115083000Y-101047000I-200000J0D01*
G01*
X114533000Y-101047000D01*
G75*
G02*
X114333000Y-100847000I0J200000D01*
G01*
X114333000Y-100447000D01*
G75*
G02*
X114533000Y-100247000I200000J0D01*
G01*
G37*
G36*
G01*
X114533000Y-98597000D02*
X115083000Y-98597000D01*
G75*
G02*
X115283000Y-98797000I0J-200000D01*
G01*
X115283000Y-99197000D01*
G75*
G02*
X115083000Y-99397000I-200000J0D01*
G01*
X114533000Y-99397000D01*
G75*
G02*
X114333000Y-99197000I0J200000D01*
G01*
X114333000Y-98797000D01*
G75*
G02*
X114533000Y-98597000I200000J0D01*
G01*
G37*
G36*
G01*
X101240000Y-101175000D02*
X100690000Y-101175000D01*
G75*
G02*
X100490000Y-100975000I0J200000D01*
G01*
X100490000Y-100575000D01*
G75*
G02*
X100690000Y-100375000I200000J0D01*
G01*
X101240000Y-100375000D01*
G75*
G02*
X101440000Y-100575000I0J-200000D01*
G01*
X101440000Y-100975000D01*
G75*
G02*
X101240000Y-101175000I-200000J0D01*
G01*
G37*
G36*
G01*
X101240000Y-102825000D02*
X100690000Y-102825000D01*
G75*
G02*
X100490000Y-102625000I0J200000D01*
G01*
X100490000Y-102225000D01*
G75*
G02*
X100690000Y-102025000I200000J0D01*
G01*
X101240000Y-102025000D01*
G75*
G02*
X101440000Y-102225000I0J-200000D01*
G01*
X101440000Y-102625000D01*
G75*
G02*
X101240000Y-102825000I-200000J0D01*
G01*
G37*
G36*
G01*
X115790000Y-95264000D02*
X115790000Y-95064000D01*
G75*
G02*
X115890000Y-94964000I100000J0D01*
G01*
X117165000Y-94964000D01*
G75*
G02*
X117265000Y-95064000I0J-100000D01*
G01*
X117265000Y-95264000D01*
G75*
G02*
X117165000Y-95364000I-100000J0D01*
G01*
X115890000Y-95364000D01*
G75*
G02*
X115790000Y-95264000I0J100000D01*
G01*
G37*
G36*
G01*
X115790000Y-95914000D02*
X115790000Y-95714000D01*
G75*
G02*
X115890000Y-95614000I100000J0D01*
G01*
X117165000Y-95614000D01*
G75*
G02*
X117265000Y-95714000I0J-100000D01*
G01*
X117265000Y-95914000D01*
G75*
G02*
X117165000Y-96014000I-100000J0D01*
G01*
X115890000Y-96014000D01*
G75*
G02*
X115790000Y-95914000I0J100000D01*
G01*
G37*
G36*
G01*
X115790000Y-96564000D02*
X115790000Y-96364000D01*
G75*
G02*
X115890000Y-96264000I100000J0D01*
G01*
X117165000Y-96264000D01*
G75*
G02*
X117265000Y-96364000I0J-100000D01*
G01*
X117265000Y-96564000D01*
G75*
G02*
X117165000Y-96664000I-100000J0D01*
G01*
X115890000Y-96664000D01*
G75*
G02*
X115790000Y-96564000I0J100000D01*
G01*
G37*
G36*
G01*
X115790000Y-97214000D02*
X115790000Y-97014000D01*
G75*
G02*
X115890000Y-96914000I100000J0D01*
G01*
X117165000Y-96914000D01*
G75*
G02*
X117265000Y-97014000I0J-100000D01*
G01*
X117265000Y-97214000D01*
G75*
G02*
X117165000Y-97314000I-100000J0D01*
G01*
X115890000Y-97314000D01*
G75*
G02*
X115790000Y-97214000I0J100000D01*
G01*
G37*
G36*
G01*
X110065000Y-97214000D02*
X110065000Y-97014000D01*
G75*
G02*
X110165000Y-96914000I100000J0D01*
G01*
X111440000Y-96914000D01*
G75*
G02*
X111540000Y-97014000I0J-100000D01*
G01*
X111540000Y-97214000D01*
G75*
G02*
X111440000Y-97314000I-100000J0D01*
G01*
X110165000Y-97314000D01*
G75*
G02*
X110065000Y-97214000I0J100000D01*
G01*
G37*
G36*
G01*
X110065000Y-96564000D02*
X110065000Y-96364000D01*
G75*
G02*
X110165000Y-96264000I100000J0D01*
G01*
X111440000Y-96264000D01*
G75*
G02*
X111540000Y-96364000I0J-100000D01*
G01*
X111540000Y-96564000D01*
G75*
G02*
X111440000Y-96664000I-100000J0D01*
G01*
X110165000Y-96664000D01*
G75*
G02*
X110065000Y-96564000I0J100000D01*
G01*
G37*
G36*
G01*
X110065000Y-95914000D02*
X110065000Y-95714000D01*
G75*
G02*
X110165000Y-95614000I100000J0D01*
G01*
X111440000Y-95614000D01*
G75*
G02*
X111540000Y-95714000I0J-100000D01*
G01*
X111540000Y-95914000D01*
G75*
G02*
X111440000Y-96014000I-100000J0D01*
G01*
X110165000Y-96014000D01*
G75*
G02*
X110065000Y-95914000I0J100000D01*
G01*
G37*
G36*
G01*
X110065000Y-95264000D02*
X110065000Y-95064000D01*
G75*
G02*
X110165000Y-94964000I100000J0D01*
G01*
X111440000Y-94964000D01*
G75*
G02*
X111540000Y-95064000I0J-100000D01*
G01*
X111540000Y-95264000D01*
G75*
G02*
X111440000Y-95364000I-100000J0D01*
G01*
X110165000Y-95364000D01*
G75*
G02*
X110065000Y-95264000I0J100000D01*
G01*
G37*
D21*
X103886000Y-100473000D03*
X104836000Y-102473000D03*
X102936000Y-102473000D03*
D22*
X131064000Y-96139000D03*
D23*
X128524000Y-96139000D03*
X125984000Y-96139000D03*
X123444000Y-96139000D03*
D22*
X106401000Y-96139000D03*
D23*
X103861000Y-96139000D03*
D22*
X131039000Y-106807000D03*
D23*
X128499000Y-106807000D03*
X125959000Y-106807000D03*
X123419000Y-106807000D03*
D22*
X115443000Y-106807000D03*
D23*
X117983000Y-106807000D03*
X84074000Y-99822000D03*
D22*
X84074000Y-97282000D03*
G36*
G01*
X91945750Y-97632000D02*
X92458250Y-97632000D01*
G75*
G02*
X92677000Y-97850750I0J-218750D01*
G01*
X92677000Y-98288250D01*
G75*
G02*
X92458250Y-98507000I-218750J0D01*
G01*
X91945750Y-98507000D01*
G75*
G02*
X91727000Y-98288250I0J218750D01*
G01*
X91727000Y-97850750D01*
G75*
G02*
X91945750Y-97632000I218750J0D01*
G01*
G37*
G36*
G01*
X91945750Y-96057000D02*
X92458250Y-96057000D01*
G75*
G02*
X92677000Y-96275750I0J-218750D01*
G01*
X92677000Y-96713250D01*
G75*
G02*
X92458250Y-96932000I-218750J0D01*
G01*
X91945750Y-96932000D01*
G75*
G02*
X91727000Y-96713250I0J218750D01*
G01*
X91727000Y-96275750D01*
G75*
G02*
X91945750Y-96057000I218750J0D01*
G01*
G37*
G36*
G01*
X89405750Y-97632000D02*
X89918250Y-97632000D01*
G75*
G02*
X90137000Y-97850750I0J-218750D01*
G01*
X90137000Y-98288250D01*
G75*
G02*
X89918250Y-98507000I-218750J0D01*
G01*
X89405750Y-98507000D01*
G75*
G02*
X89187000Y-98288250I0J218750D01*
G01*
X89187000Y-97850750D01*
G75*
G02*
X89405750Y-97632000I218750J0D01*
G01*
G37*
G36*
G01*
X89405750Y-96057000D02*
X89918250Y-96057000D01*
G75*
G02*
X90137000Y-96275750I0J-218750D01*
G01*
X90137000Y-96713250D01*
G75*
G02*
X89918250Y-96932000I-218750J0D01*
G01*
X89405750Y-96932000D01*
G75*
G02*
X89187000Y-96713250I0J218750D01*
G01*
X89187000Y-96275750D01*
G75*
G02*
X89405750Y-96057000I218750J0D01*
G01*
G37*
D24*
X136398000Y-99751000D03*
D25*
X136398000Y-103251000D03*
G36*
G01*
X156714000Y-97592000D02*
X156214000Y-97592000D01*
G75*
G02*
X155989000Y-97367000I0J225000D01*
G01*
X155989000Y-96917000D01*
G75*
G02*
X156214000Y-96692000I225000J0D01*
G01*
X156714000Y-96692000D01*
G75*
G02*
X156939000Y-96917000I0J-225000D01*
G01*
X156939000Y-97367000D01*
G75*
G02*
X156714000Y-97592000I-225000J0D01*
G01*
G37*
G36*
G01*
X156714000Y-99142000D02*
X156214000Y-99142000D01*
G75*
G02*
X155989000Y-98917000I0J225000D01*
G01*
X155989000Y-98467000D01*
G75*
G02*
X156214000Y-98242000I225000J0D01*
G01*
X156714000Y-98242000D01*
G75*
G02*
X156939000Y-98467000I0J-225000D01*
G01*
X156939000Y-98917000D01*
G75*
G02*
X156714000Y-99142000I-225000J0D01*
G01*
G37*
G36*
G01*
X108200000Y-99116000D02*
X107700000Y-99116000D01*
G75*
G02*
X107475000Y-98891000I0J225000D01*
G01*
X107475000Y-98441000D01*
G75*
G02*
X107700000Y-98216000I225000J0D01*
G01*
X108200000Y-98216000D01*
G75*
G02*
X108425000Y-98441000I0J-225000D01*
G01*
X108425000Y-98891000D01*
G75*
G02*
X108200000Y-99116000I-225000J0D01*
G01*
G37*
G36*
G01*
X108200000Y-100666000D02*
X107700000Y-100666000D01*
G75*
G02*
X107475000Y-100441000I0J225000D01*
G01*
X107475000Y-99991000D01*
G75*
G02*
X107700000Y-99766000I225000J0D01*
G01*
X108200000Y-99766000D01*
G75*
G02*
X108425000Y-99991000I0J-225000D01*
G01*
X108425000Y-100441000D01*
G75*
G02*
X108200000Y-100666000I-225000J0D01*
G01*
G37*
G36*
G01*
X111704000Y-105279000D02*
X111704000Y-104779000D01*
G75*
G02*
X111929000Y-104554000I225000J0D01*
G01*
X112379000Y-104554000D01*
G75*
G02*
X112604000Y-104779000I0J-225000D01*
G01*
X112604000Y-105279000D01*
G75*
G02*
X112379000Y-105504000I-225000J0D01*
G01*
X111929000Y-105504000D01*
G75*
G02*
X111704000Y-105279000I0J225000D01*
G01*
G37*
G36*
G01*
X110154000Y-105279000D02*
X110154000Y-104779000D01*
G75*
G02*
X110379000Y-104554000I225000J0D01*
G01*
X110829000Y-104554000D01*
G75*
G02*
X111054000Y-104779000I0J-225000D01*
G01*
X111054000Y-105279000D01*
G75*
G02*
X110829000Y-105504000I-225000J0D01*
G01*
X110379000Y-105504000D01*
G75*
G02*
X110154000Y-105279000I0J225000D01*
G01*
G37*
G36*
G01*
X151428001Y-104125000D02*
X150577999Y-104125000D01*
G75*
G02*
X150328000Y-103875001I0J249999D01*
G01*
X150328000Y-102974999D01*
G75*
G02*
X150577999Y-102725000I249999J0D01*
G01*
X151428001Y-102725000D01*
G75*
G02*
X151678000Y-102974999I0J-249999D01*
G01*
X151678000Y-103875001D01*
G75*
G02*
X151428001Y-104125000I-249999J0D01*
G01*
G37*
G36*
G01*
X151428001Y-106825000D02*
X150577999Y-106825000D01*
G75*
G02*
X150328000Y-106575001I0J249999D01*
G01*
X150328000Y-105674999D01*
G75*
G02*
X150577999Y-105425000I249999J0D01*
G01*
X151428001Y-105425000D01*
G75*
G02*
X151678000Y-105674999I0J-249999D01*
G01*
X151678000Y-106575001D01*
G75*
G02*
X151428001Y-106825000I-249999J0D01*
G01*
G37*
G36*
G01*
X155377000Y-100461000D02*
X155377000Y-100961000D01*
G75*
G02*
X155152000Y-101186000I-225000J0D01*
G01*
X154702000Y-101186000D01*
G75*
G02*
X154477000Y-100961000I0J225000D01*
G01*
X154477000Y-100461000D01*
G75*
G02*
X154702000Y-100236000I225000J0D01*
G01*
X155152000Y-100236000D01*
G75*
G02*
X155377000Y-100461000I0J-225000D01*
G01*
G37*
G36*
G01*
X156927000Y-100461000D02*
X156927000Y-100961000D01*
G75*
G02*
X156702000Y-101186000I-225000J0D01*
G01*
X156252000Y-101186000D01*
G75*
G02*
X156027000Y-100961000I0J225000D01*
G01*
X156027000Y-100461000D01*
G75*
G02*
X156252000Y-100236000I225000J0D01*
G01*
X156702000Y-100236000D01*
G75*
G02*
X156927000Y-100461000I0J-225000D01*
G01*
G37*
D24*
X119253000Y-100116000D03*
D25*
X119253000Y-102616000D03*
M02*
