M48
; DRILL file {KiCad 5.1.8-5.1.8} date Sat Oct  1 18:22:28 2022
; FORMAT={-:-/ absolute / metric / decimal}
; #@! TF.CreationDate,2022-10-01T18:22:28+01:00
; #@! TF.GenerationSoftware,Kicad,Pcbnew,5.1.8-5.1.8
; #@! TF.FileFunction,Plated,1,2,PTH
FMAT,2
METRIC
T1C0.400
T2C0.600
T3C0.800
T4C1.000
%
G90
G05
T1
X88.138Y-98.044
X88.138Y-101.727
X91.186Y-104.521
X94.234Y-105.029
X96.139Y-104.013
X100.965Y-98.679
X106.172Y-98.679
X113.919Y-102.489
X151.892Y-101.6
X155.575Y-102.616
T2
X95.123Y-106.807
X100.457Y-106.807
T3
X136.398Y-99.751
X136.398Y-103.251
X144.272Y-97.79
X144.272Y-100.33
X144.272Y-102.87
X144.272Y-105.41
X146.812Y-97.79
X146.812Y-100.33
X146.812Y-102.87
X146.812Y-105.41
X119.253Y-100.116
X119.253Y-102.616
T4
X123.444Y-96.139
X125.984Y-96.139
X128.524Y-96.139
X131.064Y-96.139
X84.074Y-97.282
X84.074Y-99.822
X103.861Y-96.139
X106.401Y-96.139
X123.419Y-106.807
X125.959Y-106.807
X128.499Y-106.807
X131.039Y-106.807
X115.443Y-106.807
X117.983Y-106.807
T0
M30
