%TF.GenerationSoftware,KiCad,Pcbnew,6.0.11*%
%TF.CreationDate,2024-08-22T19:43:04+01:00*%
%TF.ProjectId,ESPower,4553506f-7765-4722-9e6b-696361645f70,rev?*%
%TF.SameCoordinates,PX4f54d68PY59a0560*%
%TF.FileFunction,Copper,L2,Bot*%
%TF.FilePolarity,Positive*%
%FSLAX46Y46*%
G04 Gerber Fmt 4.6, Leading zero omitted, Abs format (unit mm)*
G04 Created by KiCad (PCBNEW 6.0.11) date 2024-08-22 19:43:04*
%MOMM*%
%LPD*%
G01*
G04 APERTURE LIST*
G04 Aperture macros list*
%AMFreePoly0*
4,1,6,1.000000,0.000000,0.500000,-0.750000,-0.500000,-0.750000,-0.500000,0.750000,0.500000,0.750000,1.000000,0.000000,1.000000,0.000000,$1*%
%AMFreePoly1*
4,1,6,0.500000,-0.750000,-0.650000,-0.750000,-0.150000,0.000000,-0.650000,0.750000,0.500000,0.750000,0.500000,-0.750000,0.500000,-0.750000,$1*%
G04 Aperture macros list end*
%TA.AperFunction,ComponentPad*%
%ADD10R,1.700000X1.700000*%
%TD*%
%TA.AperFunction,ComponentPad*%
%ADD11O,1.700000X1.700000*%
%TD*%
%TA.AperFunction,ComponentPad*%
%ADD12R,1.500000X1.500000*%
%TD*%
%TA.AperFunction,ComponentPad*%
%ADD13C,1.500000*%
%TD*%
%TA.AperFunction,SMDPad,CuDef*%
%ADD14FreePoly0,0.000000*%
%TD*%
%TA.AperFunction,SMDPad,CuDef*%
%ADD15FreePoly1,0.000000*%
%TD*%
%TA.AperFunction,SMDPad,CuDef*%
%ADD16FreePoly0,180.000000*%
%TD*%
%TA.AperFunction,SMDPad,CuDef*%
%ADD17FreePoly1,180.000000*%
%TD*%
%TA.AperFunction,ViaPad*%
%ADD18C,0.800000*%
%TD*%
%TA.AperFunction,ViaPad*%
%ADD19C,1.400000*%
%TD*%
%TA.AperFunction,Conductor*%
%ADD20C,0.400000*%
%TD*%
%TA.AperFunction,Conductor*%
%ADD21C,1.400000*%
%TD*%
G04 APERTURE END LIST*
D10*
X30988000Y-12319000D03*
D11*
X33528000Y-12319000D03*
D10*
X44958000Y-12319000D03*
D11*
X42418000Y-12319000D03*
X39878000Y-12319000D03*
X37338000Y-12319000D03*
D10*
X44958000Y-2159000D03*
D11*
X42418000Y-2159000D03*
X39878000Y-2159000D03*
X37338000Y-2159000D03*
D12*
X51816000Y-3810000D03*
D13*
X51816000Y-6350000D03*
X51816000Y-8890000D03*
X51816000Y-11430000D03*
X49276000Y-3810000D03*
X49276000Y-6350000D03*
X49276000Y-8890000D03*
X49276000Y-11430000D03*
D10*
X23216000Y-2159000D03*
D11*
X20676000Y-2159000D03*
D10*
X2159000Y-5715000D03*
D11*
X2159000Y-8255000D03*
D14*
X5498000Y-9271000D03*
D15*
X6948000Y-9271000D03*
D16*
X6948000Y-5588000D03*
D17*
X5498000Y-5588000D03*
D14*
X13880000Y-12827000D03*
D15*
X15330000Y-12827000D03*
D18*
X57912000Y-8636000D03*
X11049000Y-11049000D03*
X17526000Y-7620000D03*
X22339000Y-4940000D03*
D19*
X34290000Y-3810000D03*
D18*
X29464000Y-6731000D03*
D19*
X11938000Y-12827000D03*
D18*
X6223000Y-7620000D03*
X12954000Y-10033000D03*
X8636000Y-9271000D03*
X6096000Y-3810000D03*
D19*
X17272000Y-12827000D03*
D18*
X56261000Y-7620000D03*
D20*
X29464000Y-6706500D02*
X24916500Y-2159000D01*
X24916500Y-2159000D02*
X23216000Y-2159000D01*
D21*
X11938000Y-12827000D02*
X13335000Y-12827000D01*
D20*
X47982971Y-5080000D02*
X47347971Y-4445000D01*
X50546000Y-5080000D02*
X47982971Y-5080000D01*
X51816000Y-6350000D02*
X50546000Y-5080000D01*
X47347971Y-4445000D02*
X42164000Y-4445000D01*
X42164000Y-4445000D02*
X39878000Y-2159000D01*
X49134000Y-3668000D02*
X49276000Y-3810000D01*
X42418000Y-2159000D02*
X43927000Y-3668000D01*
X43942000Y-3668000D02*
X49134000Y-3668000D01*
X5498000Y-7710000D02*
X5498000Y-9271000D01*
X5588000Y-7620000D02*
X5498000Y-7710000D01*
X6223000Y-7620000D02*
X5588000Y-7620000D01*
X5498000Y-5588000D02*
X5498000Y-7710000D01*
X12192000Y-9271000D02*
X6948000Y-9271000D01*
X12954000Y-10033000D02*
X12192000Y-9271000D01*
X6754500Y-4468500D02*
X6754500Y-5588000D01*
X6096000Y-3810000D02*
X6754500Y-4468500D01*
D21*
X17272000Y-12827000D02*
X15875000Y-12827000D01*
D20*
X56261000Y-7620000D02*
X50546000Y-7620000D01*
X50546000Y-7620000D02*
X49276000Y-6350000D01*
%TA.AperFunction,Conductor*%
G36*
X63314621Y-528502D02*
G01*
X63361114Y-582158D01*
X63372500Y-634500D01*
X63372500Y-14351500D01*
X63352498Y-14419621D01*
X63298842Y-14466114D01*
X63246500Y-14477500D01*
X634500Y-14477500D01*
X566379Y-14457498D01*
X519886Y-14403842D01*
X508500Y-14351500D01*
X508500Y-12827000D01*
X10724884Y-12827000D01*
X10725364Y-12832481D01*
X10725611Y-12835308D01*
X10725881Y-12853537D01*
X10725537Y-12859502D01*
X10725537Y-12859509D01*
X10725214Y-12865113D01*
X10735810Y-12952674D01*
X10736240Y-12956795D01*
X10741864Y-13021077D01*
X10743314Y-13037655D01*
X10744736Y-13042961D01*
X10744736Y-13042963D01*
X10746074Y-13047956D01*
X10749454Y-13065428D01*
X10751130Y-13079277D01*
X10752780Y-13084640D01*
X10776310Y-13161126D01*
X10777587Y-13165564D01*
X10798044Y-13241910D01*
X10802718Y-13251933D01*
X10803536Y-13253687D01*
X10809768Y-13269881D01*
X10814563Y-13285466D01*
X10817136Y-13290451D01*
X10817138Y-13290456D01*
X10852678Y-13359313D01*
X10854907Y-13363853D01*
X10882927Y-13423941D01*
X10887411Y-13433558D01*
X10896198Y-13446107D01*
X10904946Y-13460581D01*
X10913505Y-13477164D01*
X10962579Y-13541118D01*
X10965818Y-13545536D01*
X11005544Y-13602271D01*
X11005548Y-13602275D01*
X11008699Y-13606776D01*
X11021171Y-13619248D01*
X11032038Y-13631639D01*
X11041415Y-13643860D01*
X11041419Y-13643864D01*
X11044831Y-13648311D01*
X11101131Y-13699540D01*
X11102628Y-13700902D01*
X11106924Y-13705001D01*
X11158224Y-13756301D01*
X11162743Y-13759465D01*
X11174575Y-13767750D01*
X11187098Y-13777765D01*
X11200236Y-13789719D01*
X11200242Y-13789724D01*
X11204389Y-13793497D01*
X11209136Y-13796475D01*
X11209139Y-13796477D01*
X11268509Y-13833719D01*
X11273820Y-13837241D01*
X11331442Y-13877589D01*
X11336426Y-13879913D01*
X11336431Y-13879916D01*
X11351640Y-13887008D01*
X11365343Y-13894464D01*
X11387135Y-13908134D01*
X11455121Y-13935464D01*
X11461367Y-13938174D01*
X11518099Y-13964629D01*
X11518103Y-13964630D01*
X11523090Y-13966956D01*
X11546857Y-13973324D01*
X11561236Y-13978122D01*
X11582086Y-13986504D01*
X11582089Y-13986505D01*
X11587293Y-13988597D01*
X11592782Y-13989734D01*
X11592786Y-13989735D01*
X11637136Y-13998919D01*
X11656668Y-14002964D01*
X11663700Y-14004633D01*
X11727345Y-14021686D01*
X11754155Y-14024031D01*
X11768724Y-14026170D01*
X11798537Y-14032344D01*
X11803144Y-14032610D01*
X11803147Y-14032610D01*
X11851452Y-14035395D01*
X11851456Y-14035395D01*
X11853275Y-14035500D01*
X11879732Y-14035500D01*
X11890714Y-14035979D01*
X11938000Y-14040116D01*
X11985286Y-14035979D01*
X11996268Y-14035500D01*
X13132489Y-14035500D01*
X13184831Y-14046886D01*
X13235266Y-14069919D01*
X13380000Y-14090729D01*
X14380000Y-14090729D01*
X14381964Y-14090605D01*
X14381968Y-14090605D01*
X14438080Y-14087066D01*
X14438084Y-14087065D01*
X14444557Y-14086657D01*
X14490232Y-14074075D01*
X14541624Y-14070833D01*
X14680000Y-14090729D01*
X15830000Y-14090729D01*
X15861986Y-14088441D01*
X15896373Y-14085982D01*
X15896374Y-14085982D01*
X15903111Y-14085500D01*
X16043411Y-14044304D01*
X16043599Y-14044943D01*
X16087011Y-14035500D01*
X17213732Y-14035500D01*
X17224714Y-14035979D01*
X17272000Y-14040116D01*
X17277475Y-14039637D01*
X17277486Y-14039637D01*
X17322952Y-14035659D01*
X17325363Y-14035500D01*
X17326735Y-14035500D01*
X17424891Y-14026740D01*
X17425109Y-14026721D01*
X17477180Y-14022165D01*
X17482655Y-14021686D01*
X17483224Y-14021534D01*
X17486872Y-14021208D01*
X17492280Y-14019729D01*
X17492283Y-14019728D01*
X17602542Y-13989564D01*
X17603179Y-13989391D01*
X17606143Y-13988597D01*
X17686910Y-13966956D01*
X17689175Y-13965900D01*
X17689535Y-13965766D01*
X17694952Y-13964284D01*
X17700019Y-13961867D01*
X17700022Y-13961866D01*
X17795417Y-13916364D01*
X17796412Y-13915894D01*
X17873572Y-13879914D01*
X17878558Y-13877589D01*
X17881435Y-13875574D01*
X17883323Y-13874581D01*
X17884600Y-13873826D01*
X17889663Y-13871411D01*
X17976052Y-13809334D01*
X17977229Y-13808500D01*
X18047259Y-13759465D01*
X18047269Y-13759457D01*
X18051776Y-13756301D01*
X18055318Y-13752759D01*
X18059238Y-13749713D01*
X18060299Y-13748797D01*
X18064851Y-13745526D01*
X18136248Y-13671850D01*
X18137637Y-13670440D01*
X18201301Y-13606776D01*
X18204455Y-13602271D01*
X18206596Y-13599720D01*
X18210125Y-13595807D01*
X18211075Y-13594635D01*
X18214977Y-13590608D01*
X18218101Y-13585958D01*
X18218109Y-13585949D01*
X18270369Y-13508178D01*
X18271736Y-13506184D01*
X18285244Y-13486892D01*
X18322589Y-13433558D01*
X18324915Y-13428569D01*
X18327665Y-13423807D01*
X18327898Y-13423941D01*
X18329481Y-13421137D01*
X18329464Y-13421128D01*
X18332167Y-13416211D01*
X18335297Y-13411553D01*
X18374025Y-13323330D01*
X18375162Y-13320816D01*
X18411956Y-13241910D01*
X18413379Y-13236600D01*
X18415262Y-13231427D01*
X18415333Y-13231453D01*
X18419240Y-13220327D01*
X18419753Y-13219158D01*
X18419754Y-13219155D01*
X18420641Y-13217134D01*
X29629500Y-13217134D01*
X29636255Y-13279316D01*
X29687385Y-13415705D01*
X29774739Y-13532261D01*
X29891295Y-13619615D01*
X30027684Y-13670745D01*
X30089866Y-13677500D01*
X31886134Y-13677500D01*
X31948316Y-13670745D01*
X32084705Y-13619615D01*
X32201261Y-13532261D01*
X32288615Y-13415705D01*
X32293346Y-13403086D01*
X32332598Y-13298382D01*
X32375240Y-13241618D01*
X32441802Y-13216918D01*
X32511150Y-13232126D01*
X32545817Y-13260114D01*
X32574250Y-13292938D01*
X32746126Y-13435632D01*
X32939000Y-13548338D01*
X33147692Y-13628030D01*
X33152760Y-13629061D01*
X33152763Y-13629062D01*
X33225498Y-13643860D01*
X33366597Y-13672567D01*
X33371772Y-13672757D01*
X33371774Y-13672757D01*
X33584673Y-13680564D01*
X33584677Y-13680564D01*
X33589837Y-13680753D01*
X33594957Y-13680097D01*
X33594959Y-13680097D01*
X33806288Y-13653025D01*
X33806289Y-13653025D01*
X33811416Y-13652368D01*
X33824939Y-13648311D01*
X34020429Y-13589661D01*
X34020434Y-13589659D01*
X34025384Y-13588174D01*
X34225994Y-13489896D01*
X34407860Y-13360173D01*
X34446118Y-13322049D01*
X34516479Y-13251933D01*
X34566096Y-13202489D01*
X34625446Y-13119895D01*
X34693435Y-13025277D01*
X34696453Y-13021077D01*
X34717320Y-12978857D01*
X34793136Y-12825453D01*
X34793137Y-12825451D01*
X34795430Y-12820811D01*
X34832361Y-12699258D01*
X34858865Y-12612023D01*
X34858865Y-12612021D01*
X34860370Y-12607069D01*
X34889529Y-12385590D01*
X34891156Y-12319000D01*
X34888418Y-12285695D01*
X35975251Y-12285695D01*
X35975548Y-12290848D01*
X35975548Y-12290851D01*
X35984147Y-12439980D01*
X35988110Y-12508715D01*
X35989247Y-12513761D01*
X35989248Y-12513767D01*
X36012366Y-12616345D01*
X36037222Y-12726639D01*
X36121266Y-12933616D01*
X36167893Y-13009704D01*
X36235291Y-13119688D01*
X36237987Y-13124088D01*
X36384250Y-13292938D01*
X36556126Y-13435632D01*
X36749000Y-13548338D01*
X36957692Y-13628030D01*
X36962760Y-13629061D01*
X36962763Y-13629062D01*
X37035498Y-13643860D01*
X37176597Y-13672567D01*
X37181772Y-13672757D01*
X37181774Y-13672757D01*
X37394673Y-13680564D01*
X37394677Y-13680564D01*
X37399837Y-13680753D01*
X37404957Y-13680097D01*
X37404959Y-13680097D01*
X37616288Y-13653025D01*
X37616289Y-13653025D01*
X37621416Y-13652368D01*
X37634939Y-13648311D01*
X37830429Y-13589661D01*
X37830434Y-13589659D01*
X37835384Y-13588174D01*
X38035994Y-13489896D01*
X38217860Y-13360173D01*
X38256118Y-13322049D01*
X38326479Y-13251933D01*
X38376096Y-13202489D01*
X38435446Y-13119895D01*
X38506453Y-13021077D01*
X38507776Y-13022028D01*
X38554645Y-12978857D01*
X38624580Y-12966625D01*
X38690026Y-12994144D01*
X38717875Y-13025994D01*
X38777987Y-13124088D01*
X38924250Y-13292938D01*
X39096126Y-13435632D01*
X39289000Y-13548338D01*
X39497692Y-13628030D01*
X39502760Y-13629061D01*
X39502763Y-13629062D01*
X39575498Y-13643860D01*
X39716597Y-13672567D01*
X39721772Y-13672757D01*
X39721774Y-13672757D01*
X39934673Y-13680564D01*
X39934677Y-13680564D01*
X39939837Y-13680753D01*
X39944957Y-13680097D01*
X39944959Y-13680097D01*
X40156288Y-13653025D01*
X40156289Y-13653025D01*
X40161416Y-13652368D01*
X40174939Y-13648311D01*
X40370429Y-13589661D01*
X40370434Y-13589659D01*
X40375384Y-13588174D01*
X40575994Y-13489896D01*
X40757860Y-13360173D01*
X40796118Y-13322049D01*
X40866479Y-13251933D01*
X40916096Y-13202489D01*
X40975446Y-13119895D01*
X41046453Y-13021077D01*
X41047776Y-13022028D01*
X41094645Y-12978857D01*
X41164580Y-12966625D01*
X41230026Y-12994144D01*
X41257875Y-13025994D01*
X41317987Y-13124088D01*
X41464250Y-13292938D01*
X41636126Y-13435632D01*
X41829000Y-13548338D01*
X42037692Y-13628030D01*
X42042760Y-13629061D01*
X42042763Y-13629062D01*
X42115498Y-13643860D01*
X42256597Y-13672567D01*
X42261772Y-13672757D01*
X42261774Y-13672757D01*
X42474673Y-13680564D01*
X42474677Y-13680564D01*
X42479837Y-13680753D01*
X42484957Y-13680097D01*
X42484959Y-13680097D01*
X42696288Y-13653025D01*
X42696289Y-13653025D01*
X42701416Y-13652368D01*
X42714939Y-13648311D01*
X42910429Y-13589661D01*
X42910434Y-13589659D01*
X42915384Y-13588174D01*
X43115994Y-13489896D01*
X43297860Y-13360173D01*
X43336118Y-13322049D01*
X43406479Y-13251933D01*
X43468851Y-13218017D01*
X43539658Y-13223205D01*
X43596419Y-13265851D01*
X43613401Y-13296954D01*
X43654676Y-13407054D01*
X43663214Y-13422649D01*
X43739715Y-13524724D01*
X43752276Y-13537285D01*
X43854351Y-13613786D01*
X43869946Y-13622324D01*
X43990394Y-13667478D01*
X44005649Y-13671105D01*
X44056514Y-13676631D01*
X44063328Y-13677000D01*
X44685885Y-13677000D01*
X44701124Y-13672525D01*
X44702329Y-13671135D01*
X44704000Y-13663452D01*
X44704000Y-13658884D01*
X45212000Y-13658884D01*
X45216475Y-13674123D01*
X45217865Y-13675328D01*
X45225548Y-13676999D01*
X45852669Y-13676999D01*
X45859490Y-13676629D01*
X45910352Y-13671105D01*
X45925604Y-13667479D01*
X46046054Y-13622324D01*
X46061649Y-13613786D01*
X46163724Y-13537285D01*
X46176285Y-13524724D01*
X46252786Y-13422649D01*
X46261324Y-13407054D01*
X46306478Y-13286606D01*
X46310105Y-13271351D01*
X46315631Y-13220486D01*
X46316000Y-13213672D01*
X46316000Y-12591115D01*
X46311525Y-12575876D01*
X46310135Y-12574671D01*
X46302452Y-12573000D01*
X45230115Y-12573000D01*
X45214876Y-12577475D01*
X45213671Y-12578865D01*
X45212000Y-12586548D01*
X45212000Y-13658884D01*
X44704000Y-13658884D01*
X44704000Y-12046885D01*
X45212000Y-12046885D01*
X45216475Y-12062124D01*
X45217865Y-12063329D01*
X45225548Y-12065000D01*
X46297884Y-12065000D01*
X46313123Y-12060525D01*
X46314328Y-12059135D01*
X46315999Y-12051452D01*
X46315999Y-11424331D01*
X46315629Y-11417510D01*
X46310105Y-11366648D01*
X46306479Y-11351396D01*
X46261324Y-11230946D01*
X46252786Y-11215351D01*
X46176285Y-11113276D01*
X46163724Y-11100715D01*
X46061649Y-11024214D01*
X46046054Y-11015676D01*
X45925606Y-10970522D01*
X45910351Y-10966895D01*
X45859486Y-10961369D01*
X45852672Y-10961000D01*
X45230115Y-10961000D01*
X45214876Y-10965475D01*
X45213671Y-10966865D01*
X45212000Y-10974548D01*
X45212000Y-12046885D01*
X44704000Y-12046885D01*
X44704000Y-10979116D01*
X44699525Y-10963877D01*
X44698135Y-10962672D01*
X44690452Y-10961001D01*
X44063331Y-10961001D01*
X44056510Y-10961371D01*
X44005648Y-10966895D01*
X43990396Y-10970521D01*
X43869946Y-11015676D01*
X43854351Y-11024214D01*
X43752276Y-11100715D01*
X43739715Y-11113276D01*
X43663214Y-11215351D01*
X43654676Y-11230946D01*
X43613297Y-11341322D01*
X43570655Y-11398087D01*
X43504093Y-11422786D01*
X43434744Y-11407578D01*
X43402121Y-11381891D01*
X43351151Y-11325876D01*
X43351145Y-11325870D01*
X43347670Y-11322051D01*
X43343619Y-11318852D01*
X43343615Y-11318848D01*
X43176414Y-11186800D01*
X43176410Y-11186798D01*
X43172359Y-11183598D01*
X42976789Y-11075638D01*
X42971920Y-11073914D01*
X42971916Y-11073912D01*
X42771087Y-11002795D01*
X42771083Y-11002794D01*
X42766212Y-11001069D01*
X42761119Y-11000162D01*
X42761116Y-11000161D01*
X42551373Y-10962800D01*
X42551367Y-10962799D01*
X42546284Y-10961894D01*
X42472452Y-10960992D01*
X42328081Y-10959228D01*
X42328079Y-10959228D01*
X42322911Y-10959165D01*
X42102091Y-10992955D01*
X41889756Y-11062357D01*
X41691607Y-11165507D01*
X41687474Y-11168610D01*
X41687471Y-11168612D01*
X41604450Y-11230946D01*
X41512965Y-11299635D01*
X41473203Y-11341243D01*
X41401729Y-11416037D01*
X41358629Y-11461138D01*
X41251201Y-11618621D01*
X41196293Y-11663621D01*
X41125768Y-11671792D01*
X41062021Y-11640538D01*
X41041324Y-11616054D01*
X40960822Y-11491617D01*
X40960820Y-11491614D01*
X40958014Y-11487277D01*
X40807670Y-11322051D01*
X40803619Y-11318852D01*
X40803615Y-11318848D01*
X40636414Y-11186800D01*
X40636410Y-11186798D01*
X40632359Y-11183598D01*
X40436789Y-11075638D01*
X40431920Y-11073914D01*
X40431916Y-11073912D01*
X40231087Y-11002795D01*
X40231083Y-11002794D01*
X40226212Y-11001069D01*
X40221119Y-11000162D01*
X40221116Y-11000161D01*
X40011373Y-10962800D01*
X40011367Y-10962799D01*
X40006284Y-10961894D01*
X39932452Y-10960992D01*
X39788081Y-10959228D01*
X39788079Y-10959228D01*
X39782911Y-10959165D01*
X39562091Y-10992955D01*
X39349756Y-11062357D01*
X39151607Y-11165507D01*
X39147474Y-11168610D01*
X39147471Y-11168612D01*
X39064450Y-11230946D01*
X38972965Y-11299635D01*
X38933203Y-11341243D01*
X38861729Y-11416037D01*
X38818629Y-11461138D01*
X38711201Y-11618621D01*
X38656293Y-11663621D01*
X38585768Y-11671792D01*
X38522021Y-11640538D01*
X38501324Y-11616054D01*
X38420822Y-11491617D01*
X38420820Y-11491614D01*
X38418014Y-11487277D01*
X38267670Y-11322051D01*
X38263619Y-11318852D01*
X38263615Y-11318848D01*
X38096414Y-11186800D01*
X38096410Y-11186798D01*
X38092359Y-11183598D01*
X37896789Y-11075638D01*
X37891920Y-11073914D01*
X37891916Y-11073912D01*
X37691087Y-11002795D01*
X37691083Y-11002794D01*
X37686212Y-11001069D01*
X37681119Y-11000162D01*
X37681116Y-11000161D01*
X37471373Y-10962800D01*
X37471367Y-10962799D01*
X37466284Y-10961894D01*
X37392452Y-10960992D01*
X37248081Y-10959228D01*
X37248079Y-10959228D01*
X37242911Y-10959165D01*
X37022091Y-10992955D01*
X36809756Y-11062357D01*
X36611607Y-11165507D01*
X36607474Y-11168610D01*
X36607471Y-11168612D01*
X36524450Y-11230946D01*
X36432965Y-11299635D01*
X36393203Y-11341243D01*
X36321729Y-11416037D01*
X36278629Y-11461138D01*
X36152743Y-11645680D01*
X36119513Y-11717269D01*
X36072482Y-11818589D01*
X36058688Y-11848305D01*
X35998989Y-12063570D01*
X35975251Y-12285695D01*
X34888418Y-12285695D01*
X34872852Y-12096361D01*
X34818431Y-11879702D01*
X34729354Y-11674840D01*
X34673978Y-11589242D01*
X34610822Y-11491617D01*
X34610820Y-11491614D01*
X34608014Y-11487277D01*
X34457670Y-11322051D01*
X34453619Y-11318852D01*
X34453615Y-11318848D01*
X34286414Y-11186800D01*
X34286410Y-11186798D01*
X34282359Y-11183598D01*
X34086789Y-11075638D01*
X34081920Y-11073914D01*
X34081916Y-11073912D01*
X33881087Y-11002795D01*
X33881083Y-11002794D01*
X33876212Y-11001069D01*
X33871119Y-11000162D01*
X33871116Y-11000161D01*
X33661373Y-10962800D01*
X33661367Y-10962799D01*
X33656284Y-10961894D01*
X33582452Y-10960992D01*
X33438081Y-10959228D01*
X33438079Y-10959228D01*
X33432911Y-10959165D01*
X33212091Y-10992955D01*
X32999756Y-11062357D01*
X32801607Y-11165507D01*
X32797474Y-11168610D01*
X32797471Y-11168612D01*
X32714450Y-11230946D01*
X32622965Y-11299635D01*
X32544360Y-11381891D01*
X32542283Y-11384064D01*
X32480759Y-11419494D01*
X32409846Y-11416037D01*
X32352060Y-11374791D01*
X32333207Y-11341243D01*
X32291767Y-11230703D01*
X32288615Y-11222295D01*
X32201261Y-11105739D01*
X32084705Y-11018385D01*
X31948316Y-10967255D01*
X31886134Y-10960500D01*
X30089866Y-10960500D01*
X30027684Y-10967255D01*
X29891295Y-11018385D01*
X29774739Y-11105739D01*
X29687385Y-11222295D01*
X29636255Y-11358684D01*
X29629500Y-11420866D01*
X29629500Y-13217134D01*
X18420641Y-13217134D01*
X18422008Y-13214020D01*
X18443838Y-13123092D01*
X18444650Y-13119895D01*
X18459244Y-13065428D01*
X18466686Y-13037655D01*
X18467210Y-13031663D01*
X18470210Y-13013243D01*
X18471060Y-13009704D01*
X18471060Y-13009703D01*
X18472368Y-13004255D01*
X18477596Y-12913588D01*
X18477864Y-12909888D01*
X18482273Y-12859502D01*
X18484389Y-12835308D01*
X18484637Y-12832477D01*
X18484637Y-12832475D01*
X18485116Y-12827000D01*
X18484389Y-12818692D01*
X18484119Y-12800463D01*
X18484463Y-12794498D01*
X18484463Y-12794491D01*
X18484786Y-12788887D01*
X18474190Y-12701326D01*
X18473760Y-12697205D01*
X18467165Y-12621817D01*
X18467164Y-12621814D01*
X18466686Y-12616345D01*
X18463926Y-12606044D01*
X18460546Y-12588572D01*
X18459544Y-12580293D01*
X18458870Y-12574723D01*
X18445883Y-12532509D01*
X18433690Y-12492874D01*
X18432413Y-12488436D01*
X18413380Y-12417405D01*
X18411956Y-12412090D01*
X18406462Y-12400308D01*
X18400231Y-12384117D01*
X18397088Y-12373901D01*
X18395437Y-12368534D01*
X18392864Y-12363549D01*
X18392862Y-12363544D01*
X18357322Y-12294687D01*
X18355093Y-12290147D01*
X18324912Y-12225423D01*
X18324910Y-12225420D01*
X18322589Y-12220442D01*
X18313802Y-12207893D01*
X18305054Y-12193419D01*
X18299071Y-12181827D01*
X18296495Y-12176836D01*
X18247421Y-12112882D01*
X18244182Y-12108464D01*
X18204456Y-12051729D01*
X18204452Y-12051725D01*
X18201301Y-12047224D01*
X18188829Y-12034752D01*
X18177962Y-12022361D01*
X18168585Y-12010140D01*
X18168581Y-12010136D01*
X18165169Y-12005689D01*
X18107372Y-11953098D01*
X18103076Y-11948999D01*
X18051776Y-11897699D01*
X18035424Y-11886250D01*
X18022902Y-11876235D01*
X18009764Y-11864281D01*
X18009758Y-11864276D01*
X18005611Y-11860503D01*
X18000864Y-11857525D01*
X18000861Y-11857523D01*
X17941491Y-11820281D01*
X17936176Y-11816756D01*
X17878558Y-11776411D01*
X17873572Y-11774086D01*
X17873569Y-11774084D01*
X17858360Y-11766992D01*
X17844657Y-11759536D01*
X17841365Y-11757471D01*
X17822865Y-11745866D01*
X17754879Y-11718536D01*
X17748633Y-11715826D01*
X17691901Y-11689371D01*
X17691897Y-11689370D01*
X17686910Y-11687044D01*
X17663143Y-11680676D01*
X17648764Y-11675878D01*
X17627914Y-11667496D01*
X17627911Y-11667495D01*
X17622707Y-11665403D01*
X17617218Y-11664266D01*
X17617214Y-11664265D01*
X17570934Y-11654681D01*
X17553332Y-11651036D01*
X17546300Y-11649367D01*
X17482655Y-11632314D01*
X17455845Y-11629969D01*
X17441274Y-11627830D01*
X17411463Y-11621656D01*
X17406856Y-11621390D01*
X17406853Y-11621390D01*
X17358548Y-11618605D01*
X17358544Y-11618605D01*
X17356725Y-11618500D01*
X17330268Y-11618500D01*
X17319286Y-11618021D01*
X17277475Y-11614363D01*
X17272000Y-11613884D01*
X17266525Y-11614363D01*
X17224714Y-11618021D01*
X17213732Y-11618500D01*
X16077511Y-11618500D01*
X16025169Y-11607114D01*
X15982932Y-11587825D01*
X15982933Y-11587825D01*
X15974734Y-11584081D01*
X15965561Y-11582762D01*
X15949900Y-11580510D01*
X15830000Y-11563271D01*
X14680000Y-11563271D01*
X14677487Y-11563472D01*
X14677486Y-11563472D01*
X14605353Y-11569240D01*
X14605350Y-11569241D01*
X14598355Y-11569800D01*
X14591657Y-11571890D01*
X14591655Y-11571890D01*
X14571019Y-11578328D01*
X14515562Y-11582762D01*
X14439945Y-11571890D01*
X14380000Y-11563271D01*
X13380000Y-11563271D01*
X13371024Y-11563913D01*
X13313627Y-11568018D01*
X13313626Y-11568018D01*
X13306889Y-11568500D01*
X13166589Y-11609696D01*
X13166401Y-11609057D01*
X13122989Y-11618500D01*
X11996268Y-11618500D01*
X11985286Y-11618021D01*
X11943475Y-11614363D01*
X11938000Y-11613884D01*
X11932525Y-11614363D01*
X11932514Y-11614363D01*
X11887048Y-11618341D01*
X11884637Y-11618500D01*
X11883265Y-11618500D01*
X11847902Y-11621656D01*
X11785109Y-11627260D01*
X11784891Y-11627279D01*
X11778594Y-11627830D01*
X11727345Y-11632314D01*
X11726776Y-11632466D01*
X11723128Y-11632792D01*
X11717720Y-11634271D01*
X11717717Y-11634272D01*
X11607458Y-11664436D01*
X11606854Y-11664600D01*
X11523090Y-11687044D01*
X11520825Y-11688100D01*
X11520465Y-11688234D01*
X11515048Y-11689716D01*
X11509981Y-11692133D01*
X11509978Y-11692134D01*
X11414583Y-11737636D01*
X11413592Y-11738104D01*
X11331442Y-11776411D01*
X11328565Y-11778426D01*
X11326677Y-11779419D01*
X11325400Y-11780174D01*
X11320337Y-11782589D01*
X11233948Y-11844666D01*
X11232771Y-11845500D01*
X11162741Y-11894535D01*
X11162732Y-11894542D01*
X11158224Y-11897699D01*
X11154682Y-11901241D01*
X11150762Y-11904287D01*
X11149701Y-11905203D01*
X11145149Y-11908474D01*
X11073752Y-11982150D01*
X11072363Y-11983560D01*
X11008699Y-12047224D01*
X11005547Y-12051726D01*
X11003404Y-12054280D01*
X10999875Y-12058193D01*
X10998925Y-12059365D01*
X10995023Y-12063392D01*
X10991899Y-12068042D01*
X10991891Y-12068051D01*
X10939631Y-12145822D01*
X10938264Y-12147816D01*
X10887411Y-12220442D01*
X10885085Y-12225431D01*
X10882335Y-12230193D01*
X10882102Y-12230059D01*
X10880519Y-12232863D01*
X10880536Y-12232872D01*
X10877833Y-12237789D01*
X10874703Y-12242447D01*
X10839621Y-12322365D01*
X10835988Y-12330642D01*
X10834838Y-12333184D01*
X10798044Y-12412090D01*
X10796621Y-12417400D01*
X10794738Y-12422573D01*
X10794667Y-12422547D01*
X10790760Y-12433673D01*
X10787992Y-12439980D01*
X10786684Y-12445429D01*
X10766162Y-12530908D01*
X10765350Y-12534105D01*
X10743314Y-12616345D01*
X10742835Y-12621822D01*
X10742790Y-12622335D01*
X10739791Y-12640753D01*
X10737632Y-12649745D01*
X10737309Y-12655341D01*
X10737309Y-12655343D01*
X10732406Y-12740383D01*
X10732138Y-12744079D01*
X10727206Y-12800463D01*
X10725364Y-12821519D01*
X10724884Y-12827000D01*
X508500Y-12827000D01*
X508500Y-10021000D01*
X4484271Y-10021000D01*
X4489500Y-10094111D01*
X4508554Y-10159001D01*
X4525397Y-10216363D01*
X4530696Y-10234411D01*
X4535567Y-10241990D01*
X4604878Y-10349841D01*
X4604880Y-10349844D01*
X4609750Y-10357421D01*
X4616560Y-10363322D01*
X4713445Y-10447274D01*
X4713448Y-10447276D01*
X4720257Y-10453176D01*
X4728454Y-10456920D01*
X4728455Y-10456920D01*
X4748662Y-10466148D01*
X4853266Y-10513919D01*
X4998000Y-10534729D01*
X5998000Y-10534729D01*
X5999964Y-10534605D01*
X5999968Y-10534605D01*
X6056080Y-10531066D01*
X6056084Y-10531065D01*
X6062557Y-10530657D01*
X6108232Y-10518075D01*
X6159624Y-10514833D01*
X6298000Y-10534729D01*
X7448000Y-10534729D01*
X7479986Y-10532441D01*
X7514373Y-10529982D01*
X7514374Y-10529982D01*
X7521111Y-10529500D01*
X7600618Y-10506155D01*
X7652765Y-10490843D01*
X7652767Y-10490842D01*
X7661411Y-10488304D01*
X7725255Y-10447274D01*
X7776841Y-10414122D01*
X7776844Y-10414120D01*
X7784421Y-10409250D01*
X7829331Y-10357421D01*
X7874274Y-10305555D01*
X7874276Y-10305552D01*
X7880176Y-10298743D01*
X7940919Y-10165734D01*
X7947213Y-10121959D01*
X7976706Y-10057378D01*
X8036432Y-10018995D01*
X8107429Y-10018995D01*
X8145988Y-10037953D01*
X8179248Y-10062118D01*
X8185276Y-10064802D01*
X8185278Y-10064803D01*
X8347681Y-10137109D01*
X8353712Y-10139794D01*
X8444073Y-10159001D01*
X8534056Y-10178128D01*
X8534061Y-10178128D01*
X8540513Y-10179500D01*
X8731487Y-10179500D01*
X8737939Y-10178128D01*
X8737944Y-10178128D01*
X8827927Y-10159001D01*
X8918288Y-10139794D01*
X8924319Y-10137109D01*
X9086722Y-10064803D01*
X9086724Y-10064802D01*
X9092752Y-10062118D01*
X9173344Y-10003564D01*
X9240211Y-9979706D01*
X9247405Y-9979500D01*
X11846340Y-9979500D01*
X11914461Y-9999502D01*
X11935435Y-10016405D01*
X12019335Y-10100305D01*
X12053361Y-10162617D01*
X12055550Y-10176228D01*
X12060458Y-10222928D01*
X12119473Y-10404556D01*
X12214960Y-10569944D01*
X12219378Y-10574851D01*
X12219379Y-10574852D01*
X12262257Y-10622473D01*
X12342747Y-10711866D01*
X12497248Y-10824118D01*
X12503276Y-10826802D01*
X12503278Y-10826803D01*
X12665681Y-10899109D01*
X12671712Y-10901794D01*
X12765113Y-10921647D01*
X12852056Y-10940128D01*
X12852061Y-10940128D01*
X12858513Y-10941500D01*
X13049487Y-10941500D01*
X13055939Y-10940128D01*
X13055944Y-10940128D01*
X13142888Y-10921647D01*
X13236288Y-10901794D01*
X13242319Y-10899109D01*
X13404722Y-10826803D01*
X13404724Y-10826802D01*
X13410752Y-10824118D01*
X13565253Y-10711866D01*
X13645743Y-10622473D01*
X13688621Y-10574852D01*
X13688622Y-10574851D01*
X13693040Y-10569944D01*
X13788527Y-10404556D01*
X13847542Y-10222928D01*
X13851436Y-10185885D01*
X13866814Y-10039565D01*
X13867504Y-10033000D01*
X13847542Y-9843072D01*
X13788527Y-9661444D01*
X13762616Y-9616564D01*
X13696341Y-9501774D01*
X13693040Y-9496056D01*
X13596855Y-9389231D01*
X13569675Y-9359045D01*
X13569674Y-9359044D01*
X13565253Y-9354134D01*
X13410752Y-9241882D01*
X13404724Y-9239198D01*
X13404722Y-9239197D01*
X13242319Y-9166891D01*
X13242318Y-9166891D01*
X13236288Y-9164206D01*
X13099589Y-9135150D01*
X13083431Y-9131715D01*
X13020533Y-9097563D01*
X12713450Y-8790480D01*
X12707596Y-8784215D01*
X12687739Y-8761453D01*
X12669561Y-8740615D01*
X12617280Y-8703871D01*
X12611986Y-8699939D01*
X12567693Y-8665209D01*
X12561718Y-8660524D01*
X12554802Y-8657401D01*
X12552516Y-8656017D01*
X12537835Y-8647643D01*
X12535475Y-8646378D01*
X12529261Y-8642010D01*
X12522182Y-8639250D01*
X12522180Y-8639249D01*
X12469725Y-8618798D01*
X12463656Y-8616247D01*
X12405427Y-8589955D01*
X12397960Y-8588571D01*
X12395405Y-8587770D01*
X12379152Y-8583141D01*
X12376572Y-8582478D01*
X12369491Y-8579718D01*
X12361960Y-8578727D01*
X12361958Y-8578726D01*
X12332339Y-8574827D01*
X12306139Y-8571378D01*
X12299641Y-8570348D01*
X12236814Y-8558704D01*
X12229234Y-8559141D01*
X12229233Y-8559141D01*
X12174608Y-8562291D01*
X12167354Y-8562500D01*
X9247405Y-8562500D01*
X9179284Y-8542498D01*
X9173344Y-8538436D01*
X9098094Y-8483763D01*
X9098091Y-8483761D01*
X9092752Y-8479882D01*
X9086724Y-8477198D01*
X9086722Y-8477197D01*
X8924319Y-8404891D01*
X8924318Y-8404891D01*
X8918288Y-8402206D01*
X8796251Y-8376266D01*
X8737944Y-8363872D01*
X8737939Y-8363872D01*
X8731487Y-8362500D01*
X8540513Y-8362500D01*
X8534061Y-8363872D01*
X8534056Y-8363872D01*
X8475749Y-8376266D01*
X8353712Y-8402206D01*
X8347682Y-8404891D01*
X8347681Y-8404891D01*
X8185278Y-8477197D01*
X8185276Y-8477198D01*
X8179248Y-8479882D01*
X8148007Y-8502580D01*
X8081142Y-8526438D01*
X8011991Y-8510359D01*
X7962509Y-8459446D01*
X7953051Y-8436143D01*
X7944563Y-8407237D01*
X7915304Y-8307589D01*
X7880760Y-8253838D01*
X7841122Y-8192159D01*
X7841120Y-8192156D01*
X7836250Y-8184579D01*
X7797759Y-8151226D01*
X7732555Y-8094726D01*
X7732552Y-8094724D01*
X7725743Y-8088824D01*
X7701959Y-8077962D01*
X7600932Y-8031825D01*
X7600933Y-8031825D01*
X7592734Y-8028081D01*
X7448000Y-8007271D01*
X7225845Y-8007271D01*
X7157724Y-7987269D01*
X7111231Y-7933613D01*
X7101127Y-7863339D01*
X7106011Y-7842340D01*
X7116542Y-7809928D01*
X7118711Y-7789297D01*
X7135814Y-7626565D01*
X7136504Y-7620000D01*
X7135084Y-7606492D01*
X7117232Y-7436635D01*
X7117232Y-7436633D01*
X7116542Y-7430072D01*
X7057527Y-7248444D01*
X7051321Y-7237694D01*
X6987263Y-7126744D01*
X6962040Y-7083056D01*
X6943115Y-7062037D01*
X6912399Y-6998033D01*
X6921162Y-6927579D01*
X6966625Y-6873048D01*
X7036752Y-6851729D01*
X7448000Y-6851729D01*
X7479986Y-6849441D01*
X7514373Y-6846982D01*
X7514374Y-6846982D01*
X7521111Y-6846500D01*
X7600618Y-6823155D01*
X7652765Y-6807843D01*
X7652767Y-6807842D01*
X7661411Y-6805304D01*
X7707077Y-6775956D01*
X7776841Y-6731122D01*
X7776844Y-6731120D01*
X7784421Y-6726250D01*
X7790325Y-6719437D01*
X7874274Y-6622555D01*
X7874276Y-6622552D01*
X7880176Y-6615743D01*
X7940919Y-6482734D01*
X7961729Y-6338000D01*
X7961729Y-4838000D01*
X7956500Y-4764889D01*
X7915304Y-4624589D01*
X7873960Y-4560257D01*
X7841122Y-4509159D01*
X7841120Y-4509156D01*
X7836250Y-4501579D01*
X7790346Y-4461803D01*
X7732555Y-4411726D01*
X7732552Y-4411724D01*
X7725743Y-4405824D01*
X7592734Y-4345081D01*
X7535343Y-4336829D01*
X7470767Y-4307337D01*
X7440704Y-4260918D01*
X7437743Y-4262218D01*
X7437743Y-4262217D01*
X7412052Y-4203690D01*
X7409567Y-4197602D01*
X7389672Y-4144949D01*
X7389671Y-4144947D01*
X7386987Y-4137844D01*
X7382686Y-4131585D01*
X7381449Y-4129220D01*
X7373227Y-4114448D01*
X7371872Y-4112156D01*
X7368816Y-4105195D01*
X7364191Y-4099168D01*
X7364189Y-4099164D01*
X7329907Y-4054487D01*
X7326029Y-4049150D01*
X7322489Y-4043998D01*
X7289857Y-3996519D01*
X7243337Y-3955071D01*
X7238062Y-3950091D01*
X7030665Y-3742694D01*
X6996639Y-3680382D01*
X6994450Y-3666769D01*
X6990232Y-3626637D01*
X6990232Y-3626635D01*
X6989542Y-3620072D01*
X6930527Y-3438444D01*
X6835040Y-3273056D01*
X6825888Y-3262891D01*
X6711675Y-3136045D01*
X6711674Y-3136044D01*
X6707253Y-3131134D01*
X6585244Y-3042489D01*
X6558094Y-3022763D01*
X6558093Y-3022762D01*
X6552752Y-3018882D01*
X6546724Y-3016198D01*
X6546722Y-3016197D01*
X6384319Y-2943891D01*
X6384318Y-2943891D01*
X6378288Y-2941206D01*
X6284888Y-2921353D01*
X6197944Y-2902872D01*
X6197939Y-2902872D01*
X6191487Y-2901500D01*
X6000513Y-2901500D01*
X5994061Y-2902872D01*
X5994056Y-2902872D01*
X5907112Y-2921353D01*
X5813712Y-2941206D01*
X5807682Y-2943891D01*
X5807681Y-2943891D01*
X5645278Y-3016197D01*
X5645276Y-3016198D01*
X5639248Y-3018882D01*
X5633907Y-3022762D01*
X5633906Y-3022763D01*
X5606756Y-3042489D01*
X5484747Y-3131134D01*
X5480326Y-3136044D01*
X5480325Y-3136045D01*
X5366113Y-3262891D01*
X5356960Y-3273056D01*
X5261473Y-3438444D01*
X5202458Y-3620072D01*
X5182496Y-3810000D01*
X5183186Y-3816565D01*
X5201569Y-3991466D01*
X5202458Y-3999928D01*
X5234702Y-4099164D01*
X5254253Y-4159335D01*
X5256281Y-4230302D01*
X5219618Y-4291100D01*
X5155906Y-4322426D01*
X5134420Y-4324271D01*
X4998000Y-4324271D01*
X4966014Y-4326559D01*
X4931627Y-4329018D01*
X4931626Y-4329018D01*
X4924889Y-4329500D01*
X4845382Y-4352845D01*
X4793235Y-4368157D01*
X4793233Y-4368158D01*
X4784589Y-4370696D01*
X4777010Y-4375567D01*
X4669159Y-4444878D01*
X4669156Y-4444880D01*
X4661579Y-4449750D01*
X4655678Y-4456560D01*
X4571726Y-4553445D01*
X4571724Y-4553448D01*
X4565824Y-4560257D01*
X4505081Y-4693266D01*
X4484271Y-4838000D01*
X4484271Y-6338000D01*
X4489500Y-6411111D01*
X4530696Y-6551411D01*
X4542238Y-6569371D01*
X4604878Y-6666841D01*
X4604880Y-6666844D01*
X4609750Y-6674421D01*
X4720257Y-6770176D01*
X4728455Y-6773920D01*
X4731623Y-6775956D01*
X4778115Y-6829613D01*
X4789500Y-6881953D01*
X4789500Y-7633127D01*
X4787390Y-7656088D01*
X4785704Y-7665186D01*
X4786141Y-7672766D01*
X4786141Y-7672767D01*
X4789291Y-7727392D01*
X4789500Y-7734646D01*
X4789500Y-7981739D01*
X4769498Y-8049860D01*
X4731620Y-8087737D01*
X4669162Y-8127876D01*
X4669159Y-8127879D01*
X4661579Y-8132750D01*
X4655678Y-8139560D01*
X4571726Y-8236445D01*
X4571724Y-8236448D01*
X4565824Y-8243257D01*
X4505081Y-8376266D01*
X4484271Y-8521000D01*
X4484271Y-10021000D01*
X508500Y-10021000D01*
X508500Y-8221695D01*
X796251Y-8221695D01*
X796548Y-8226848D01*
X796548Y-8226851D01*
X804449Y-8363872D01*
X809110Y-8444715D01*
X810247Y-8449761D01*
X810248Y-8449767D01*
X825296Y-8516537D01*
X858222Y-8662639D01*
X942266Y-8869616D01*
X1058987Y-9060088D01*
X1205250Y-9228938D01*
X1377126Y-9371632D01*
X1570000Y-9484338D01*
X1574825Y-9486180D01*
X1574826Y-9486181D01*
X1600686Y-9496056D01*
X1778692Y-9564030D01*
X1783760Y-9565061D01*
X1783763Y-9565062D01*
X1891017Y-9586883D01*
X1997597Y-9608567D01*
X2002772Y-9608757D01*
X2002774Y-9608757D01*
X2215673Y-9616564D01*
X2215677Y-9616564D01*
X2220837Y-9616753D01*
X2225957Y-9616097D01*
X2225959Y-9616097D01*
X2437288Y-9589025D01*
X2437289Y-9589025D01*
X2442416Y-9588368D01*
X2447366Y-9586883D01*
X2651429Y-9525661D01*
X2651434Y-9525659D01*
X2656384Y-9524174D01*
X2856994Y-9425896D01*
X3038860Y-9296173D01*
X3089447Y-9245763D01*
X3120209Y-9215107D01*
X3197096Y-9138489D01*
X3256594Y-9055689D01*
X3324435Y-8961277D01*
X3327453Y-8957077D01*
X3357899Y-8895475D01*
X3424136Y-8761453D01*
X3424137Y-8761451D01*
X3426430Y-8756811D01*
X3483082Y-8570347D01*
X3489865Y-8548023D01*
X3489865Y-8548021D01*
X3491370Y-8543069D01*
X3520529Y-8321590D01*
X3520871Y-8307589D01*
X3522074Y-8258365D01*
X3522074Y-8258361D01*
X3522156Y-8255000D01*
X3503852Y-8032361D01*
X3449431Y-7815702D01*
X3360354Y-7610840D01*
X3292404Y-7505805D01*
X3241822Y-7427617D01*
X3241820Y-7427614D01*
X3239014Y-7423277D01*
X3235540Y-7419459D01*
X3235533Y-7419450D01*
X3091435Y-7261088D01*
X3060383Y-7197242D01*
X3068779Y-7126744D01*
X3113956Y-7071976D01*
X3140400Y-7058307D01*
X3247052Y-7018325D01*
X3262649Y-7009786D01*
X3364724Y-6933285D01*
X3377285Y-6920724D01*
X3453786Y-6818649D01*
X3462324Y-6803054D01*
X3507478Y-6682606D01*
X3511105Y-6667351D01*
X3516631Y-6616486D01*
X3517000Y-6609672D01*
X3517000Y-5987115D01*
X3512525Y-5971876D01*
X3511135Y-5970671D01*
X3503452Y-5969000D01*
X819116Y-5969000D01*
X803877Y-5973475D01*
X802672Y-5974865D01*
X801001Y-5982548D01*
X801001Y-6609669D01*
X801371Y-6616490D01*
X806895Y-6667352D01*
X810521Y-6682604D01*
X855676Y-6803054D01*
X864214Y-6818649D01*
X940715Y-6920724D01*
X953276Y-6933285D01*
X1055351Y-7009786D01*
X1070946Y-7018324D01*
X1179827Y-7059142D01*
X1236591Y-7101784D01*
X1261291Y-7168345D01*
X1246083Y-7237694D01*
X1226691Y-7264175D01*
X1179219Y-7313852D01*
X1099629Y-7397138D01*
X1096715Y-7401410D01*
X1096714Y-7401411D01*
X1078838Y-7427617D01*
X973743Y-7581680D01*
X879688Y-7784305D01*
X819989Y-7999570D01*
X796251Y-8221695D01*
X508500Y-8221695D01*
X508500Y-5442885D01*
X801000Y-5442885D01*
X805475Y-5458124D01*
X806865Y-5459329D01*
X814548Y-5461000D01*
X1886885Y-5461000D01*
X1902124Y-5456525D01*
X1903329Y-5455135D01*
X1905000Y-5447452D01*
X1905000Y-5442885D01*
X2413000Y-5442885D01*
X2417475Y-5458124D01*
X2418865Y-5459329D01*
X2426548Y-5461000D01*
X3498884Y-5461000D01*
X3514123Y-5456525D01*
X3515328Y-5455135D01*
X3516999Y-5447452D01*
X3516999Y-4820331D01*
X3516629Y-4813510D01*
X3511105Y-4762648D01*
X3507479Y-4747396D01*
X3462324Y-4626946D01*
X3453786Y-4611351D01*
X3377285Y-4509276D01*
X3364724Y-4496715D01*
X3262649Y-4420214D01*
X3247054Y-4411676D01*
X3126606Y-4366522D01*
X3111351Y-4362895D01*
X3060486Y-4357369D01*
X3053672Y-4357000D01*
X2431115Y-4357000D01*
X2415876Y-4361475D01*
X2414671Y-4362865D01*
X2413000Y-4370548D01*
X2413000Y-5442885D01*
X1905000Y-5442885D01*
X1905000Y-4375116D01*
X1900525Y-4359877D01*
X1899135Y-4358672D01*
X1891452Y-4357001D01*
X1264331Y-4357001D01*
X1257510Y-4357371D01*
X1206648Y-4362895D01*
X1191396Y-4366521D01*
X1070946Y-4411676D01*
X1055351Y-4420214D01*
X953276Y-4496715D01*
X940715Y-4509276D01*
X864214Y-4611351D01*
X855676Y-4626946D01*
X810522Y-4747394D01*
X806895Y-4762649D01*
X801369Y-4813514D01*
X801000Y-4820328D01*
X801000Y-5442885D01*
X508500Y-5442885D01*
X508500Y-2125695D01*
X19313251Y-2125695D01*
X19326110Y-2348715D01*
X19327247Y-2353761D01*
X19327248Y-2353767D01*
X19351304Y-2460508D01*
X19375222Y-2566639D01*
X19459266Y-2773616D01*
X19496685Y-2834678D01*
X19573291Y-2959688D01*
X19575987Y-2964088D01*
X19722250Y-3132938D01*
X19894126Y-3275632D01*
X20087000Y-3388338D01*
X20295692Y-3468030D01*
X20300760Y-3469061D01*
X20300763Y-3469062D01*
X20360891Y-3481295D01*
X20514597Y-3512567D01*
X20519772Y-3512757D01*
X20519774Y-3512757D01*
X20732673Y-3520564D01*
X20732677Y-3520564D01*
X20737837Y-3520753D01*
X20742957Y-3520097D01*
X20742959Y-3520097D01*
X20954288Y-3493025D01*
X20954289Y-3493025D01*
X20959416Y-3492368D01*
X20996324Y-3481295D01*
X21168429Y-3429661D01*
X21168434Y-3429659D01*
X21173384Y-3428174D01*
X21373994Y-3329896D01*
X21555860Y-3200173D01*
X21664091Y-3092319D01*
X21726462Y-3058404D01*
X21797268Y-3063592D01*
X21854030Y-3106238D01*
X21871012Y-3137341D01*
X21883951Y-3171856D01*
X21915385Y-3255705D01*
X22002739Y-3372261D01*
X22119295Y-3459615D01*
X22255684Y-3510745D01*
X22317866Y-3517500D01*
X24114134Y-3517500D01*
X24176316Y-3510745D01*
X24312705Y-3459615D01*
X24429261Y-3372261D01*
X24516615Y-3255705D01*
X24567745Y-3119316D01*
X24569436Y-3103750D01*
X24596679Y-3038188D01*
X24655042Y-2997763D01*
X24725996Y-2995308D01*
X24783794Y-3028264D01*
X26671253Y-4915724D01*
X28526458Y-6770929D01*
X28560484Y-6833241D01*
X28562672Y-6846850D01*
X28570458Y-6920928D01*
X28629473Y-7102556D01*
X28724960Y-7267944D01*
X28729378Y-7272851D01*
X28729379Y-7272852D01*
X28772649Y-7320908D01*
X28852747Y-7409866D01*
X29007248Y-7522118D01*
X29013276Y-7524802D01*
X29013278Y-7524803D01*
X29175681Y-7597109D01*
X29181712Y-7599794D01*
X29245888Y-7613435D01*
X29362056Y-7638128D01*
X29362061Y-7638128D01*
X29368513Y-7639500D01*
X29559487Y-7639500D01*
X29565939Y-7638128D01*
X29565944Y-7638128D01*
X29682112Y-7613435D01*
X29746288Y-7599794D01*
X29752319Y-7597109D01*
X29914722Y-7524803D01*
X29914724Y-7524802D01*
X29920752Y-7522118D01*
X30075253Y-7409866D01*
X30155351Y-7320908D01*
X30198621Y-7272852D01*
X30198622Y-7272851D01*
X30203040Y-7267944D01*
X30298527Y-7102556D01*
X30357542Y-6920928D01*
X30361639Y-6881953D01*
X30376814Y-6737565D01*
X30377504Y-6731000D01*
X30375599Y-6712872D01*
X30358232Y-6547635D01*
X30358232Y-6547633D01*
X30357542Y-6541072D01*
X30298527Y-6359444D01*
X30293075Y-6350000D01*
X30206341Y-6199774D01*
X30203040Y-6194056D01*
X30075253Y-6052134D01*
X29920752Y-5939882D01*
X29914724Y-5937198D01*
X29914722Y-5937197D01*
X29752319Y-5864891D01*
X29752318Y-5864891D01*
X29746288Y-5862206D01*
X29624544Y-5836328D01*
X29561647Y-5802177D01*
X25885165Y-2125695D01*
X35975251Y-2125695D01*
X35988110Y-2348715D01*
X35989247Y-2353761D01*
X35989248Y-2353767D01*
X36013304Y-2460508D01*
X36037222Y-2566639D01*
X36121266Y-2773616D01*
X36158685Y-2834678D01*
X36235291Y-2959688D01*
X36237987Y-2964088D01*
X36384250Y-3132938D01*
X36556126Y-3275632D01*
X36749000Y-3388338D01*
X36957692Y-3468030D01*
X36962760Y-3469061D01*
X36962763Y-3469062D01*
X37022891Y-3481295D01*
X37176597Y-3512567D01*
X37181772Y-3512757D01*
X37181774Y-3512757D01*
X37394673Y-3520564D01*
X37394677Y-3520564D01*
X37399837Y-3520753D01*
X37404957Y-3520097D01*
X37404959Y-3520097D01*
X37616288Y-3493025D01*
X37616289Y-3493025D01*
X37621416Y-3492368D01*
X37658324Y-3481295D01*
X37830429Y-3429661D01*
X37830434Y-3429659D01*
X37835384Y-3428174D01*
X38035994Y-3329896D01*
X38217860Y-3200173D01*
X38239763Y-3178347D01*
X38312124Y-3106238D01*
X38376096Y-3042489D01*
X38390271Y-3022763D01*
X38506453Y-2861077D01*
X38507776Y-2862028D01*
X38554645Y-2818857D01*
X38624580Y-2806625D01*
X38690026Y-2834144D01*
X38717875Y-2865994D01*
X38777987Y-2964088D01*
X38924250Y-3132938D01*
X39096126Y-3275632D01*
X39289000Y-3388338D01*
X39497692Y-3468030D01*
X39502760Y-3469061D01*
X39502763Y-3469062D01*
X39562891Y-3481295D01*
X39716597Y-3512567D01*
X39721772Y-3512757D01*
X39721774Y-3512757D01*
X39934673Y-3520564D01*
X39934677Y-3520564D01*
X39939837Y-3520753D01*
X39944957Y-3520097D01*
X39944959Y-3520097D01*
X40142588Y-3494780D01*
X40212698Y-3505964D01*
X40247693Y-3530664D01*
X41642557Y-4925528D01*
X41648411Y-4931793D01*
X41686439Y-4975385D01*
X41738729Y-5012136D01*
X41743971Y-5016028D01*
X41794282Y-5055476D01*
X41801201Y-5058600D01*
X41803493Y-5059988D01*
X41818165Y-5068357D01*
X41820525Y-5069622D01*
X41826739Y-5073990D01*
X41833818Y-5076750D01*
X41833820Y-5076751D01*
X41886275Y-5097202D01*
X41892344Y-5099753D01*
X41950573Y-5126045D01*
X41958046Y-5127430D01*
X41960612Y-5128234D01*
X41976835Y-5132855D01*
X41979427Y-5133520D01*
X41986509Y-5136282D01*
X41994044Y-5137274D01*
X42049861Y-5144622D01*
X42056377Y-5145654D01*
X42094770Y-5152770D01*
X42119186Y-5157295D01*
X42126766Y-5156858D01*
X42126767Y-5156858D01*
X42181380Y-5153709D01*
X42188633Y-5153500D01*
X47002311Y-5153500D01*
X47070432Y-5173502D01*
X47091406Y-5190405D01*
X47461521Y-5560520D01*
X47467375Y-5566785D01*
X47505410Y-5610385D01*
X47511628Y-5614755D01*
X47557668Y-5647112D01*
X47562964Y-5651045D01*
X47613253Y-5690477D01*
X47620175Y-5693602D01*
X47622423Y-5694964D01*
X47637156Y-5703368D01*
X47639495Y-5704622D01*
X47645710Y-5708990D01*
X47652786Y-5711749D01*
X47652790Y-5711751D01*
X47705245Y-5732202D01*
X47711323Y-5734757D01*
X47769545Y-5761045D01*
X47777016Y-5762429D01*
X47779570Y-5763230D01*
X47795849Y-5767867D01*
X47798404Y-5768523D01*
X47805480Y-5771282D01*
X47833933Y-5775028D01*
X47868822Y-5779621D01*
X47875338Y-5780653D01*
X47917677Y-5788500D01*
X47938158Y-5792296D01*
X47945739Y-5791859D01*
X47945740Y-5791859D01*
X47951344Y-5791536D01*
X48020503Y-5807584D01*
X48070006Y-5858475D01*
X48084138Y-5928051D01*
X48080301Y-5949939D01*
X48033310Y-6125308D01*
X48033309Y-6125317D01*
X48031885Y-6130629D01*
X48012693Y-6350000D01*
X48031885Y-6569371D01*
X48088880Y-6782076D01*
X48119146Y-6846982D01*
X48179618Y-6976666D01*
X48179621Y-6976671D01*
X48181944Y-6981653D01*
X48185100Y-6986160D01*
X48185101Y-6986162D01*
X48270609Y-7108279D01*
X48308251Y-7162038D01*
X48463962Y-7317749D01*
X48644346Y-7444056D01*
X48649328Y-7446379D01*
X48649333Y-7446382D01*
X48776768Y-7505805D01*
X48830053Y-7552722D01*
X48849514Y-7620999D01*
X48828972Y-7688959D01*
X48776768Y-7734195D01*
X48649334Y-7793618D01*
X48649329Y-7793621D01*
X48644347Y-7795944D01*
X48639840Y-7799100D01*
X48639838Y-7799101D01*
X48468473Y-7919092D01*
X48468470Y-7919094D01*
X48463962Y-7922251D01*
X48308251Y-8077962D01*
X48305094Y-8082470D01*
X48305092Y-8082473D01*
X48197280Y-8236445D01*
X48181944Y-8258347D01*
X48179621Y-8263329D01*
X48179618Y-8263334D01*
X48139904Y-8348502D01*
X48088880Y-8457924D01*
X48031885Y-8670629D01*
X48012693Y-8890000D01*
X48031885Y-9109371D01*
X48088880Y-9322076D01*
X48120195Y-9389231D01*
X48179618Y-9516666D01*
X48179621Y-9516671D01*
X48181944Y-9521653D01*
X48185100Y-9526160D01*
X48185101Y-9526162D01*
X48284228Y-9667729D01*
X48308251Y-9702038D01*
X48463962Y-9857749D01*
X48644346Y-9984056D01*
X48649328Y-9986379D01*
X48649333Y-9986382D01*
X48776768Y-10045805D01*
X48830053Y-10092722D01*
X48849514Y-10160999D01*
X48828972Y-10228959D01*
X48776768Y-10274195D01*
X48649334Y-10333618D01*
X48649329Y-10333621D01*
X48644347Y-10335944D01*
X48639840Y-10339100D01*
X48639838Y-10339101D01*
X48468473Y-10459092D01*
X48468470Y-10459094D01*
X48463962Y-10462251D01*
X48308251Y-10617962D01*
X48305094Y-10622470D01*
X48305092Y-10622473D01*
X48185101Y-10793838D01*
X48181944Y-10798347D01*
X48179621Y-10803329D01*
X48179618Y-10803334D01*
X48134958Y-10899109D01*
X48088880Y-10997924D01*
X48031885Y-11210629D01*
X48012693Y-11430000D01*
X48031885Y-11649371D01*
X48088880Y-11862076D01*
X48120195Y-11929231D01*
X48179618Y-12056666D01*
X48179621Y-12056671D01*
X48181944Y-12061653D01*
X48185100Y-12066160D01*
X48185101Y-12066162D01*
X48301827Y-12232863D01*
X48308251Y-12242038D01*
X48463962Y-12397749D01*
X48468471Y-12400906D01*
X48468473Y-12400908D01*
X48499377Y-12422547D01*
X48644346Y-12524056D01*
X48843924Y-12617120D01*
X49056629Y-12674115D01*
X49276000Y-12693307D01*
X49495371Y-12674115D01*
X49708076Y-12617120D01*
X49907654Y-12524056D01*
X50052623Y-12422547D01*
X50083527Y-12400908D01*
X50083529Y-12400906D01*
X50088038Y-12397749D01*
X50243749Y-12242038D01*
X50250174Y-12232863D01*
X50366899Y-12066162D01*
X50366900Y-12066160D01*
X50370056Y-12061653D01*
X50372379Y-12056671D01*
X50372382Y-12056666D01*
X50431805Y-11929231D01*
X50478722Y-11875946D01*
X50546999Y-11856485D01*
X50614959Y-11877027D01*
X50660195Y-11929231D01*
X50719618Y-12056666D01*
X50719621Y-12056671D01*
X50721944Y-12061653D01*
X50725100Y-12066160D01*
X50725101Y-12066162D01*
X50841827Y-12232863D01*
X50848251Y-12242038D01*
X51003962Y-12397749D01*
X51008471Y-12400906D01*
X51008473Y-12400908D01*
X51039377Y-12422547D01*
X51184346Y-12524056D01*
X51383924Y-12617120D01*
X51596629Y-12674115D01*
X51816000Y-12693307D01*
X52035371Y-12674115D01*
X52248076Y-12617120D01*
X52447654Y-12524056D01*
X52592623Y-12422547D01*
X52623527Y-12400908D01*
X52623529Y-12400906D01*
X52628038Y-12397749D01*
X52783749Y-12242038D01*
X52790174Y-12232863D01*
X52906899Y-12066162D01*
X52906900Y-12066160D01*
X52910056Y-12061653D01*
X52912379Y-12056671D01*
X52912382Y-12056666D01*
X52971805Y-11929231D01*
X53003120Y-11862076D01*
X53060115Y-11649371D01*
X53079307Y-11430000D01*
X53060115Y-11210629D01*
X53003120Y-10997924D01*
X52957042Y-10899109D01*
X52912382Y-10803334D01*
X52912379Y-10803329D01*
X52910056Y-10798347D01*
X52906899Y-10793838D01*
X52786908Y-10622473D01*
X52786906Y-10622470D01*
X52783749Y-10617962D01*
X52628038Y-10462251D01*
X52447654Y-10335944D01*
X52442672Y-10333621D01*
X52442667Y-10333618D01*
X52315232Y-10274195D01*
X52261947Y-10227278D01*
X52242486Y-10159001D01*
X52263028Y-10091041D01*
X52315232Y-10045805D01*
X52442667Y-9986382D01*
X52442672Y-9986379D01*
X52447654Y-9984056D01*
X52628038Y-9857749D01*
X52783749Y-9702038D01*
X52807773Y-9667729D01*
X52906899Y-9526162D01*
X52906900Y-9526160D01*
X52910056Y-9521653D01*
X52912379Y-9516671D01*
X52912382Y-9516666D01*
X52971805Y-9389231D01*
X53003120Y-9322076D01*
X53060115Y-9109371D01*
X53079307Y-8890000D01*
X53060115Y-8670629D01*
X53010941Y-8487112D01*
X53012631Y-8416135D01*
X53052425Y-8357339D01*
X53117689Y-8329391D01*
X53132648Y-8328500D01*
X55649595Y-8328500D01*
X55717716Y-8348502D01*
X55723656Y-8352564D01*
X55804248Y-8411118D01*
X55810276Y-8413802D01*
X55810278Y-8413803D01*
X55967412Y-8483763D01*
X55978712Y-8488794D01*
X56072113Y-8508647D01*
X56159056Y-8527128D01*
X56159061Y-8527128D01*
X56165513Y-8528500D01*
X56356487Y-8528500D01*
X56362939Y-8527128D01*
X56362944Y-8527128D01*
X56449888Y-8508647D01*
X56543288Y-8488794D01*
X56554588Y-8483763D01*
X56711722Y-8413803D01*
X56711724Y-8413802D01*
X56717752Y-8411118D01*
X56730019Y-8402206D01*
X56840976Y-8321590D01*
X56872253Y-8298866D01*
X56908720Y-8258365D01*
X56995621Y-8161852D01*
X56995622Y-8161851D01*
X57000040Y-8156944D01*
X57061865Y-8049860D01*
X57092223Y-7997279D01*
X57092224Y-7997278D01*
X57095527Y-7991556D01*
X57154542Y-7809928D01*
X57156711Y-7789297D01*
X57173814Y-7626565D01*
X57174504Y-7620000D01*
X57173084Y-7606492D01*
X57155232Y-7436635D01*
X57155232Y-7436633D01*
X57154542Y-7430072D01*
X57095527Y-7248444D01*
X57089321Y-7237694D01*
X57025263Y-7126744D01*
X57000040Y-7083056D01*
X56934068Y-7009786D01*
X56876675Y-6946045D01*
X56876674Y-6946044D01*
X56872253Y-6941134D01*
X56749198Y-6851729D01*
X56723094Y-6832763D01*
X56723093Y-6832762D01*
X56717752Y-6828882D01*
X56711724Y-6826198D01*
X56711722Y-6826197D01*
X56549319Y-6753891D01*
X56549318Y-6753891D01*
X56543288Y-6751206D01*
X56448227Y-6731000D01*
X56362944Y-6712872D01*
X56362939Y-6712872D01*
X56356487Y-6711500D01*
X56165513Y-6711500D01*
X56159061Y-6712872D01*
X56159056Y-6712872D01*
X56073773Y-6731000D01*
X55978712Y-6751206D01*
X55972682Y-6753891D01*
X55972681Y-6753891D01*
X55810278Y-6826197D01*
X55810276Y-6826198D01*
X55804248Y-6828882D01*
X55798907Y-6832762D01*
X55798906Y-6832763D01*
X55723656Y-6887436D01*
X55656789Y-6911294D01*
X55649595Y-6911500D01*
X53132648Y-6911500D01*
X53064527Y-6891498D01*
X53018034Y-6837842D01*
X53007930Y-6767568D01*
X53010941Y-6752888D01*
X53030385Y-6680322D01*
X53060115Y-6569371D01*
X53079307Y-6350000D01*
X53060115Y-6130629D01*
X53003120Y-5917924D01*
X52951668Y-5807584D01*
X52912382Y-5723334D01*
X52912379Y-5723329D01*
X52910056Y-5718347D01*
X52906899Y-5713838D01*
X52786908Y-5542473D01*
X52786906Y-5542470D01*
X52783749Y-5537962D01*
X52628038Y-5382251D01*
X52623527Y-5379092D01*
X52506591Y-5297212D01*
X52462263Y-5241754D01*
X52454954Y-5171135D01*
X52486985Y-5107775D01*
X52548187Y-5071790D01*
X52578862Y-5067999D01*
X52610669Y-5067999D01*
X52617490Y-5067629D01*
X52668352Y-5062105D01*
X52683604Y-5058479D01*
X52804054Y-5013324D01*
X52819649Y-5004786D01*
X52921724Y-4928285D01*
X52934285Y-4915724D01*
X53010786Y-4813649D01*
X53019324Y-4798054D01*
X53064478Y-4677606D01*
X53068105Y-4662351D01*
X53073631Y-4611486D01*
X53074000Y-4604672D01*
X53074000Y-4082115D01*
X53069525Y-4066876D01*
X53068135Y-4065671D01*
X53060452Y-4064000D01*
X51688000Y-4064000D01*
X51619879Y-4043998D01*
X51573386Y-3990342D01*
X51562000Y-3938000D01*
X51562000Y-3537885D01*
X52070000Y-3537885D01*
X52074475Y-3553124D01*
X52075865Y-3554329D01*
X52083548Y-3556000D01*
X53055884Y-3556000D01*
X53071123Y-3551525D01*
X53072328Y-3550135D01*
X53073999Y-3542452D01*
X53073999Y-3015331D01*
X53073629Y-3008510D01*
X53068105Y-2957648D01*
X53064479Y-2942396D01*
X53019324Y-2821946D01*
X53010786Y-2806351D01*
X52934285Y-2704276D01*
X52921724Y-2691715D01*
X52819649Y-2615214D01*
X52804054Y-2606676D01*
X52683606Y-2561522D01*
X52668351Y-2557895D01*
X52617486Y-2552369D01*
X52610672Y-2552000D01*
X52088115Y-2552000D01*
X52072876Y-2556475D01*
X52071671Y-2557865D01*
X52070000Y-2565548D01*
X52070000Y-3537885D01*
X51562000Y-3537885D01*
X51562000Y-2570116D01*
X51557525Y-2554877D01*
X51556135Y-2553672D01*
X51548452Y-2552001D01*
X51021331Y-2552001D01*
X51014510Y-2552371D01*
X50963648Y-2557895D01*
X50948396Y-2561521D01*
X50827946Y-2606676D01*
X50812351Y-2615214D01*
X50710276Y-2691715D01*
X50697715Y-2704276D01*
X50621214Y-2806351D01*
X50612676Y-2821946D01*
X50567522Y-2942394D01*
X50563895Y-2957649D01*
X50558369Y-3008514D01*
X50558000Y-3015328D01*
X50558000Y-3047138D01*
X50537998Y-3115259D01*
X50484342Y-3161752D01*
X50414068Y-3171856D01*
X50349488Y-3142362D01*
X50328787Y-3119409D01*
X50246908Y-3002473D01*
X50246906Y-3002470D01*
X50243749Y-2997962D01*
X50088038Y-2842251D01*
X50076461Y-2834144D01*
X49983181Y-2768829D01*
X49907654Y-2715944D01*
X49708076Y-2622880D01*
X49495371Y-2565885D01*
X49276000Y-2546693D01*
X49056629Y-2565885D01*
X48843924Y-2622880D01*
X48750562Y-2666415D01*
X48649334Y-2713618D01*
X48649329Y-2713621D01*
X48644347Y-2715944D01*
X48639840Y-2719100D01*
X48639838Y-2719101D01*
X48468473Y-2839092D01*
X48468470Y-2839094D01*
X48463962Y-2842251D01*
X48383618Y-2922595D01*
X48321306Y-2956621D01*
X48294523Y-2959500D01*
X46442500Y-2959500D01*
X46374379Y-2939498D01*
X46327886Y-2885842D01*
X46316500Y-2833500D01*
X46316500Y-1260866D01*
X46309745Y-1198684D01*
X46258615Y-1062295D01*
X46171261Y-945739D01*
X46054705Y-858385D01*
X45918316Y-807255D01*
X45856134Y-800500D01*
X44059866Y-800500D01*
X43997684Y-807255D01*
X43861295Y-858385D01*
X43744739Y-945739D01*
X43657385Y-1062295D01*
X43654233Y-1070703D01*
X43612919Y-1180907D01*
X43570277Y-1237671D01*
X43503716Y-1262371D01*
X43434367Y-1247163D01*
X43401743Y-1221476D01*
X43351151Y-1165875D01*
X43351142Y-1165866D01*
X43347670Y-1162051D01*
X43343619Y-1158852D01*
X43343615Y-1158848D01*
X43176414Y-1026800D01*
X43176410Y-1026798D01*
X43172359Y-1023598D01*
X42976789Y-915638D01*
X42971920Y-913914D01*
X42971916Y-913912D01*
X42771087Y-842795D01*
X42771083Y-842794D01*
X42766212Y-841069D01*
X42761119Y-840162D01*
X42761116Y-840161D01*
X42551373Y-802800D01*
X42551367Y-802799D01*
X42546284Y-801894D01*
X42472452Y-800992D01*
X42328081Y-799228D01*
X42328079Y-799228D01*
X42322911Y-799165D01*
X42102091Y-832955D01*
X41889756Y-902357D01*
X41691607Y-1005507D01*
X41687474Y-1008610D01*
X41687471Y-1008612D01*
X41517100Y-1136530D01*
X41512965Y-1139635D01*
X41473525Y-1180907D01*
X41419280Y-1237671D01*
X41358629Y-1301138D01*
X41251201Y-1458621D01*
X41196293Y-1503621D01*
X41125768Y-1511792D01*
X41062021Y-1480538D01*
X41041324Y-1456054D01*
X40960822Y-1331617D01*
X40960820Y-1331614D01*
X40958014Y-1327277D01*
X40807670Y-1162051D01*
X40803619Y-1158852D01*
X40803615Y-1158848D01*
X40636414Y-1026800D01*
X40636410Y-1026798D01*
X40632359Y-1023598D01*
X40436789Y-915638D01*
X40431920Y-913914D01*
X40431916Y-913912D01*
X40231087Y-842795D01*
X40231083Y-842794D01*
X40226212Y-841069D01*
X40221119Y-840162D01*
X40221116Y-840161D01*
X40011373Y-802800D01*
X40011367Y-802799D01*
X40006284Y-801894D01*
X39932452Y-800992D01*
X39788081Y-799228D01*
X39788079Y-799228D01*
X39782911Y-799165D01*
X39562091Y-832955D01*
X39349756Y-902357D01*
X39151607Y-1005507D01*
X39147474Y-1008610D01*
X39147471Y-1008612D01*
X38977100Y-1136530D01*
X38972965Y-1139635D01*
X38933525Y-1180907D01*
X38879280Y-1237671D01*
X38818629Y-1301138D01*
X38711201Y-1458621D01*
X38656293Y-1503621D01*
X38585768Y-1511792D01*
X38522021Y-1480538D01*
X38501324Y-1456054D01*
X38420822Y-1331617D01*
X38420820Y-1331614D01*
X38418014Y-1327277D01*
X38267670Y-1162051D01*
X38263619Y-1158852D01*
X38263615Y-1158848D01*
X38096414Y-1026800D01*
X38096410Y-1026798D01*
X38092359Y-1023598D01*
X37896789Y-915638D01*
X37891920Y-913914D01*
X37891916Y-913912D01*
X37691087Y-842795D01*
X37691083Y-842794D01*
X37686212Y-841069D01*
X37681119Y-840162D01*
X37681116Y-840161D01*
X37471373Y-802800D01*
X37471367Y-802799D01*
X37466284Y-801894D01*
X37392452Y-800992D01*
X37248081Y-799228D01*
X37248079Y-799228D01*
X37242911Y-799165D01*
X37022091Y-832955D01*
X36809756Y-902357D01*
X36611607Y-1005507D01*
X36607474Y-1008610D01*
X36607471Y-1008612D01*
X36437100Y-1136530D01*
X36432965Y-1139635D01*
X36393525Y-1180907D01*
X36339280Y-1237671D01*
X36278629Y-1301138D01*
X36275720Y-1305403D01*
X36275714Y-1305411D01*
X36260798Y-1327277D01*
X36152743Y-1485680D01*
X36132166Y-1530010D01*
X36063249Y-1678480D01*
X36058688Y-1688305D01*
X35998989Y-1903570D01*
X35975251Y-2125695D01*
X25885165Y-2125695D01*
X25437950Y-1678480D01*
X25432096Y-1672215D01*
X25430518Y-1670406D01*
X25394061Y-1628615D01*
X25341780Y-1591871D01*
X25336486Y-1587939D01*
X25292193Y-1553209D01*
X25286218Y-1548524D01*
X25279302Y-1545401D01*
X25277016Y-1544017D01*
X25262335Y-1535643D01*
X25259975Y-1534378D01*
X25253761Y-1530010D01*
X25246682Y-1527250D01*
X25246680Y-1527249D01*
X25194225Y-1506798D01*
X25188156Y-1504247D01*
X25129927Y-1477955D01*
X25122460Y-1476571D01*
X25119905Y-1475770D01*
X25103652Y-1471141D01*
X25101072Y-1470478D01*
X25093991Y-1467718D01*
X25086460Y-1466727D01*
X25086458Y-1466726D01*
X25056839Y-1462827D01*
X25030639Y-1459378D01*
X25024141Y-1458348D01*
X24961314Y-1446704D01*
X24953734Y-1447141D01*
X24953733Y-1447141D01*
X24899108Y-1450291D01*
X24891854Y-1450500D01*
X24700500Y-1450500D01*
X24632379Y-1430498D01*
X24585886Y-1376842D01*
X24574500Y-1324500D01*
X24574500Y-1260866D01*
X24567745Y-1198684D01*
X24516615Y-1062295D01*
X24429261Y-945739D01*
X24312705Y-858385D01*
X24176316Y-807255D01*
X24114134Y-800500D01*
X22317866Y-800500D01*
X22255684Y-807255D01*
X22119295Y-858385D01*
X22002739Y-945739D01*
X21915385Y-1062295D01*
X21912233Y-1070703D01*
X21870919Y-1180907D01*
X21828277Y-1237671D01*
X21761716Y-1262371D01*
X21692367Y-1247163D01*
X21659743Y-1221476D01*
X21609151Y-1165875D01*
X21609142Y-1165866D01*
X21605670Y-1162051D01*
X21601619Y-1158852D01*
X21601615Y-1158848D01*
X21434414Y-1026800D01*
X21434410Y-1026798D01*
X21430359Y-1023598D01*
X21234789Y-915638D01*
X21229920Y-913914D01*
X21229916Y-913912D01*
X21029087Y-842795D01*
X21029083Y-842794D01*
X21024212Y-841069D01*
X21019119Y-840162D01*
X21019116Y-840161D01*
X20809373Y-802800D01*
X20809367Y-802799D01*
X20804284Y-801894D01*
X20730452Y-800992D01*
X20586081Y-799228D01*
X20586079Y-799228D01*
X20580911Y-799165D01*
X20360091Y-832955D01*
X20147756Y-902357D01*
X19949607Y-1005507D01*
X19945474Y-1008610D01*
X19945471Y-1008612D01*
X19775100Y-1136530D01*
X19770965Y-1139635D01*
X19731525Y-1180907D01*
X19677280Y-1237671D01*
X19616629Y-1301138D01*
X19613720Y-1305403D01*
X19613714Y-1305411D01*
X19598798Y-1327277D01*
X19490743Y-1485680D01*
X19470166Y-1530010D01*
X19401249Y-1678480D01*
X19396688Y-1688305D01*
X19336989Y-1903570D01*
X19313251Y-2125695D01*
X508500Y-2125695D01*
X508500Y-634500D01*
X528502Y-566379D01*
X582158Y-519886D01*
X634500Y-508500D01*
X63246500Y-508500D01*
X63314621Y-528502D01*
G37*
%TD.AperFunction*%
M02*
