%TF.GenerationSoftware,KiCad,Pcbnew,6.0.11*%
%TF.CreationDate,2024-08-22T19:43:04+01:00*%
%TF.ProjectId,ESPower,4553506f-7765-4722-9e6b-696361645f70,rev?*%
%TF.SameCoordinates,PX4f54d68PY59a0560*%
%TF.FileFunction,Copper,L1,Top*%
%TF.FilePolarity,Positive*%
%FSLAX46Y46*%
G04 Gerber Fmt 4.6, Leading zero omitted, Abs format (unit mm)*
G04 Created by KiCad (PCBNEW 6.0.11) date 2024-08-22 19:43:04*
%MOMM*%
%LPD*%
G01*
G04 APERTURE LIST*
G04 Aperture macros list*
%AMRoundRect*
0 Rectangle with rounded corners*
0 $1 Rounding radius*
0 $2 $3 $4 $5 $6 $7 $8 $9 X,Y pos of 4 corners*
0 Add a 4 corners polygon primitive as box body*
4,1,4,$2,$3,$4,$5,$6,$7,$8,$9,$2,$3,0*
0 Add four circle primitives for the rounded corners*
1,1,$1+$1,$2,$3*
1,1,$1+$1,$4,$5*
1,1,$1+$1,$6,$7*
1,1,$1+$1,$8,$9*
0 Add four rect primitives between the rounded corners*
20,1,$1+$1,$2,$3,$4,$5,0*
20,1,$1+$1,$4,$5,$6,$7,0*
20,1,$1+$1,$6,$7,$8,$9,0*
20,1,$1+$1,$8,$9,$2,$3,0*%
G04 Aperture macros list end*
%TA.AperFunction,SMDPad,CuDef*%
%ADD10RoundRect,0.250000X-0.787500X-0.925000X0.787500X-0.925000X0.787500X0.925000X-0.787500X0.925000X0*%
%TD*%
%TA.AperFunction,SMDPad,CuDef*%
%ADD11RoundRect,0.225000X-0.225000X-0.250000X0.225000X-0.250000X0.225000X0.250000X-0.225000X0.250000X0*%
%TD*%
%TA.AperFunction,SMDPad,CuDef*%
%ADD12RoundRect,0.225000X0.250000X-0.225000X0.250000X0.225000X-0.250000X0.225000X-0.250000X-0.225000X0*%
%TD*%
%TA.AperFunction,ComponentPad*%
%ADD13R,1.700000X1.700000*%
%TD*%
%TA.AperFunction,ComponentPad*%
%ADD14O,1.700000X1.700000*%
%TD*%
%TA.AperFunction,SMDPad,CuDef*%
%ADD15R,0.650000X1.060000*%
%TD*%
%TA.AperFunction,ComponentPad*%
%ADD16R,1.500000X1.500000*%
%TD*%
%TA.AperFunction,ComponentPad*%
%ADD17C,1.500000*%
%TD*%
%TA.AperFunction,SMDPad,CuDef*%
%ADD18RoundRect,0.200000X0.275000X-0.200000X0.275000X0.200000X-0.275000X0.200000X-0.275000X-0.200000X0*%
%TD*%
%TA.AperFunction,SMDPad,CuDef*%
%ADD19RoundRect,0.225000X0.225000X0.250000X-0.225000X0.250000X-0.225000X-0.250000X0.225000X-0.250000X0*%
%TD*%
%TA.AperFunction,SMDPad,CuDef*%
%ADD20R,0.900000X0.800000*%
%TD*%
%TA.AperFunction,SMDPad,CuDef*%
%ADD21R,2.500000X1.800000*%
%TD*%
%TA.AperFunction,SMDPad,CuDef*%
%ADD22RoundRect,0.200000X-0.275000X0.200000X-0.275000X-0.200000X0.275000X-0.200000X0.275000X0.200000X0*%
%TD*%
%TA.AperFunction,SMDPad,CuDef*%
%ADD23R,0.800000X0.900000*%
%TD*%
%TA.AperFunction,SMDPad,CuDef*%
%ADD24RoundRect,0.218750X-0.256250X0.218750X-0.256250X-0.218750X0.256250X-0.218750X0.256250X0.218750X0*%
%TD*%
%TA.AperFunction,SMDPad,CuDef*%
%ADD25RoundRect,0.150000X0.150000X-0.650000X0.150000X0.650000X-0.150000X0.650000X-0.150000X-0.650000X0*%
%TD*%
%TA.AperFunction,SMDPad,CuDef*%
%ADD26R,3.200000X2.400000*%
%TD*%
%TA.AperFunction,SMDPad,CuDef*%
%ADD27RoundRect,0.200000X0.200000X0.275000X-0.200000X0.275000X-0.200000X-0.275000X0.200000X-0.275000X0*%
%TD*%
%TA.AperFunction,SMDPad,CuDef*%
%ADD28RoundRect,0.150000X-0.150000X0.512500X-0.150000X-0.512500X0.150000X-0.512500X0.150000X0.512500X0*%
%TD*%
%TA.AperFunction,SMDPad,CuDef*%
%ADD29RoundRect,0.225000X-0.250000X0.225000X-0.250000X-0.225000X0.250000X-0.225000X0.250000X0.225000X0*%
%TD*%
%TA.AperFunction,SMDPad,CuDef*%
%ADD30RoundRect,0.200000X-0.200000X-0.275000X0.200000X-0.275000X0.200000X0.275000X-0.200000X0.275000X0*%
%TD*%
%TA.AperFunction,ViaPad*%
%ADD31C,0.800000*%
%TD*%
%TA.AperFunction,ViaPad*%
%ADD32C,1.400000*%
%TD*%
%TA.AperFunction,Conductor*%
%ADD33C,0.400000*%
%TD*%
%TA.AperFunction,Conductor*%
%ADD34C,1.050000*%
%TD*%
%TA.AperFunction,Conductor*%
%ADD35C,1.400000*%
%TD*%
%TA.AperFunction,Conductor*%
%ADD36C,0.300000*%
%TD*%
G04 APERTURE END LIST*
D10*
X31446500Y-8001000D03*
X36371500Y-8001000D03*
D11*
X26657000Y-11176000D03*
X28207000Y-11176000D03*
D12*
X23749000Y-6490000D03*
X23749000Y-4940000D03*
D10*
X40160000Y-8001000D03*
X45085000Y-8001000D03*
D13*
X30988000Y-12319000D03*
D14*
X33528000Y-12319000D03*
D13*
X44958000Y-12319000D03*
D14*
X42418000Y-12319000D03*
X39878000Y-12319000D03*
X37338000Y-12319000D03*
D13*
X44958000Y-2159000D03*
D14*
X42418000Y-2159000D03*
X39878000Y-2159000D03*
X37338000Y-2159000D03*
D15*
X27874000Y-7028000D03*
X26924000Y-7028000D03*
X25974000Y-7028000D03*
X25974000Y-9228000D03*
X26924000Y-9228000D03*
X27874000Y-9228000D03*
D16*
X51816000Y-3810000D03*
D17*
X51816000Y-6350000D03*
X51816000Y-8890000D03*
X51816000Y-11430000D03*
X49276000Y-3810000D03*
X49276000Y-6350000D03*
X49276000Y-8890000D03*
X49276000Y-11430000D03*
D13*
X23216000Y-2159000D03*
D14*
X20676000Y-2159000D03*
D12*
X61468000Y-4712000D03*
X61468000Y-3162000D03*
D18*
X54991000Y-12763000D03*
X54991000Y-11113000D03*
D19*
X61481000Y-6731000D03*
X59931000Y-6731000D03*
D15*
X59629000Y-12403000D03*
X60579000Y-12403000D03*
X61529000Y-12403000D03*
X61529000Y-10203000D03*
X59629000Y-10203000D03*
D20*
X56912000Y-2987000D03*
X56912000Y-4887000D03*
X58912000Y-3937000D03*
D21*
X24225000Y-12827000D03*
X20225000Y-12827000D03*
D22*
X23749000Y-8319000D03*
X23749000Y-9969000D03*
D23*
X19751000Y-8493000D03*
X21651000Y-8493000D03*
X20701000Y-6493000D03*
D24*
X7493000Y-2514500D03*
X7493000Y-4089500D03*
D18*
X4826000Y-3111000D03*
X4826000Y-1461000D03*
X9525000Y-7937000D03*
X9525000Y-6287000D03*
X7493000Y-7937000D03*
X7493000Y-6287000D03*
D24*
X9525000Y-2514500D03*
X9525000Y-4089500D03*
D25*
X11684000Y-8365000D03*
X12954000Y-8365000D03*
X14224000Y-8365000D03*
X15494000Y-8365000D03*
X15494000Y-3065000D03*
X14224000Y-3065000D03*
X12954000Y-3065000D03*
X11684000Y-3065000D03*
D26*
X13589000Y-5715000D03*
D18*
X4826000Y-6667000D03*
X4826000Y-5017000D03*
X4826000Y-10223000D03*
X4826000Y-8573000D03*
D21*
X8223000Y-12827000D03*
X4223000Y-12827000D03*
D13*
X2159000Y-5715000D03*
D14*
X2159000Y-8255000D03*
D18*
X31750000Y-4889000D03*
X31750000Y-3239000D03*
X17526000Y-10731000D03*
X17526000Y-9081000D03*
D27*
X40195000Y-5080000D03*
X38545000Y-5080000D03*
D28*
X29144000Y-1656500D03*
X28194000Y-1656500D03*
X27244000Y-1656500D03*
X27244000Y-3931500D03*
X28194000Y-3931500D03*
X29144000Y-3931500D03*
D29*
X17526000Y-4559000D03*
X17526000Y-6109000D03*
D12*
X57150000Y-12713000D03*
X57150000Y-11163000D03*
D30*
X42863000Y-5080000D03*
X44513000Y-5080000D03*
D31*
X57912000Y-8636000D03*
X11049000Y-11049000D03*
X17526000Y-7620000D03*
X22339000Y-4940000D03*
D32*
X34290000Y-3810000D03*
D31*
X29464000Y-6731000D03*
D32*
X11938000Y-12827000D03*
D31*
X6223000Y-7620000D03*
X12954000Y-10033000D03*
X8636000Y-9271000D03*
X6096000Y-3810000D03*
D32*
X17272000Y-12827000D03*
D31*
X56261000Y-7620000D03*
D33*
X27874000Y-9228000D02*
X27874000Y-10843000D01*
X27874000Y-10843000D02*
X28207000Y-11176000D01*
X26657000Y-11176000D02*
X24956000Y-11176000D01*
D34*
X21651000Y-8493000D02*
X21651000Y-10300500D01*
X21651000Y-10300500D02*
X24177500Y-12827000D01*
X24177500Y-12827000D02*
X24225000Y-12827000D01*
D33*
X22339000Y-4940000D02*
X23749000Y-4940000D01*
D34*
X30988000Y-12319000D02*
X30480000Y-12827000D01*
X30480000Y-12827000D02*
X24225000Y-12827000D01*
X30988000Y-12319000D02*
X30988000Y-8459500D01*
X34290000Y-3810000D02*
X34290000Y-5919500D01*
X30988000Y-8459500D02*
X31446500Y-8001000D01*
X34290000Y-5919500D02*
X36371500Y-8001000D01*
D33*
X29464000Y-7638000D02*
X27874000Y-9228000D01*
X29464000Y-6706500D02*
X29464000Y-7638000D01*
X26924000Y-7028000D02*
X26924000Y-6223000D01*
X26924000Y-6223000D02*
X27290000Y-5857000D01*
X27290000Y-5857000D02*
X30782000Y-5857000D01*
X30782000Y-5857000D02*
X31750000Y-4889000D01*
D34*
X33528000Y-12319000D02*
X37338000Y-12319000D01*
D33*
X27874000Y-7028000D02*
X27874000Y-7958000D01*
X27874000Y-7958000D02*
X27704000Y-8128000D01*
X27704000Y-8128000D02*
X25400000Y-8128000D01*
X25400000Y-8128000D02*
X25019000Y-7747000D01*
X25019000Y-7747000D02*
X25019000Y-5461000D01*
X25019000Y-5461000D02*
X26548500Y-3931500D01*
X26548500Y-3931500D02*
X27244000Y-3931500D01*
X29144000Y-3931500D02*
X29144000Y-4892000D01*
X29144000Y-4892000D02*
X28829000Y-5207000D01*
X28829000Y-5207000D02*
X26797000Y-5207000D01*
X26797000Y-5207000D02*
X25974000Y-6030000D01*
X25974000Y-6030000D02*
X25974000Y-7028000D01*
D34*
X31750000Y-1651000D02*
X29464000Y-1651000D01*
X23216000Y-2159000D02*
X23724000Y-1651000D01*
X23724000Y-1651000D02*
X26924000Y-1651000D01*
D35*
X20225000Y-12827000D02*
X17272000Y-12827000D01*
D33*
X19751000Y-8493000D02*
X19751000Y-12353000D01*
X19751000Y-12353000D02*
X20225000Y-12827000D01*
X17526000Y-10731000D02*
X17526000Y-12573000D01*
X17526000Y-9081000D02*
X17526000Y-7620000D01*
X17526000Y-12573000D02*
X17272000Y-12827000D01*
X17526000Y-7620000D02*
X17526000Y-6109000D01*
X17526000Y-4559000D02*
X16650000Y-4559000D01*
X16650000Y-4559000D02*
X16129000Y-5080000D01*
X16129000Y-5080000D02*
X16129000Y-8001000D01*
X16129000Y-8001000D02*
X15875000Y-8255000D01*
X23749000Y-6490000D02*
X20704000Y-6490000D01*
X23749000Y-8319000D02*
X23749000Y-6490000D01*
X23749000Y-9969000D02*
X24956000Y-11176000D01*
X31750000Y-3239000D02*
X31750000Y-1651000D01*
X4826000Y-1461000D02*
X4000000Y-1461000D01*
X14224000Y-8365000D02*
X14224000Y-10160000D01*
X11684000Y-11049000D02*
X13335000Y-11049000D01*
X11684000Y-8365000D02*
X11684000Y-11049000D01*
X57613000Y-2286000D02*
X56912000Y-2987000D01*
X44958000Y-8128000D02*
X45085000Y-8001000D01*
X2159000Y-3302000D02*
X2159000Y-5715000D01*
X60579000Y-9144000D02*
X60579000Y-12403000D01*
X44958000Y-12319000D02*
X44958000Y-8128000D01*
X57912000Y-8636000D02*
X59817000Y-8636000D01*
X60579000Y-2286000D02*
X57613000Y-2286000D01*
X59931000Y-6731000D02*
X59931000Y-8522000D01*
D34*
X34290000Y-3048000D02*
X32893000Y-1651000D01*
D33*
X13335000Y-11049000D02*
X14224000Y-10160000D01*
D34*
X32893000Y-1651000D02*
X31750000Y-1651000D01*
D33*
X55245000Y-8001000D02*
X55245000Y-4654000D01*
D34*
X34290000Y-3810000D02*
X34290000Y-3048000D01*
D33*
X59931000Y-8522000D02*
X59817000Y-8636000D01*
X60592000Y-2286000D02*
X61468000Y-3162000D01*
X57150000Y-11163000D02*
X57150000Y-8636000D01*
X59817000Y-8636000D02*
X60071000Y-8636000D01*
X55880000Y-8636000D02*
X55245000Y-8001000D01*
X55245000Y-4654000D02*
X56912000Y-2987000D01*
X4000000Y-1461000D02*
X2159000Y-3302000D01*
X57912000Y-8636000D02*
X55880000Y-8636000D01*
X60071000Y-8636000D02*
X60579000Y-9144000D01*
X11684000Y-11049000D02*
X11049000Y-11049000D01*
X61529000Y-10203000D02*
X61529000Y-6779000D01*
D36*
X61529000Y-6779000D02*
X61481000Y-6731000D01*
D33*
X55041000Y-12713000D02*
X54991000Y-12763000D01*
X49276000Y-11430000D02*
X49276000Y-13589000D01*
X49276000Y-13589000D02*
X49388000Y-13701000D01*
X54991000Y-12763000D02*
X54136000Y-12763000D01*
X41260000Y-13701000D02*
X39878000Y-12319000D01*
X57150000Y-12713000D02*
X55041000Y-12713000D01*
X39878000Y-8283000D02*
X40160000Y-8001000D01*
X40195000Y-5080000D02*
X40195000Y-7966000D01*
X46086000Y-13701000D02*
X49388000Y-13701000D01*
X49388000Y-13701000D02*
X53228000Y-13701000D01*
X39878000Y-12319000D02*
X39878000Y-8283000D01*
X46086000Y-13701000D02*
X41260000Y-13701000D01*
X54136000Y-12763000D02*
X53198000Y-13701000D01*
X42863000Y-5080000D02*
X40195000Y-5080000D01*
X57150000Y-12682000D02*
X57150000Y-12713000D01*
X40195000Y-7966000D02*
X40160000Y-8001000D01*
X59629000Y-10203000D02*
X57150000Y-12682000D01*
X26924000Y-10909000D02*
X26657000Y-11176000D01*
X26924000Y-9228000D02*
X26924000Y-10909000D01*
D34*
X20676000Y-2159000D02*
X20676000Y-6468000D01*
X20676000Y-2159000D02*
X17653000Y-2159000D01*
X16764000Y-3048000D02*
X15875000Y-3048000D01*
X17653000Y-2159000D02*
X16764000Y-3048000D01*
D33*
X62822000Y-6053000D02*
X62822000Y-11745000D01*
X61529000Y-12403000D02*
X62164000Y-12403000D01*
X62164000Y-12403000D02*
X62822000Y-11745000D01*
X61455000Y-4725000D02*
X59700000Y-4725000D01*
X61468000Y-4712000D02*
X61455000Y-4725000D01*
X59563000Y-13716000D02*
X61021000Y-13716000D01*
X54737000Y-13716000D02*
X59563000Y-13716000D01*
X37338000Y-12319000D02*
X39370000Y-14351000D01*
X61481000Y-4712000D02*
X62822000Y-6053000D01*
X59629000Y-12403000D02*
X59629000Y-13650000D01*
X59629000Y-13650000D02*
X59563000Y-13716000D01*
X39370000Y-14351000D02*
X54102000Y-14351000D01*
X61468000Y-4712000D02*
X61481000Y-4712000D01*
X59700000Y-4725000D02*
X58912000Y-3937000D01*
X54102000Y-14351000D02*
X54737000Y-13716000D01*
X61529000Y-13208000D02*
X61529000Y-12403000D01*
X61021000Y-13716000D02*
X61529000Y-13208000D01*
D35*
X2159000Y-8255000D02*
X2159000Y-10763000D01*
X2159000Y-10763000D02*
X4223000Y-12827000D01*
D33*
X8509000Y-12541000D02*
X8223000Y-12827000D01*
D35*
X15875000Y-11049000D02*
X14097000Y-12827000D01*
D33*
X7493000Y-7937000D02*
X9525000Y-7937000D01*
X10541000Y-6921000D02*
X9525000Y-7937000D01*
D35*
X8223000Y-12827000D02*
X9271000Y-12827000D01*
D33*
X11684000Y-3065000D02*
X10541000Y-4208000D01*
X9525000Y-7937000D02*
X9525000Y-12573000D01*
X10541000Y-4208000D02*
X10541000Y-6921000D01*
D35*
X15875000Y-8255000D02*
X15875000Y-11049000D01*
X9271000Y-12827000D02*
X11938000Y-12827000D01*
X13716000Y-12827000D02*
X11938000Y-12827000D01*
X14097000Y-12827000D02*
X13716000Y-12827000D01*
D33*
X9525000Y-12573000D02*
X9271000Y-12827000D01*
X7493000Y-4089500D02*
X7493000Y-6287000D01*
X13102000Y-889000D02*
X9118500Y-889000D01*
X9118500Y-889000D02*
X7493000Y-2514500D01*
X14224000Y-2265000D02*
X13102000Y-889000D01*
X14224000Y-2265000D02*
X14224000Y-3065000D01*
X9525000Y-4089500D02*
X9525000Y-6287000D01*
X12503990Y-1814990D02*
X10224510Y-1814990D01*
X10224510Y-1814990D02*
X9525000Y-2514500D01*
X12954000Y-2265000D02*
X12503990Y-1814990D01*
X12954000Y-2265000D02*
X12954000Y-3065000D01*
X54356000Y-2413000D02*
X52802000Y-859000D01*
X52802000Y-859000D02*
X38638000Y-859000D01*
X38638000Y-859000D02*
X37338000Y-2159000D01*
X54356000Y-8890000D02*
X54356000Y-2413000D01*
X51816000Y-11430000D02*
X54356000Y-8890000D01*
X38545000Y-5080000D02*
X38545000Y-3492000D01*
X38545000Y-3492000D02*
X39878000Y-2159000D01*
X44958000Y-4635000D02*
X44513000Y-5080000D01*
X51816000Y-8890000D02*
X53340000Y-7366000D01*
X53340000Y-7366000D02*
X53340000Y-2794000D01*
X53340000Y-2794000D02*
X52705000Y-2159000D01*
X52705000Y-2159000D02*
X44958000Y-2159000D01*
X44958000Y-2159000D02*
X44958000Y-4635000D01*
X28194000Y-3931500D02*
X28194000Y-1656500D01*
X4826000Y-6667000D02*
X4826000Y-7747000D01*
X4953000Y-7620000D02*
X4826000Y-7747000D01*
X4826000Y-7747000D02*
X4826000Y-8573000D01*
X6223000Y-7620000D02*
X4953000Y-7620000D01*
X12954000Y-8365000D02*
X12954000Y-10033000D01*
X8636000Y-9271000D02*
X7684000Y-10223000D01*
X7684000Y-10223000D02*
X4826000Y-10223000D01*
X4826000Y-4064000D02*
X4826000Y-5017000D01*
X4826000Y-3111000D02*
X4826000Y-4064000D01*
X6096000Y-3810000D02*
X4826000Y-3810000D01*
X50546000Y-10160000D02*
X50546000Y-12446000D01*
X49276000Y-8890000D02*
X50546000Y-10160000D01*
X52705000Y-12954000D02*
X54546000Y-11113000D01*
X51054000Y-12954000D02*
X52705000Y-12954000D01*
X50546000Y-12446000D02*
X51054000Y-12954000D01*
X54546000Y-11113000D02*
X54991000Y-11113000D01*
X42418000Y-7620000D02*
X43815000Y-6223000D01*
X42418000Y-12319000D02*
X42418000Y-7620000D01*
X49149000Y-6223000D02*
X49276000Y-6350000D01*
X56261000Y-7620000D02*
X56912000Y-6969000D01*
X56912000Y-6969000D02*
X56912000Y-4887000D01*
X43815000Y-6223000D02*
X49149000Y-6223000D01*
M02*
