%TF.GenerationSoftware,KiCad,Pcbnew,6.0.11*%
%TF.CreationDate,2024-08-22T19:43:04+01:00*%
%TF.ProjectId,ESPower,4553506f-7765-4722-9e6b-696361645f70,rev?*%
%TF.SameCoordinates,PX4f54d68PY59a0560*%
%TF.FileFunction,Soldermask,Top*%
%TF.FilePolarity,Negative*%
%FSLAX46Y46*%
G04 Gerber Fmt 4.6, Leading zero omitted, Abs format (unit mm)*
G04 Created by KiCad (PCBNEW 6.0.11) date 2024-08-22 19:43:04*
%MOMM*%
%LPD*%
G01*
G04 APERTURE LIST*
G04 Aperture macros list*
%AMRoundRect*
0 Rectangle with rounded corners*
0 $1 Rounding radius*
0 $2 $3 $4 $5 $6 $7 $8 $9 X,Y pos of 4 corners*
0 Add a 4 corners polygon primitive as box body*
4,1,4,$2,$3,$4,$5,$6,$7,$8,$9,$2,$3,0*
0 Add four circle primitives for the rounded corners*
1,1,$1+$1,$2,$3*
1,1,$1+$1,$4,$5*
1,1,$1+$1,$6,$7*
1,1,$1+$1,$8,$9*
0 Add four rect primitives between the rounded corners*
20,1,$1+$1,$2,$3,$4,$5,0*
20,1,$1+$1,$4,$5,$6,$7,0*
20,1,$1+$1,$6,$7,$8,$9,0*
20,1,$1+$1,$8,$9,$2,$3,0*%
G04 Aperture macros list end*
%ADD10RoundRect,0.250000X-0.787500X-0.925000X0.787500X-0.925000X0.787500X0.925000X-0.787500X0.925000X0*%
%ADD11RoundRect,0.225000X-0.225000X-0.250000X0.225000X-0.250000X0.225000X0.250000X-0.225000X0.250000X0*%
%ADD12RoundRect,0.225000X0.250000X-0.225000X0.250000X0.225000X-0.250000X0.225000X-0.250000X-0.225000X0*%
%ADD13R,1.700000X1.700000*%
%ADD14O,1.700000X1.700000*%
%ADD15R,0.650000X1.060000*%
%ADD16R,1.500000X1.500000*%
%ADD17C,1.500000*%
%ADD18RoundRect,0.200000X0.275000X-0.200000X0.275000X0.200000X-0.275000X0.200000X-0.275000X-0.200000X0*%
%ADD19RoundRect,0.225000X0.225000X0.250000X-0.225000X0.250000X-0.225000X-0.250000X0.225000X-0.250000X0*%
%ADD20R,0.900000X0.800000*%
%ADD21R,2.500000X1.800000*%
%ADD22RoundRect,0.200000X-0.275000X0.200000X-0.275000X-0.200000X0.275000X-0.200000X0.275000X0.200000X0*%
%ADD23R,0.800000X0.900000*%
%ADD24RoundRect,0.218750X-0.256250X0.218750X-0.256250X-0.218750X0.256250X-0.218750X0.256250X0.218750X0*%
%ADD25RoundRect,0.150000X0.150000X-0.650000X0.150000X0.650000X-0.150000X0.650000X-0.150000X-0.650000X0*%
%ADD26R,3.200000X2.400000*%
%ADD27RoundRect,0.200000X0.200000X0.275000X-0.200000X0.275000X-0.200000X-0.275000X0.200000X-0.275000X0*%
%ADD28RoundRect,0.150000X-0.150000X0.512500X-0.150000X-0.512500X0.150000X-0.512500X0.150000X0.512500X0*%
%ADD29RoundRect,0.225000X-0.250000X0.225000X-0.250000X-0.225000X0.250000X-0.225000X0.250000X0.225000X0*%
%ADD30RoundRect,0.200000X-0.200000X-0.275000X0.200000X-0.275000X0.200000X0.275000X-0.200000X0.275000X0*%
G04 APERTURE END LIST*
D10*
X31446500Y-8001000D03*
X36371500Y-8001000D03*
D11*
X26657000Y-11176000D03*
X28207000Y-11176000D03*
D12*
X23749000Y-6490000D03*
X23749000Y-4940000D03*
D10*
X40160000Y-8001000D03*
X45085000Y-8001000D03*
D13*
X30988000Y-12319000D03*
D14*
X33528000Y-12319000D03*
D13*
X44958000Y-12319000D03*
D14*
X42418000Y-12319000D03*
X39878000Y-12319000D03*
X37338000Y-12319000D03*
D13*
X44958000Y-2159000D03*
D14*
X42418000Y-2159000D03*
X39878000Y-2159000D03*
X37338000Y-2159000D03*
D15*
X27874000Y-7028000D03*
X26924000Y-7028000D03*
X25974000Y-7028000D03*
X25974000Y-9228000D03*
X26924000Y-9228000D03*
X27874000Y-9228000D03*
D16*
X51816000Y-3810000D03*
D17*
X51816000Y-6350000D03*
X51816000Y-8890000D03*
X51816000Y-11430000D03*
X49276000Y-3810000D03*
X49276000Y-6350000D03*
X49276000Y-8890000D03*
X49276000Y-11430000D03*
D13*
X23216000Y-2159000D03*
D14*
X20676000Y-2159000D03*
D12*
X61468000Y-4712000D03*
X61468000Y-3162000D03*
D18*
X54991000Y-12763000D03*
X54991000Y-11113000D03*
D19*
X61481000Y-6731000D03*
X59931000Y-6731000D03*
D15*
X59629000Y-12403000D03*
X60579000Y-12403000D03*
X61529000Y-12403000D03*
X61529000Y-10203000D03*
X59629000Y-10203000D03*
D20*
X56912000Y-2987000D03*
X56912000Y-4887000D03*
X58912000Y-3937000D03*
D21*
X24225000Y-12827000D03*
X20225000Y-12827000D03*
D22*
X23749000Y-8319000D03*
X23749000Y-9969000D03*
D23*
X19751000Y-8493000D03*
X21651000Y-8493000D03*
X20701000Y-6493000D03*
D24*
X7493000Y-2514500D03*
X7493000Y-4089500D03*
D18*
X4826000Y-3111000D03*
X4826000Y-1461000D03*
X9525000Y-7937000D03*
X9525000Y-6287000D03*
X7493000Y-7937000D03*
X7493000Y-6287000D03*
D24*
X9525000Y-2514500D03*
X9525000Y-4089500D03*
D25*
X11684000Y-8365000D03*
X12954000Y-8365000D03*
X14224000Y-8365000D03*
X15494000Y-8365000D03*
X15494000Y-3065000D03*
X14224000Y-3065000D03*
X12954000Y-3065000D03*
X11684000Y-3065000D03*
D26*
X13589000Y-5715000D03*
D18*
X4826000Y-6667000D03*
X4826000Y-5017000D03*
X4826000Y-10223000D03*
X4826000Y-8573000D03*
D21*
X8223000Y-12827000D03*
X4223000Y-12827000D03*
D13*
X2159000Y-5715000D03*
D14*
X2159000Y-8255000D03*
D18*
X31750000Y-4889000D03*
X31750000Y-3239000D03*
X17526000Y-10731000D03*
X17526000Y-9081000D03*
D27*
X40195000Y-5080000D03*
X38545000Y-5080000D03*
D28*
X29144000Y-1656500D03*
X28194000Y-1656500D03*
X27244000Y-1656500D03*
X27244000Y-3931500D03*
X28194000Y-3931500D03*
X29144000Y-3931500D03*
D29*
X17526000Y-4559000D03*
X17526000Y-6109000D03*
D12*
X57150000Y-12713000D03*
X57150000Y-11163000D03*
D30*
X42863000Y-5080000D03*
X44513000Y-5080000D03*
M02*
