%TF.GenerationSoftware,KiCad,Pcbnew,6.0.11*%
%TF.CreationDate,2024-08-22T19:43:04+01:00*%
%TF.ProjectId,ESPower,4553506f-7765-4722-9e6b-696361645f70,rev?*%
%TF.SameCoordinates,PX4f54d68PY59a0560*%
%TF.FileFunction,Legend,Bot*%
%TF.FilePolarity,Positive*%
%FSLAX46Y46*%
G04 Gerber Fmt 4.6, Leading zero omitted, Abs format (unit mm)*
G04 Created by KiCad (PCBNEW 6.0.11) date 2024-08-22 19:43:04*
%MOMM*%
%LPD*%
G01*
G04 APERTURE LIST*
G04 Aperture macros list*
%AMFreePoly0*
4,1,6,1.000000,0.000000,0.500000,-0.750000,-0.500000,-0.750000,-0.500000,0.750000,0.500000,0.750000,1.000000,0.000000,1.000000,0.000000,$1*%
%AMFreePoly1*
4,1,6,0.500000,-0.750000,-0.650000,-0.750000,-0.150000,0.000000,-0.650000,0.750000,0.500000,0.750000,0.500000,-0.750000,0.500000,-0.750000,$1*%
G04 Aperture macros list end*
%ADD10C,0.120000*%
%ADD11C,0.150000*%
%ADD12C,0.130000*%
%ADD13C,0.250000*%
%ADD14R,1.700000X1.700000*%
%ADD15O,1.700000X1.700000*%
%ADD16R,1.500000X1.500000*%
%ADD17C,1.500000*%
%ADD18FreePoly0,0.000000*%
%ADD19FreePoly1,0.000000*%
%ADD20FreePoly0,180.000000*%
%ADD21FreePoly1,180.000000*%
G04 APERTURE END LIST*
D10*
X14732000Y-1270000D02*
X14732000Y-9144000D01*
X18923000Y-2667000D02*
X8382000Y-2667000D01*
X17272000Y-1270000D02*
X17272000Y-9144000D01*
D11*
X42369737Y-10610065D02*
X42255731Y-10296834D01*
X41714651Y-10341745D02*
X41877517Y-10789218D01*
X42817210Y-10447198D01*
X42654343Y-9999725D01*
X42194532Y-9711007D02*
X41568071Y-9939020D01*
X42105038Y-9743580D02*
X42133498Y-9682546D01*
X42145672Y-9576765D01*
X42096812Y-9442523D01*
X42019492Y-9369315D01*
X41913711Y-9357141D01*
X41421491Y-9536295D01*
X41112044Y-8686097D02*
X41604264Y-8506943D01*
X41710045Y-8519117D01*
X41787366Y-8592325D01*
X41852512Y-8771314D01*
X41840338Y-8877095D01*
X41156791Y-8669810D02*
X41144617Y-8775591D01*
X41226051Y-8999327D01*
X41303371Y-9072535D01*
X41409152Y-9084709D01*
X41498647Y-9052136D01*
X41571855Y-8974815D01*
X41584029Y-8869034D01*
X41502595Y-8645298D01*
X41514769Y-8539516D01*
X40949177Y-8238624D02*
X41888870Y-7896604D01*
X41530892Y-8026897D02*
X41543065Y-7921116D01*
X41477919Y-7742127D01*
X41400598Y-7668919D01*
X41339564Y-7640458D01*
X41233783Y-7628284D01*
X40965299Y-7726004D01*
X40892092Y-7803325D01*
X40863631Y-7864359D01*
X40851457Y-7970140D01*
X40916604Y-8149129D01*
X40993924Y-8222337D01*
X40590870Y-7254184D02*
X40668191Y-7327392D01*
X40773972Y-7339566D01*
X41579423Y-7046406D01*
X40375031Y-6521941D02*
X40362857Y-6627722D01*
X40428004Y-6806711D01*
X40505324Y-6879919D01*
X40611105Y-6892093D01*
X40969083Y-6761800D01*
X41042291Y-6684479D01*
X41054465Y-6578698D01*
X40989319Y-6399709D01*
X40911998Y-6326501D01*
X40806217Y-6314327D01*
X40716722Y-6346900D01*
X40790094Y-6826946D01*
X10270619Y-13279380D02*
X10270619Y-12279380D01*
X9889666Y-12279380D01*
X9794428Y-12327000D01*
X9746809Y-12374619D01*
X9699190Y-12469857D01*
X9699190Y-12612714D01*
X9746809Y-12707952D01*
X9794428Y-12755571D01*
X9889666Y-12803190D01*
X10270619Y-12803190D01*
X9127761Y-13279380D02*
X9223000Y-13231761D01*
X9270619Y-13184142D01*
X9318238Y-13088904D01*
X9318238Y-12803190D01*
X9270619Y-12707952D01*
X9223000Y-12660333D01*
X9127761Y-12612714D01*
X8984904Y-12612714D01*
X8889666Y-12660333D01*
X8842047Y-12707952D01*
X8794428Y-12803190D01*
X8794428Y-13088904D01*
X8842047Y-13184142D01*
X8889666Y-13231761D01*
X8984904Y-13279380D01*
X9127761Y-13279380D01*
X8461095Y-12612714D02*
X8270619Y-13279380D01*
X8080142Y-12803190D01*
X7889666Y-13279380D01*
X7699190Y-12612714D01*
X6937285Y-13231761D02*
X7032523Y-13279380D01*
X7223000Y-13279380D01*
X7318238Y-13231761D01*
X7365857Y-13136523D01*
X7365857Y-12755571D01*
X7318238Y-12660333D01*
X7223000Y-12612714D01*
X7032523Y-12612714D01*
X6937285Y-12660333D01*
X6889666Y-12755571D01*
X6889666Y-12850809D01*
X7365857Y-12946047D01*
X6461095Y-13279380D02*
X6461095Y-12612714D01*
X6461095Y-12803190D02*
X6413476Y-12707952D01*
X6365857Y-12660333D01*
X6270619Y-12612714D01*
X6175380Y-12612714D01*
X5080142Y-13279380D02*
X5080142Y-12279380D01*
X4699190Y-12279380D01*
X4603952Y-12327000D01*
X4556333Y-12374619D01*
X4508714Y-12469857D01*
X4508714Y-12612714D01*
X4556333Y-12707952D01*
X4603952Y-12755571D01*
X4699190Y-12803190D01*
X5080142Y-12803190D01*
X3651571Y-13279380D02*
X3651571Y-12755571D01*
X3699190Y-12660333D01*
X3794428Y-12612714D01*
X3984904Y-12612714D01*
X4080142Y-12660333D01*
X3651571Y-13231761D02*
X3746809Y-13279380D01*
X3984904Y-13279380D01*
X4080142Y-13231761D01*
X4127761Y-13136523D01*
X4127761Y-13041285D01*
X4080142Y-12946047D01*
X3984904Y-12898428D01*
X3746809Y-12898428D01*
X3651571Y-12850809D01*
X3318238Y-12612714D02*
X2937285Y-12612714D01*
X3175380Y-12279380D02*
X3175380Y-13136523D01*
X3127761Y-13231761D01*
X3032523Y-13279380D01*
X2937285Y-13279380D01*
X2603952Y-13279380D02*
X2603952Y-12279380D01*
X2175380Y-13279380D02*
X2175380Y-12755571D01*
X2223000Y-12660333D01*
X2318238Y-12612714D01*
X2461095Y-12612714D01*
X2556333Y-12660333D01*
X2603952Y-12707952D01*
X37927620Y-10590626D02*
X36873921Y-10619416D01*
X37699607Y-9964165D01*
X36539962Y-9423413D02*
X36511501Y-9484447D01*
X36515614Y-9634976D01*
X36548187Y-9724470D01*
X36641794Y-9842425D01*
X36763862Y-9899346D01*
X36869644Y-9911520D01*
X37064919Y-9891121D01*
X37199161Y-9842261D01*
X37361863Y-9732367D01*
X37435071Y-9655046D01*
X37491993Y-9532978D01*
X37487880Y-9382450D01*
X37455306Y-9292955D01*
X37361699Y-9175000D01*
X37300665Y-9146540D01*
X36197941Y-8483721D02*
X36169481Y-8544755D01*
X36173594Y-8695283D01*
X36206167Y-8784778D01*
X36299774Y-8902733D01*
X36421842Y-8959654D01*
X36527623Y-8971828D01*
X36722899Y-8951428D01*
X36857141Y-8902568D01*
X37019843Y-8792674D01*
X37093051Y-8715354D01*
X37149972Y-8593286D01*
X37145860Y-8442757D01*
X37113286Y-8353263D01*
X37019679Y-8235308D01*
X36958645Y-8206847D01*
X7421571Y-3484571D02*
X7278714Y-3532190D01*
X7231095Y-3579809D01*
X7183476Y-3675047D01*
X7183476Y-3817904D01*
X7231095Y-3913142D01*
X7278714Y-3960761D01*
X7373952Y-4008380D01*
X7754904Y-4008380D01*
X7754904Y-3008380D01*
X7421571Y-3008380D01*
X7326333Y-3056000D01*
X7278714Y-3103619D01*
X7231095Y-3198857D01*
X7231095Y-3294095D01*
X7278714Y-3389333D01*
X7326333Y-3436952D01*
X7421571Y-3484571D01*
X7754904Y-3484571D01*
X27495380Y-2214571D02*
X27352523Y-2262190D01*
X27304904Y-2309809D01*
X27257285Y-2405047D01*
X27257285Y-2547904D01*
X27304904Y-2643142D01*
X27352523Y-2690761D01*
X27447761Y-2738380D01*
X27828714Y-2738380D01*
X27828714Y-1738380D01*
X27495380Y-1738380D01*
X27400142Y-1786000D01*
X27352523Y-1833619D01*
X27304904Y-1928857D01*
X27304904Y-2024095D01*
X27352523Y-2119333D01*
X27400142Y-2166952D01*
X27495380Y-2214571D01*
X27828714Y-2214571D01*
X26400142Y-2738380D02*
X26400142Y-2214571D01*
X26447761Y-2119333D01*
X26543000Y-2071714D01*
X26733476Y-2071714D01*
X26828714Y-2119333D01*
X26400142Y-2690761D02*
X26495380Y-2738380D01*
X26733476Y-2738380D01*
X26828714Y-2690761D01*
X26876333Y-2595523D01*
X26876333Y-2500285D01*
X26828714Y-2405047D01*
X26733476Y-2357428D01*
X26495380Y-2357428D01*
X26400142Y-2309809D01*
X26066809Y-2071714D02*
X25685857Y-2071714D01*
X25923952Y-1738380D02*
X25923952Y-2595523D01*
X25876333Y-2690761D01*
X25781095Y-2738380D01*
X25685857Y-2738380D01*
X25495380Y-2071714D02*
X25114428Y-2071714D01*
X25352523Y-1738380D02*
X25352523Y-2595523D01*
X25304904Y-2690761D01*
X25209666Y-2738380D01*
X25114428Y-2738380D01*
X23494952Y-4008428D02*
X22733047Y-4008428D01*
X2920904Y-2548000D02*
X3016142Y-2500380D01*
X3159000Y-2500380D01*
X3301857Y-2548000D01*
X3397095Y-2643238D01*
X3444714Y-2738476D01*
X3492333Y-2928952D01*
X3492333Y-3071809D01*
X3444714Y-3262285D01*
X3397095Y-3357523D01*
X3301857Y-3452761D01*
X3159000Y-3500380D01*
X3063761Y-3500380D01*
X2920904Y-3452761D01*
X2873285Y-3405142D01*
X2873285Y-3071809D01*
X3063761Y-3071809D01*
X2444714Y-3500380D02*
X2444714Y-2500380D01*
X1873285Y-3500380D01*
X1873285Y-2500380D01*
X1397095Y-3500380D02*
X1397095Y-2500380D01*
X1159000Y-2500380D01*
X1016142Y-2548000D01*
X920904Y-2643238D01*
X873285Y-2738476D01*
X825666Y-2928952D01*
X825666Y-3071809D01*
X873285Y-3262285D01*
X920904Y-3357523D01*
X1016142Y-3452761D01*
X1159000Y-3500380D01*
X1397095Y-3500380D01*
X7731095Y-7659666D02*
X7254904Y-7659666D01*
X7826333Y-7945380D02*
X7493000Y-6945380D01*
X7159666Y-7945380D01*
X37316774Y-6122426D02*
X37878253Y-6272791D01*
X37512214Y-6659394D02*
X38451907Y-6317374D01*
X38321613Y-5959395D01*
X38244293Y-5886188D01*
X38183259Y-5857727D01*
X38077477Y-5845553D01*
X37943236Y-5894413D01*
X37870028Y-5971734D01*
X37841567Y-6032768D01*
X37829393Y-6138549D01*
X37959687Y-6496527D01*
X37202767Y-5809196D02*
X37650076Y-5088962D01*
X37829229Y-5581182D02*
X37023614Y-5316976D01*
X36982815Y-4926424D02*
X36921781Y-4897964D01*
X36893320Y-4958997D01*
X36954354Y-4987458D01*
X36982815Y-4926424D01*
X36893320Y-4958997D01*
X37702720Y-4258999D02*
X37490993Y-3677285D01*
X37247021Y-4120809D01*
X37198161Y-3986567D01*
X37120841Y-3913359D01*
X37059807Y-3884899D01*
X36954026Y-3872725D01*
X36730289Y-3954158D01*
X36657081Y-4031479D01*
X36628621Y-4092513D01*
X36616447Y-4198294D01*
X36714167Y-4466778D01*
X36791488Y-4539985D01*
X36852522Y-4568446D01*
X45361880Y-3794450D02*
X45329306Y-3704955D01*
X45251986Y-3631748D01*
X45190952Y-3603287D01*
X45085171Y-3591113D01*
X44889895Y-3611513D01*
X44666159Y-3692946D01*
X44503456Y-3802840D01*
X44430248Y-3880160D01*
X44401788Y-3941194D01*
X44389614Y-4046976D01*
X44422187Y-4136470D01*
X44499508Y-4209678D01*
X44560542Y-4238139D01*
X44666323Y-4250313D01*
X44861599Y-4229913D01*
X45085335Y-4148480D01*
X45248037Y-4038586D01*
X45321245Y-3961265D01*
X45349706Y-3900231D01*
X45361880Y-3794450D01*
X45307433Y-10069946D02*
X45384753Y-10143154D01*
X45433613Y-10277395D01*
X45437726Y-10427924D01*
X45380805Y-10549992D01*
X45307597Y-10627312D01*
X45144895Y-10737206D01*
X45010653Y-10786066D01*
X44815377Y-10806466D01*
X44709596Y-10794292D01*
X44587528Y-10737371D01*
X44493921Y-10619416D01*
X44461347Y-10529921D01*
X44457235Y-10379393D01*
X44485695Y-10318359D01*
X44798926Y-10204352D01*
X44864073Y-10383341D01*
X44249620Y-9948207D02*
X45189313Y-9606186D01*
X44054180Y-9411239D01*
X44993873Y-9069219D01*
X43891314Y-8963767D02*
X44831006Y-8621746D01*
X44749573Y-8398010D01*
X44655966Y-8280055D01*
X44533898Y-8223134D01*
X44428117Y-8210960D01*
X44232841Y-8231359D01*
X44098599Y-8280219D01*
X43935897Y-8390113D01*
X43862689Y-8467434D01*
X43805768Y-8589502D01*
X43809880Y-8740030D01*
X43891314Y-8963767D01*
X18523928Y-3133380D02*
X18428690Y-3133380D01*
X18333452Y-3181000D01*
X18285833Y-3228619D01*
X18238214Y-3323857D01*
X18190595Y-3514333D01*
X18190595Y-3752428D01*
X18238214Y-3942904D01*
X18285833Y-4038142D01*
X18333452Y-4085761D01*
X18428690Y-4133380D01*
X18523928Y-4133380D01*
X18619166Y-4085761D01*
X18666785Y-4038142D01*
X18714404Y-3942904D01*
X18762023Y-3752428D01*
X18762023Y-3514333D01*
X18714404Y-3323857D01*
X18666785Y-3228619D01*
X18619166Y-3181000D01*
X18523928Y-3133380D01*
X16047738Y-3133380D02*
X15952500Y-3133380D01*
X15857261Y-3181000D01*
X15809642Y-3228619D01*
X15762023Y-3323857D01*
X15714404Y-3514333D01*
X15714404Y-3752428D01*
X15762023Y-3942904D01*
X15809642Y-4038142D01*
X15857261Y-4085761D01*
X15952500Y-4133380D01*
X16047738Y-4133380D01*
X16142976Y-4085761D01*
X16190595Y-4038142D01*
X16238214Y-3942904D01*
X16285833Y-3752428D01*
X16285833Y-3514333D01*
X16238214Y-3323857D01*
X16190595Y-3228619D01*
X16142976Y-3181000D01*
X16047738Y-3133380D01*
X13809642Y-3228619D02*
X13762023Y-3181000D01*
X13666785Y-3133380D01*
X13428690Y-3133380D01*
X13333452Y-3181000D01*
X13285833Y-3228619D01*
X13238214Y-3323857D01*
X13238214Y-3419095D01*
X13285833Y-3561952D01*
X13857261Y-4133380D01*
X13238214Y-4133380D01*
X12333452Y-3133380D02*
X12809642Y-3133380D01*
X12857261Y-3609571D01*
X12809642Y-3561952D01*
X12714404Y-3514333D01*
X12476309Y-3514333D01*
X12381071Y-3561952D01*
X12333452Y-3609571D01*
X12285833Y-3704809D01*
X12285833Y-3942904D01*
X12333452Y-4038142D01*
X12381071Y-4085761D01*
X12476309Y-4133380D01*
X12714404Y-4133380D01*
X12809642Y-4085761D01*
X12857261Y-4038142D01*
X11666785Y-3133380D02*
X11571547Y-3133380D01*
X11476309Y-3181000D01*
X11428690Y-3228619D01*
X11381071Y-3323857D01*
X11333452Y-3514333D01*
X11333452Y-3752428D01*
X11381071Y-3942904D01*
X11428690Y-4038142D01*
X11476309Y-4085761D01*
X11571547Y-4133380D01*
X11666785Y-4133380D01*
X11762023Y-4085761D01*
X11809642Y-4038142D01*
X11857261Y-3942904D01*
X11904880Y-3752428D01*
X11904880Y-3514333D01*
X11857261Y-3323857D01*
X11809642Y-3228619D01*
X11762023Y-3181000D01*
X11666785Y-3133380D01*
X10904880Y-4133380D02*
X10904880Y-3466714D01*
X10904880Y-3561952D02*
X10857261Y-3514333D01*
X10762023Y-3466714D01*
X10619166Y-3466714D01*
X10523928Y-3514333D01*
X10476309Y-3609571D01*
X10476309Y-4133380D01*
X10476309Y-3609571D02*
X10428690Y-3514333D01*
X10333452Y-3466714D01*
X10190595Y-3466714D01*
X10095357Y-3514333D01*
X10047738Y-3609571D01*
X10047738Y-4133380D01*
X9619166Y-3847666D02*
X9142976Y-3847666D01*
X9714404Y-4133380D02*
X9381071Y-3133380D01*
X9047738Y-4133380D01*
X18523928Y-4743380D02*
X18428690Y-4743380D01*
X18333452Y-4791000D01*
X18285833Y-4838619D01*
X18238214Y-4933857D01*
X18190595Y-5124333D01*
X18190595Y-5362428D01*
X18238214Y-5552904D01*
X18285833Y-5648142D01*
X18333452Y-5695761D01*
X18428690Y-5743380D01*
X18523928Y-5743380D01*
X18619166Y-5695761D01*
X18666785Y-5648142D01*
X18714404Y-5552904D01*
X18762023Y-5362428D01*
X18762023Y-5124333D01*
X18714404Y-4933857D01*
X18666785Y-4838619D01*
X18619166Y-4791000D01*
X18523928Y-4743380D01*
X15714404Y-5743380D02*
X16285833Y-5743380D01*
X16000119Y-5743380D02*
X16000119Y-4743380D01*
X16095357Y-4886238D01*
X16190595Y-4981476D01*
X16285833Y-5029095D01*
X13857261Y-4743380D02*
X13238214Y-4743380D01*
X13571547Y-5124333D01*
X13428690Y-5124333D01*
X13333452Y-5171952D01*
X13285833Y-5219571D01*
X13238214Y-5314809D01*
X13238214Y-5552904D01*
X13285833Y-5648142D01*
X13333452Y-5695761D01*
X13428690Y-5743380D01*
X13714404Y-5743380D01*
X13809642Y-5695761D01*
X13857261Y-5648142D01*
X12904880Y-4743380D02*
X12285833Y-4743380D01*
X12619166Y-5124333D01*
X12476309Y-5124333D01*
X12381071Y-5171952D01*
X12333452Y-5219571D01*
X12285833Y-5314809D01*
X12285833Y-5552904D01*
X12333452Y-5648142D01*
X12381071Y-5695761D01*
X12476309Y-5743380D01*
X12762023Y-5743380D01*
X12857261Y-5695761D01*
X12904880Y-5648142D01*
X11666785Y-4743380D02*
X11571547Y-4743380D01*
X11476309Y-4791000D01*
X11428690Y-4838619D01*
X11381071Y-4933857D01*
X11333452Y-5124333D01*
X11333452Y-5362428D01*
X11381071Y-5552904D01*
X11428690Y-5648142D01*
X11476309Y-5695761D01*
X11571547Y-5743380D01*
X11666785Y-5743380D01*
X11762023Y-5695761D01*
X11809642Y-5648142D01*
X11857261Y-5552904D01*
X11904880Y-5362428D01*
X11904880Y-5124333D01*
X11857261Y-4933857D01*
X11809642Y-4838619D01*
X11762023Y-4791000D01*
X11666785Y-4743380D01*
X10904880Y-5743380D02*
X10904880Y-5076714D01*
X10904880Y-5171952D02*
X10857261Y-5124333D01*
X10762023Y-5076714D01*
X10619166Y-5076714D01*
X10523928Y-5124333D01*
X10476309Y-5219571D01*
X10476309Y-5743380D01*
X10476309Y-5219571D02*
X10428690Y-5124333D01*
X10333452Y-5076714D01*
X10190595Y-5076714D01*
X10095357Y-5124333D01*
X10047738Y-5219571D01*
X10047738Y-5743380D01*
X9619166Y-5457666D02*
X9142976Y-5457666D01*
X9714404Y-5743380D02*
X9381071Y-4743380D01*
X9047738Y-5743380D01*
X18190595Y-7353380D02*
X18762023Y-7353380D01*
X18476309Y-7353380D02*
X18476309Y-6353380D01*
X18571547Y-6496238D01*
X18666785Y-6591476D01*
X18762023Y-6639095D01*
X16047738Y-6353380D02*
X15952500Y-6353380D01*
X15857261Y-6401000D01*
X15809642Y-6448619D01*
X15762023Y-6543857D01*
X15714404Y-6734333D01*
X15714404Y-6972428D01*
X15762023Y-7162904D01*
X15809642Y-7258142D01*
X15857261Y-7305761D01*
X15952500Y-7353380D01*
X16047738Y-7353380D01*
X16142976Y-7305761D01*
X16190595Y-7258142D01*
X16238214Y-7162904D01*
X16285833Y-6972428D01*
X16285833Y-6734333D01*
X16238214Y-6543857D01*
X16190595Y-6448619D01*
X16142976Y-6401000D01*
X16047738Y-6353380D01*
X13285833Y-6353380D02*
X13762023Y-6353380D01*
X13809642Y-6829571D01*
X13762023Y-6781952D01*
X13666785Y-6734333D01*
X13428690Y-6734333D01*
X13333452Y-6781952D01*
X13285833Y-6829571D01*
X13238214Y-6924809D01*
X13238214Y-7162904D01*
X13285833Y-7258142D01*
X13333452Y-7305761D01*
X13428690Y-7353380D01*
X13666785Y-7353380D01*
X13762023Y-7305761D01*
X13809642Y-7258142D01*
X12619166Y-6353380D02*
X12523928Y-6353380D01*
X12428690Y-6401000D01*
X12381071Y-6448619D01*
X12333452Y-6543857D01*
X12285833Y-6734333D01*
X12285833Y-6972428D01*
X12333452Y-7162904D01*
X12381071Y-7258142D01*
X12428690Y-7305761D01*
X12523928Y-7353380D01*
X12619166Y-7353380D01*
X12714404Y-7305761D01*
X12762023Y-7258142D01*
X12809642Y-7162904D01*
X12857261Y-6972428D01*
X12857261Y-6734333D01*
X12809642Y-6543857D01*
X12762023Y-6448619D01*
X12714404Y-6401000D01*
X12619166Y-6353380D01*
X11666785Y-6353380D02*
X11571547Y-6353380D01*
X11476309Y-6401000D01*
X11428690Y-6448619D01*
X11381071Y-6543857D01*
X11333452Y-6734333D01*
X11333452Y-6972428D01*
X11381071Y-7162904D01*
X11428690Y-7258142D01*
X11476309Y-7305761D01*
X11571547Y-7353380D01*
X11666785Y-7353380D01*
X11762023Y-7305761D01*
X11809642Y-7258142D01*
X11857261Y-7162904D01*
X11904880Y-6972428D01*
X11904880Y-6734333D01*
X11857261Y-6543857D01*
X11809642Y-6448619D01*
X11762023Y-6401000D01*
X11666785Y-6353380D01*
X10904880Y-7353380D02*
X10904880Y-6686714D01*
X10904880Y-6781952D02*
X10857261Y-6734333D01*
X10762023Y-6686714D01*
X10619166Y-6686714D01*
X10523928Y-6734333D01*
X10476309Y-6829571D01*
X10476309Y-7353380D01*
X10476309Y-6829571D02*
X10428690Y-6734333D01*
X10333452Y-6686714D01*
X10190595Y-6686714D01*
X10095357Y-6734333D01*
X10047738Y-6829571D01*
X10047738Y-7353380D01*
X9619166Y-7067666D02*
X9142976Y-7067666D01*
X9714404Y-7353380D02*
X9381071Y-6353380D01*
X9047738Y-7353380D01*
X18190595Y-8963380D02*
X18762023Y-8963380D01*
X18476309Y-8963380D02*
X18476309Y-7963380D01*
X18571547Y-8106238D01*
X18666785Y-8201476D01*
X18762023Y-8249095D01*
X15714404Y-8963380D02*
X16285833Y-8963380D01*
X16000119Y-8963380D02*
X16000119Y-7963380D01*
X16095357Y-8106238D01*
X16190595Y-8201476D01*
X16285833Y-8249095D01*
X13238214Y-8963380D02*
X13809642Y-8963380D01*
X13523928Y-8963380D02*
X13523928Y-7963380D01*
X13619166Y-8106238D01*
X13714404Y-8201476D01*
X13809642Y-8249095D01*
X12857261Y-8677666D02*
X12381071Y-8677666D01*
X12952500Y-8963380D02*
X12619166Y-7963380D01*
X12285833Y-8963380D01*
D12*
X26750642Y-10728904D02*
X26598261Y-10728904D01*
X26522071Y-10767000D01*
X26445880Y-10843190D01*
X26407785Y-10995571D01*
X26407785Y-11262238D01*
X26445880Y-11414619D01*
X26522071Y-11490809D01*
X26598261Y-11528904D01*
X26750642Y-11528904D01*
X26826833Y-11490809D01*
X26903023Y-11414619D01*
X26941119Y-11262238D01*
X26941119Y-10995571D01*
X26903023Y-10843190D01*
X26826833Y-10767000D01*
X26750642Y-10728904D01*
X26064928Y-10995571D02*
X26064928Y-11528904D01*
X26064928Y-11071761D02*
X26026833Y-11033666D01*
X25950642Y-10995571D01*
X25836357Y-10995571D01*
X25760166Y-11033666D01*
X25722071Y-11109857D01*
X25722071Y-11528904D01*
X25341119Y-11452714D02*
X25303023Y-11490809D01*
X25341119Y-11528904D01*
X25379214Y-11490809D01*
X25341119Y-11452714D01*
X25341119Y-11528904D01*
X25341119Y-11033666D02*
X25303023Y-11071761D01*
X25341119Y-11109857D01*
X25379214Y-11071761D01*
X25341119Y-11033666D01*
X25341119Y-11109857D01*
X24464928Y-10728904D02*
X24198261Y-11528904D01*
X23931595Y-10728904D01*
X23207785Y-11452714D02*
X23245880Y-11490809D01*
X23360166Y-11528904D01*
X23436357Y-11528904D01*
X23550642Y-11490809D01*
X23626833Y-11414619D01*
X23664928Y-11338428D01*
X23703023Y-11186047D01*
X23703023Y-11071761D01*
X23664928Y-10919380D01*
X23626833Y-10843190D01*
X23550642Y-10767000D01*
X23436357Y-10728904D01*
X23360166Y-10728904D01*
X23245880Y-10767000D01*
X23207785Y-10805095D01*
X22407785Y-11452714D02*
X22445880Y-11490809D01*
X22560166Y-11528904D01*
X22636357Y-11528904D01*
X22750642Y-11490809D01*
X22826833Y-11414619D01*
X22864928Y-11338428D01*
X22903023Y-11186047D01*
X22903023Y-11071761D01*
X22864928Y-10919380D01*
X22826833Y-10843190D01*
X22750642Y-10767000D01*
X22636357Y-10728904D01*
X22560166Y-10728904D01*
X22445880Y-10767000D01*
X22407785Y-10805095D01*
X22064928Y-11109857D02*
X21455404Y-11109857D01*
X21455404Y-11338428D02*
X22064928Y-11338428D01*
X21074452Y-11528904D02*
X21074452Y-10728904D01*
X20693500Y-10995571D02*
X20693500Y-11528904D01*
X20693500Y-11071761D02*
X20655404Y-11033666D01*
X20579214Y-10995571D01*
X20464928Y-10995571D01*
X20388738Y-11033666D01*
X20350642Y-11109857D01*
X20350642Y-11528904D01*
X19969690Y-10995571D02*
X19969690Y-11795571D01*
X19969690Y-11033666D02*
X19893500Y-10995571D01*
X19741119Y-10995571D01*
X19664928Y-11033666D01*
X19626833Y-11071761D01*
X19588738Y-11147952D01*
X19588738Y-11376523D01*
X19626833Y-11452714D01*
X19664928Y-11490809D01*
X19741119Y-11528904D01*
X19893500Y-11528904D01*
X19969690Y-11490809D01*
X18903023Y-10995571D02*
X18903023Y-11528904D01*
X19245880Y-10995571D02*
X19245880Y-11414619D01*
X19207785Y-11490809D01*
X19131595Y-11528904D01*
X19017309Y-11528904D01*
X18941119Y-11490809D01*
X18903023Y-11452714D01*
X18636357Y-10995571D02*
X18331595Y-10995571D01*
X18522071Y-10728904D02*
X18522071Y-11414619D01*
X18483976Y-11490809D01*
X18407785Y-11528904D01*
X18331595Y-11528904D01*
X17874452Y-11795571D02*
X17874452Y-10652714D01*
X17036357Y-11109857D02*
X16922071Y-11147952D01*
X16883976Y-11186047D01*
X16845880Y-11262238D01*
X16845880Y-11376523D01*
X16883976Y-11452714D01*
X16922071Y-11490809D01*
X16998261Y-11528904D01*
X17303023Y-11528904D01*
X17303023Y-10728904D01*
X17036357Y-10728904D01*
X16960166Y-10767000D01*
X16922071Y-10805095D01*
X16883976Y-10881285D01*
X16883976Y-10957476D01*
X16922071Y-11033666D01*
X16960166Y-11071761D01*
X17036357Y-11109857D01*
X17303023Y-11109857D01*
X16160166Y-11528904D02*
X16160166Y-11109857D01*
X16198261Y-11033666D01*
X16274452Y-10995571D01*
X16426833Y-10995571D01*
X16503023Y-11033666D01*
X16160166Y-11490809D02*
X16236357Y-11528904D01*
X16426833Y-11528904D01*
X16503023Y-11490809D01*
X16541119Y-11414619D01*
X16541119Y-11338428D01*
X16503023Y-11262238D01*
X16426833Y-11224142D01*
X16236357Y-11224142D01*
X16160166Y-11186047D01*
X15893500Y-10995571D02*
X15588738Y-10995571D01*
X15779214Y-10728904D02*
X15779214Y-11414619D01*
X15741119Y-11490809D01*
X15664928Y-11528904D01*
X15588738Y-11528904D01*
X15436357Y-10995571D02*
X15131595Y-10995571D01*
X15322071Y-10728904D02*
X15322071Y-11414619D01*
X15283976Y-11490809D01*
X15207785Y-11528904D01*
X15131595Y-11528904D01*
X26750642Y-12016904D02*
X26598261Y-12016904D01*
X26522071Y-12055000D01*
X26445880Y-12131190D01*
X26407785Y-12283571D01*
X26407785Y-12550238D01*
X26445880Y-12702619D01*
X26522071Y-12778809D01*
X26598261Y-12816904D01*
X26750642Y-12816904D01*
X26826833Y-12778809D01*
X26903023Y-12702619D01*
X26941119Y-12550238D01*
X26941119Y-12283571D01*
X26903023Y-12131190D01*
X26826833Y-12055000D01*
X26750642Y-12016904D01*
X26179214Y-12283571D02*
X25874452Y-12283571D01*
X26064928Y-12816904D02*
X26064928Y-12131190D01*
X26026833Y-12055000D01*
X25950642Y-12016904D01*
X25874452Y-12016904D01*
X25722071Y-12283571D02*
X25417309Y-12283571D01*
X25607785Y-12816904D02*
X25607785Y-12131190D01*
X25569690Y-12055000D01*
X25493500Y-12016904D01*
X25417309Y-12016904D01*
X25150642Y-12740714D02*
X25112547Y-12778809D01*
X25150642Y-12816904D01*
X25188738Y-12778809D01*
X25150642Y-12740714D01*
X25150642Y-12816904D01*
X25150642Y-12321666D02*
X25112547Y-12359761D01*
X25150642Y-12397857D01*
X25188738Y-12359761D01*
X25150642Y-12321666D01*
X25150642Y-12397857D01*
X24274452Y-12016904D02*
X24007785Y-12816904D01*
X23741119Y-12016904D01*
X23017309Y-12740714D02*
X23055404Y-12778809D01*
X23169690Y-12816904D01*
X23245880Y-12816904D01*
X23360166Y-12778809D01*
X23436357Y-12702619D01*
X23474452Y-12626428D01*
X23512547Y-12474047D01*
X23512547Y-12359761D01*
X23474452Y-12207380D01*
X23436357Y-12131190D01*
X23360166Y-12055000D01*
X23245880Y-12016904D01*
X23169690Y-12016904D01*
X23055404Y-12055000D01*
X23017309Y-12093095D01*
X22217309Y-12740714D02*
X22255404Y-12778809D01*
X22369690Y-12816904D01*
X22445880Y-12816904D01*
X22560166Y-12778809D01*
X22636357Y-12702619D01*
X22674452Y-12626428D01*
X22712547Y-12474047D01*
X22712547Y-12359761D01*
X22674452Y-12207380D01*
X22636357Y-12131190D01*
X22560166Y-12055000D01*
X22445880Y-12016904D01*
X22369690Y-12016904D01*
X22255404Y-12055000D01*
X22217309Y-12093095D01*
X21874452Y-12397857D02*
X21264928Y-12397857D01*
X21264928Y-12626428D02*
X21874452Y-12626428D01*
X20617309Y-12397857D02*
X20503023Y-12435952D01*
X20464928Y-12474047D01*
X20426833Y-12550238D01*
X20426833Y-12664523D01*
X20464928Y-12740714D01*
X20503023Y-12778809D01*
X20579214Y-12816904D01*
X20883976Y-12816904D01*
X20883976Y-12016904D01*
X20617309Y-12016904D01*
X20541119Y-12055000D01*
X20503023Y-12093095D01*
X20464928Y-12169285D01*
X20464928Y-12245476D01*
X20503023Y-12321666D01*
X20541119Y-12359761D01*
X20617309Y-12397857D01*
X20883976Y-12397857D01*
X19741119Y-12816904D02*
X19741119Y-12397857D01*
X19779214Y-12321666D01*
X19855404Y-12283571D01*
X20007785Y-12283571D01*
X20083976Y-12321666D01*
X19741119Y-12778809D02*
X19817309Y-12816904D01*
X20007785Y-12816904D01*
X20083976Y-12778809D01*
X20122071Y-12702619D01*
X20122071Y-12626428D01*
X20083976Y-12550238D01*
X20007785Y-12512142D01*
X19817309Y-12512142D01*
X19741119Y-12474047D01*
X19474452Y-12283571D02*
X19169690Y-12283571D01*
X19360166Y-12016904D02*
X19360166Y-12702619D01*
X19322071Y-12778809D01*
X19245880Y-12816904D01*
X19169690Y-12816904D01*
X19017309Y-12283571D02*
X18712547Y-12283571D01*
X18903023Y-12016904D02*
X18903023Y-12702619D01*
X18864928Y-12778809D01*
X18788738Y-12816904D01*
X18712547Y-12816904D01*
D11*
X34091285Y-10564761D02*
X33948428Y-10612380D01*
X33710333Y-10612380D01*
X33615095Y-10564761D01*
X33567476Y-10517142D01*
X33519857Y-10421904D01*
X33519857Y-10326666D01*
X33567476Y-10231428D01*
X33615095Y-10183809D01*
X33710333Y-10136190D01*
X33900809Y-10088571D01*
X33996047Y-10040952D01*
X34043666Y-9993333D01*
X34091285Y-9898095D01*
X34091285Y-9802857D01*
X34043666Y-9707619D01*
X33996047Y-9660000D01*
X33900809Y-9612380D01*
X33662714Y-9612380D01*
X33519857Y-9660000D01*
X33186523Y-9945714D02*
X32996047Y-10612380D01*
X32805571Y-10136190D01*
X32615095Y-10612380D01*
X32424619Y-9945714D01*
X32043666Y-10612380D02*
X32043666Y-9945714D01*
X32043666Y-9612380D02*
X32091285Y-9660000D01*
X32043666Y-9707619D01*
X31996047Y-9660000D01*
X32043666Y-9612380D01*
X32043666Y-9707619D01*
X31710333Y-9945714D02*
X31329380Y-9945714D01*
X31567476Y-9612380D02*
X31567476Y-10469523D01*
X31519857Y-10564761D01*
X31424619Y-10612380D01*
X31329380Y-10612380D01*
X30567476Y-10564761D02*
X30662714Y-10612380D01*
X30853190Y-10612380D01*
X30948428Y-10564761D01*
X30996047Y-10517142D01*
X31043666Y-10421904D01*
X31043666Y-10136190D01*
X30996047Y-10040952D01*
X30948428Y-9993333D01*
X30853190Y-9945714D01*
X30662714Y-9945714D01*
X30567476Y-9993333D01*
X30138904Y-10612380D02*
X30138904Y-9612380D01*
X29710333Y-10612380D02*
X29710333Y-10088571D01*
X29757952Y-9993333D01*
X29853190Y-9945714D01*
X29996047Y-9945714D01*
X30091285Y-9993333D01*
X30138904Y-10040952D01*
D13*
X61920428Y-12350142D02*
X61920428Y-12016809D01*
X61396619Y-11873952D02*
X61396619Y-12350142D01*
X62396619Y-12350142D01*
X62396619Y-11873952D01*
X61444238Y-11493000D02*
X61396619Y-11350142D01*
X61396619Y-11112047D01*
X61444238Y-11016809D01*
X61491857Y-10969190D01*
X61587095Y-10921571D01*
X61682333Y-10921571D01*
X61777571Y-10969190D01*
X61825190Y-11016809D01*
X61872809Y-11112047D01*
X61920428Y-11302523D01*
X61968047Y-11397761D01*
X62015666Y-11445380D01*
X62110904Y-11493000D01*
X62206142Y-11493000D01*
X62301380Y-11445380D01*
X62349000Y-11397761D01*
X62396619Y-11302523D01*
X62396619Y-11064428D01*
X62349000Y-10921571D01*
X61396619Y-10493000D02*
X62396619Y-10493000D01*
X62396619Y-10112047D01*
X62349000Y-10016809D01*
X62301380Y-9969190D01*
X62206142Y-9921571D01*
X62063285Y-9921571D01*
X61968047Y-9969190D01*
X61920428Y-10016809D01*
X61872809Y-10112047D01*
X61872809Y-10493000D01*
X61396619Y-9350142D02*
X61444238Y-9445380D01*
X61491857Y-9493000D01*
X61587095Y-9540619D01*
X61872809Y-9540619D01*
X61968047Y-9493000D01*
X62015666Y-9445380D01*
X62063285Y-9350142D01*
X62063285Y-9207285D01*
X62015666Y-9112047D01*
X61968047Y-9064428D01*
X61872809Y-9016809D01*
X61587095Y-9016809D01*
X61491857Y-9064428D01*
X61444238Y-9112047D01*
X61396619Y-9207285D01*
X61396619Y-9350142D01*
X62063285Y-8683476D02*
X61396619Y-8493000D01*
X61872809Y-8302523D01*
X61396619Y-8112047D01*
X62063285Y-7921571D01*
X61444238Y-7159666D02*
X61396619Y-7254904D01*
X61396619Y-7445380D01*
X61444238Y-7540619D01*
X61539476Y-7588238D01*
X61920428Y-7588238D01*
X62015666Y-7540619D01*
X62063285Y-7445380D01*
X62063285Y-7254904D01*
X62015666Y-7159666D01*
X61920428Y-7112047D01*
X61825190Y-7112047D01*
X61729952Y-7588238D01*
X61396619Y-6683476D02*
X62063285Y-6683476D01*
X61872809Y-6683476D02*
X61968047Y-6635857D01*
X62015666Y-6588238D01*
X62063285Y-6493000D01*
X62063285Y-6397761D01*
X62063285Y-5397761D02*
X61396619Y-5159666D01*
X62063285Y-4921571D01*
X62301380Y-4588238D02*
X62349000Y-4540619D01*
X62396619Y-4445380D01*
X62396619Y-4207285D01*
X62349000Y-4112047D01*
X62301380Y-4064428D01*
X62206142Y-4016809D01*
X62110904Y-4016809D01*
X61968047Y-4064428D01*
X61396619Y-4635857D01*
X61396619Y-4016809D01*
X61491857Y-3588238D02*
X61444238Y-3540619D01*
X61396619Y-3588238D01*
X61444238Y-3635857D01*
X61491857Y-3588238D01*
X61396619Y-3588238D01*
X62396619Y-2921571D02*
X62396619Y-2826333D01*
X62349000Y-2731095D01*
X62301380Y-2683476D01*
X62206142Y-2635857D01*
X62015666Y-2588238D01*
X61777571Y-2588238D01*
X61587095Y-2635857D01*
X61491857Y-2683476D01*
X61444238Y-2731095D01*
X61396619Y-2826333D01*
X61396619Y-2921571D01*
X61444238Y-3016809D01*
X61491857Y-3064428D01*
X61587095Y-3112047D01*
X61777571Y-3159666D01*
X62015666Y-3159666D01*
X62206142Y-3112047D01*
X62301380Y-3064428D01*
X62349000Y-3016809D01*
X62396619Y-2921571D01*
D11*
X40262480Y-10597868D02*
X40050753Y-10016154D01*
X39806782Y-10459678D01*
X39757922Y-10325436D01*
X39680601Y-10252228D01*
X39619567Y-10223768D01*
X39513786Y-10211594D01*
X39290050Y-10293027D01*
X39216842Y-10370348D01*
X39188381Y-10431382D01*
X39176207Y-10537163D01*
X39273927Y-10805646D01*
X39351248Y-10878854D01*
X39412282Y-10907315D01*
X39053975Y-9922875D02*
X38992941Y-9894414D01*
X38964481Y-9955448D01*
X39025514Y-9983909D01*
X39053975Y-9922875D01*
X38964481Y-9955448D01*
X39773880Y-9255450D02*
X39562153Y-8673736D01*
X39318182Y-9117260D01*
X39269322Y-8983018D01*
X39192001Y-8909810D01*
X39130967Y-8881350D01*
X39025186Y-8869176D01*
X38801449Y-8950609D01*
X38728242Y-9027930D01*
X38699781Y-9088964D01*
X38687607Y-9194745D01*
X38785327Y-9463228D01*
X38862648Y-9536436D01*
X38923682Y-9564897D01*
X39464433Y-8405252D02*
X38410734Y-8434041D01*
X39236420Y-7778790D01*
X34909000Y-1659000D02*
X35004238Y-1611380D01*
X35147095Y-1611380D01*
X35289952Y-1659000D01*
X35385190Y-1754238D01*
X35432809Y-1849476D01*
X35480428Y-2039952D01*
X35480428Y-2182809D01*
X35432809Y-2373285D01*
X35385190Y-2468523D01*
X35289952Y-2563761D01*
X35147095Y-2611380D01*
X35051857Y-2611380D01*
X34909000Y-2563761D01*
X34861380Y-2516142D01*
X34861380Y-2182809D01*
X35051857Y-2182809D01*
X34432809Y-2611380D02*
X34432809Y-1611380D01*
X34051857Y-1611380D01*
X33956619Y-1659000D01*
X33909000Y-1706619D01*
X33861380Y-1801857D01*
X33861380Y-1944714D01*
X33909000Y-2039952D01*
X33956619Y-2087571D01*
X34051857Y-2135190D01*
X34432809Y-2135190D01*
X33432809Y-2611380D02*
X33432809Y-1611380D01*
X32766142Y-1611380D02*
X32575666Y-1611380D01*
X32480428Y-1659000D01*
X32385190Y-1754238D01*
X32337571Y-1944714D01*
X32337571Y-2278047D01*
X32385190Y-2468523D01*
X32480428Y-2563761D01*
X32575666Y-2611380D01*
X32766142Y-2611380D01*
X32861380Y-2563761D01*
X32956619Y-2468523D01*
X33004238Y-2278047D01*
X33004238Y-1944714D01*
X32956619Y-1754238D01*
X32861380Y-1659000D01*
X32766142Y-1611380D01*
X40273819Y-4177760D02*
X40302279Y-4116726D01*
X40314453Y-4010945D01*
X40233020Y-3787208D01*
X40155699Y-3714000D01*
X40094665Y-3685540D01*
X39988884Y-3673366D01*
X39899389Y-3705939D01*
X39781434Y-3799546D01*
X39439907Y-4531954D01*
X39228180Y-3950239D01*
X21081952Y-4008428D02*
X20320047Y-4008428D01*
X20701000Y-4389380D02*
X20701000Y-3627476D01*
X18635023Y-1944666D02*
X18158833Y-1944666D01*
X18730261Y-2230380D02*
X18396928Y-1230380D01*
X18063595Y-2230380D01*
X15873119Y-1706571D02*
X15730261Y-1754190D01*
X15682642Y-1801809D01*
X15635023Y-1897047D01*
X15635023Y-2039904D01*
X15682642Y-2135142D01*
X15730261Y-2182761D01*
X15825500Y-2230380D01*
X16206452Y-2230380D01*
X16206452Y-1230380D01*
X15873119Y-1230380D01*
X15777880Y-1278000D01*
X15730261Y-1325619D01*
X15682642Y-1420857D01*
X15682642Y-1516095D01*
X15730261Y-1611333D01*
X15777880Y-1658952D01*
X15873119Y-1706571D01*
X16206452Y-1706571D01*
X13111214Y-2135142D02*
X13158833Y-2182761D01*
X13301690Y-2230380D01*
X13396928Y-2230380D01*
X13539785Y-2182761D01*
X13635023Y-2087523D01*
X13682642Y-1992285D01*
X13730261Y-1801809D01*
X13730261Y-1658952D01*
X13682642Y-1468476D01*
X13635023Y-1373238D01*
X13539785Y-1278000D01*
X13396928Y-1230380D01*
X13301690Y-1230380D01*
X13158833Y-1278000D01*
X13111214Y-1325619D01*
X12254071Y-1563714D02*
X12254071Y-2230380D01*
X12682642Y-1563714D02*
X12682642Y-2087523D01*
X12635023Y-2182761D01*
X12539785Y-2230380D01*
X12396928Y-2230380D01*
X12301690Y-2182761D01*
X12254071Y-2135142D01*
X11777880Y-2230380D02*
X11777880Y-1563714D01*
X11777880Y-1754190D02*
X11730261Y-1658952D01*
X11682642Y-1611333D01*
X11587404Y-1563714D01*
X11492166Y-1563714D01*
X11158833Y-2230380D02*
X11158833Y-1563714D01*
X11158833Y-1754190D02*
X11111214Y-1658952D01*
X11063595Y-1611333D01*
X10968357Y-1563714D01*
X10873119Y-1563714D01*
X10158833Y-2182761D02*
X10254071Y-2230380D01*
X10444547Y-2230380D01*
X10539785Y-2182761D01*
X10587404Y-2087523D01*
X10587404Y-1706571D01*
X10539785Y-1611333D01*
X10444547Y-1563714D01*
X10254071Y-1563714D01*
X10158833Y-1611333D01*
X10111214Y-1706571D01*
X10111214Y-1801809D01*
X10587404Y-1897047D01*
X9682642Y-1563714D02*
X9682642Y-2230380D01*
X9682642Y-1658952D02*
X9635023Y-1611333D01*
X9539785Y-1563714D01*
X9396928Y-1563714D01*
X9301690Y-1611333D01*
X9254071Y-1706571D01*
X9254071Y-2230380D01*
X8920738Y-1563714D02*
X8539785Y-1563714D01*
X8777880Y-1230380D02*
X8777880Y-2087523D01*
X8730261Y-2182761D01*
X8635023Y-2230380D01*
X8539785Y-2230380D01*
X3698714Y-10612428D02*
X2936809Y-10612428D01*
X3317761Y-10993380D02*
X3317761Y-10231476D01*
X1984428Y-9993380D02*
X2460619Y-9993380D01*
X2508238Y-10469571D01*
X2460619Y-10421952D01*
X2365380Y-10374333D01*
X2127285Y-10374333D01*
X2032047Y-10421952D01*
X1984428Y-10469571D01*
X1936809Y-10564809D01*
X1936809Y-10802904D01*
X1984428Y-10898142D01*
X2032047Y-10945761D01*
X2127285Y-10993380D01*
X2365380Y-10993380D01*
X2460619Y-10945761D01*
X2508238Y-10898142D01*
X1651095Y-9993380D02*
X1317761Y-10993380D01*
X984428Y-9993380D01*
X43794050Y-5958747D02*
X43598610Y-5421780D01*
X42756637Y-6032284D02*
X43696330Y-5690264D01*
X42577484Y-5540064D02*
X43024792Y-4819830D01*
X43203946Y-5312050D02*
X42398330Y-5047844D01*
X42357532Y-4657292D02*
X42296498Y-4628832D01*
X42268037Y-4689866D01*
X42329071Y-4718326D01*
X42357532Y-4657292D01*
X42268037Y-4689866D01*
X41926017Y-3750173D02*
X42121457Y-4287140D01*
X42023737Y-4018657D02*
X42963430Y-3676637D01*
X42861761Y-3814991D01*
X42804840Y-3937059D01*
X42792666Y-4042840D01*
D10*
X59543166Y-13766000D02*
X59576500Y-13799333D01*
X59676500Y-13866000D01*
X59743166Y-13899333D01*
X59843166Y-13932666D01*
X60009833Y-13966000D01*
X60143166Y-13966000D01*
X60309833Y-13932666D01*
X60409833Y-13899333D01*
X60476500Y-13866000D01*
X60576500Y-13799333D01*
X60609833Y-13766000D01*
X59843166Y-13199333D02*
X59809833Y-13266000D01*
X59809833Y-13399333D01*
X59843166Y-13466000D01*
X59876500Y-13499333D01*
X59943166Y-13532666D01*
X60143166Y-13532666D01*
X60209833Y-13499333D01*
X60243166Y-13466000D01*
X60276500Y-13399333D01*
X60276500Y-13266000D01*
X60243166Y-13199333D01*
X59843166Y-12599333D02*
X59809833Y-12666000D01*
X59809833Y-12799333D01*
X59843166Y-12866000D01*
X59876500Y-12899333D01*
X59943166Y-12932666D01*
X60143166Y-12932666D01*
X60209833Y-12899333D01*
X60243166Y-12866000D01*
X60276500Y-12799333D01*
X60276500Y-12666000D01*
X60243166Y-12599333D01*
X59543166Y-12366000D02*
X59576500Y-12332666D01*
X59676500Y-12266000D01*
X59743166Y-12232666D01*
X59843166Y-12199333D01*
X60009833Y-12166000D01*
X60143166Y-12166000D01*
X60309833Y-12199333D01*
X60409833Y-12232666D01*
X60476500Y-12266000D01*
X60576500Y-12332666D01*
X60609833Y-12366000D01*
X60176500Y-11066000D02*
X60143166Y-10966000D01*
X60109833Y-10932666D01*
X60043166Y-10899333D01*
X59943166Y-10899333D01*
X59876500Y-10932666D01*
X59843166Y-10966000D01*
X59809833Y-11032666D01*
X59809833Y-11299333D01*
X60509833Y-11299333D01*
X60509833Y-11066000D01*
X60476500Y-10999333D01*
X60443166Y-10966000D01*
X60376500Y-10932666D01*
X60309833Y-10932666D01*
X60243166Y-10966000D01*
X60209833Y-10999333D01*
X60176500Y-11066000D01*
X60176500Y-11299333D01*
X60143166Y-10466000D02*
X59809833Y-10466000D01*
X60509833Y-10699333D02*
X60143166Y-10466000D01*
X60509833Y-10232666D01*
X60076500Y-9999333D02*
X60076500Y-9466000D01*
X59809833Y-9132666D02*
X60509833Y-9132666D01*
X59809833Y-8732666D01*
X60509833Y-8732666D01*
X59876500Y-7999333D02*
X59843166Y-8032666D01*
X59809833Y-8132666D01*
X59809833Y-8199333D01*
X59843166Y-8299333D01*
X59909833Y-8366000D01*
X59976500Y-8399333D01*
X60109833Y-8432666D01*
X60209833Y-8432666D01*
X60343166Y-8399333D01*
X60409833Y-8366000D01*
X60476500Y-8299333D01*
X60509833Y-8199333D01*
X60509833Y-8132666D01*
X60476500Y-8032666D01*
X60443166Y-7999333D01*
X60076500Y-7699333D02*
X60076500Y-7166000D01*
X59843166Y-6866000D02*
X59809833Y-6766000D01*
X59809833Y-6599333D01*
X59843166Y-6532666D01*
X59876500Y-6499333D01*
X59943166Y-6466000D01*
X60009833Y-6466000D01*
X60076500Y-6499333D01*
X60109833Y-6532666D01*
X60143166Y-6599333D01*
X60176500Y-6732666D01*
X60209833Y-6799333D01*
X60243166Y-6832666D01*
X60309833Y-6866000D01*
X60376500Y-6866000D01*
X60443166Y-6832666D01*
X60476500Y-6799333D01*
X60509833Y-6732666D01*
X60509833Y-6566000D01*
X60476500Y-6466000D01*
X60009833Y-6199333D02*
X60009833Y-5866000D01*
X59809833Y-6266000D02*
X60509833Y-6032666D01*
X59809833Y-5799333D01*
X60076500Y-5032666D02*
X60076500Y-4499333D01*
X60443166Y-3666000D02*
X60476500Y-3632666D01*
X60509833Y-3566000D01*
X60509833Y-3399333D01*
X60476500Y-3332666D01*
X60443166Y-3299333D01*
X60376500Y-3266000D01*
X60309833Y-3266000D01*
X60209833Y-3299333D01*
X59809833Y-3699333D01*
X59809833Y-3266000D01*
X60509833Y-2832666D02*
X60509833Y-2766000D01*
X60476500Y-2699333D01*
X60443166Y-2666000D01*
X60376500Y-2632666D01*
X60243166Y-2599333D01*
X60076500Y-2599333D01*
X59943166Y-2632666D01*
X59876500Y-2666000D01*
X59843166Y-2699333D01*
X59809833Y-2766000D01*
X59809833Y-2832666D01*
X59843166Y-2899333D01*
X59876500Y-2932666D01*
X59943166Y-2966000D01*
X60076500Y-2999333D01*
X60243166Y-2999333D01*
X60376500Y-2966000D01*
X60443166Y-2932666D01*
X60476500Y-2899333D01*
X60509833Y-2832666D01*
X60443166Y-2332666D02*
X60476500Y-2299333D01*
X60509833Y-2232666D01*
X60509833Y-2066000D01*
X60476500Y-1999333D01*
X60443166Y-1966000D01*
X60376500Y-1932666D01*
X60309833Y-1932666D01*
X60209833Y-1966000D01*
X59809833Y-2366000D01*
X59809833Y-1932666D01*
X60443166Y-1666000D02*
X60476500Y-1632666D01*
X60509833Y-1566000D01*
X60509833Y-1399333D01*
X60476500Y-1332666D01*
X60443166Y-1299333D01*
X60376500Y-1266000D01*
X60309833Y-1266000D01*
X60209833Y-1299333D01*
X59809833Y-1699333D01*
X59809833Y-1266000D01*
X59149500Y-13716000D02*
X58682833Y-13582666D01*
X59016166Y-13449333D01*
X58682833Y-13316000D01*
X59149500Y-13182666D01*
X59149500Y-12982666D02*
X58682833Y-12849333D01*
X59016166Y-12716000D01*
X58682833Y-12582666D01*
X59149500Y-12449333D01*
X59149500Y-12249333D02*
X58682833Y-12116000D01*
X59016166Y-11982666D01*
X58682833Y-11849333D01*
X59149500Y-11716000D01*
X58749500Y-11449333D02*
X58716166Y-11416000D01*
X58682833Y-11449333D01*
X58716166Y-11482666D01*
X58749500Y-11449333D01*
X58682833Y-11449333D01*
X58682833Y-10816000D02*
X59049500Y-10816000D01*
X59116166Y-10849333D01*
X59149500Y-10916000D01*
X59149500Y-11049333D01*
X59116166Y-11116000D01*
X58716166Y-10816000D02*
X58682833Y-10882666D01*
X58682833Y-11049333D01*
X58716166Y-11116000D01*
X58782833Y-11149333D01*
X58849500Y-11149333D01*
X58916166Y-11116000D01*
X58949500Y-11049333D01*
X58949500Y-10882666D01*
X58982833Y-10816000D01*
X59149500Y-10182666D02*
X58582833Y-10182666D01*
X58516166Y-10216000D01*
X58482833Y-10249333D01*
X58449500Y-10316000D01*
X58449500Y-10416000D01*
X58482833Y-10482666D01*
X58716166Y-10182666D02*
X58682833Y-10249333D01*
X58682833Y-10382666D01*
X58716166Y-10449333D01*
X58749500Y-10482666D01*
X58816166Y-10516000D01*
X59016166Y-10516000D01*
X59082833Y-10482666D01*
X59116166Y-10449333D01*
X59149500Y-10382666D01*
X59149500Y-10249333D01*
X59116166Y-10182666D01*
X58682833Y-9849333D02*
X59149500Y-9849333D01*
X59382833Y-9849333D02*
X59349500Y-9882666D01*
X59316166Y-9849333D01*
X59349500Y-9816000D01*
X59382833Y-9849333D01*
X59316166Y-9849333D01*
X59149500Y-9216000D02*
X58682833Y-9216000D01*
X59149500Y-9516000D02*
X58782833Y-9516000D01*
X58716166Y-9482666D01*
X58682833Y-9416000D01*
X58682833Y-9316000D01*
X58716166Y-9249333D01*
X58749500Y-9216000D01*
X58716166Y-8916000D02*
X58682833Y-8849333D01*
X58682833Y-8716000D01*
X58716166Y-8649333D01*
X58782833Y-8616000D01*
X58816166Y-8616000D01*
X58882833Y-8649333D01*
X58916166Y-8716000D01*
X58916166Y-8816000D01*
X58949500Y-8882666D01*
X59016166Y-8916000D01*
X59049500Y-8916000D01*
X59116166Y-8882666D01*
X59149500Y-8816000D01*
X59149500Y-8716000D01*
X59116166Y-8649333D01*
X58949500Y-8316000D02*
X58949500Y-7782666D01*
X58682833Y-7449333D02*
X59149500Y-7449333D01*
X59382833Y-7449333D02*
X59349500Y-7482666D01*
X59316166Y-7449333D01*
X59349500Y-7416000D01*
X59382833Y-7449333D01*
X59316166Y-7449333D01*
X59149500Y-7116000D02*
X58682833Y-7116000D01*
X59082833Y-7116000D02*
X59116166Y-7082666D01*
X59149500Y-7016000D01*
X59149500Y-6916000D01*
X59116166Y-6849333D01*
X59049500Y-6816000D01*
X58682833Y-6816000D01*
X58682833Y-6182666D02*
X59382833Y-6182666D01*
X58716166Y-6182666D02*
X58682833Y-6249333D01*
X58682833Y-6382666D01*
X58716166Y-6449333D01*
X58749500Y-6482666D01*
X58816166Y-6516000D01*
X59016166Y-6516000D01*
X59082833Y-6482666D01*
X59116166Y-6449333D01*
X59149500Y-6382666D01*
X59149500Y-6249333D01*
X59116166Y-6182666D01*
X59149500Y-5549333D02*
X58682833Y-5549333D01*
X59149500Y-5849333D02*
X58782833Y-5849333D01*
X58716166Y-5816000D01*
X58682833Y-5749333D01*
X58682833Y-5649333D01*
X58716166Y-5582666D01*
X58749500Y-5549333D01*
X58716166Y-5249333D02*
X58682833Y-5182666D01*
X58682833Y-5049333D01*
X58716166Y-4982666D01*
X58782833Y-4949333D01*
X58816166Y-4949333D01*
X58882833Y-4982666D01*
X58916166Y-5049333D01*
X58916166Y-5149333D01*
X58949500Y-5216000D01*
X59016166Y-5249333D01*
X59049500Y-5249333D01*
X59116166Y-5216000D01*
X59149500Y-5149333D01*
X59149500Y-5049333D01*
X59116166Y-4982666D01*
X59149500Y-4749333D02*
X59149500Y-4482666D01*
X59382833Y-4649333D02*
X58782833Y-4649333D01*
X58716166Y-4616000D01*
X58682833Y-4549333D01*
X58682833Y-4482666D01*
X58682833Y-4249333D02*
X59149500Y-4249333D01*
X59016166Y-4249333D02*
X59082833Y-4216000D01*
X59116166Y-4182666D01*
X59149500Y-4116000D01*
X59149500Y-4049333D01*
X58682833Y-3816000D02*
X59149500Y-3816000D01*
X59382833Y-3816000D02*
X59349500Y-3849333D01*
X59316166Y-3816000D01*
X59349500Y-3782666D01*
X59382833Y-3816000D01*
X59316166Y-3816000D01*
X58716166Y-3216000D02*
X58682833Y-3282666D01*
X58682833Y-3416000D01*
X58716166Y-3482666D01*
X58782833Y-3516000D01*
X59049500Y-3516000D01*
X59116166Y-3482666D01*
X59149500Y-3416000D01*
X59149500Y-3282666D01*
X59116166Y-3216000D01*
X59049500Y-3182666D01*
X58982833Y-3182666D01*
X58916166Y-3516000D01*
X58716166Y-2916000D02*
X58682833Y-2849333D01*
X58682833Y-2716000D01*
X58716166Y-2649333D01*
X58782833Y-2616000D01*
X58816166Y-2616000D01*
X58882833Y-2649333D01*
X58916166Y-2716000D01*
X58916166Y-2816000D01*
X58949500Y-2882666D01*
X59016166Y-2916000D01*
X59049500Y-2916000D01*
X59116166Y-2882666D01*
X59149500Y-2816000D01*
X59149500Y-2716000D01*
X59116166Y-2649333D01*
X58749500Y-2316000D02*
X58716166Y-2282666D01*
X58682833Y-2316000D01*
X58716166Y-2349333D01*
X58749500Y-2316000D01*
X58682833Y-2316000D01*
X58716166Y-1716000D02*
X58682833Y-1782666D01*
X58682833Y-1916000D01*
X58716166Y-1982666D01*
X58782833Y-2016000D01*
X59049500Y-2016000D01*
X59116166Y-1982666D01*
X59149500Y-1916000D01*
X59149500Y-1782666D01*
X59116166Y-1716000D01*
X59049500Y-1682666D01*
X58982833Y-1682666D01*
X58916166Y-2016000D01*
X59149500Y-1082666D02*
X58682833Y-1082666D01*
X59149500Y-1382666D02*
X58782833Y-1382666D01*
X58716166Y-1349333D01*
X58682833Y-1282666D01*
X58682833Y-1182666D01*
X58716166Y-1116000D01*
X58749500Y-1082666D01*
X4823000Y-8271000D02*
X4823000Y-10271000D01*
X7623000Y-8271000D02*
X4823000Y-8271000D01*
X7623000Y-10271000D02*
X7623000Y-8271000D01*
X4823000Y-10271000D02*
X7623000Y-10271000D01*
X7623000Y-6588000D02*
X7623000Y-4588000D01*
X4823000Y-6588000D02*
X7623000Y-6588000D01*
X7623000Y-4588000D02*
X4823000Y-4588000D01*
X4823000Y-4588000D02*
X4823000Y-6588000D01*
X13205000Y-11827000D02*
X13205000Y-13827000D01*
X13205000Y-13827000D02*
X16005000Y-13827000D01*
X16005000Y-13827000D02*
X16005000Y-11827000D01*
X16005000Y-11827000D02*
X13205000Y-11827000D01*
%LPC*%
D14*
X30988000Y-12319000D03*
D15*
X33528000Y-12319000D03*
D14*
X44958000Y-12319000D03*
D15*
X42418000Y-12319000D03*
X39878000Y-12319000D03*
X37338000Y-12319000D03*
D14*
X44958000Y-2159000D03*
D15*
X42418000Y-2159000D03*
X39878000Y-2159000D03*
X37338000Y-2159000D03*
D16*
X51816000Y-3810000D03*
D17*
X51816000Y-6350000D03*
X51816000Y-8890000D03*
X51816000Y-11430000D03*
X49276000Y-3810000D03*
X49276000Y-6350000D03*
X49276000Y-8890000D03*
X49276000Y-11430000D03*
D14*
X23216000Y-2159000D03*
D15*
X20676000Y-2159000D03*
D14*
X2159000Y-5715000D03*
D15*
X2159000Y-8255000D03*
D18*
X5498000Y-9271000D03*
D19*
X6948000Y-9271000D03*
D20*
X6948000Y-5588000D03*
D21*
X5498000Y-5588000D03*
D18*
X13880000Y-12827000D03*
D19*
X15330000Y-12827000D03*
M02*
