M48
; DRILL file {KiCad 6.0.11} date Thu 22 Aug 2024 07:43:09 PM IST
; FORMAT={-:-/ absolute / metric / decimal}
; #@! TF.CreationDate,2024-08-22T19:43:09+01:00
; #@! TF.GenerationSoftware,Kicad,Pcbnew,6.0.11
; #@! TF.FileFunction,Plated,1,2,PTH
FMAT,2
METRIC
; #@! TA.AperFunction,Plated,PTH,ViaDrill
T1C0.400
; #@! TA.AperFunction,Plated,PTH,ViaDrill
T2C0.600
; #@! TA.AperFunction,Plated,PTH,ComponentDrill
T3C0.800
; #@! TA.AperFunction,Plated,PTH,ComponentDrill
T4C1.000
%
G90
G05
T1
X6.096Y-3.81
X6.223Y-7.62
X8.636Y-9.271
X11.049Y-11.049
X12.954Y-10.033
X17.526Y-7.62
X22.339Y-4.94
X29.464Y-6.731
X56.261Y-7.62
X57.912Y-8.636
T2
X11.938Y-12.827
X17.272Y-12.827
X34.29Y-3.81
T3
X49.276Y-3.81
X49.276Y-6.35
X49.276Y-8.89
X49.276Y-11.43
X51.816Y-3.81
X51.816Y-6.35
X51.816Y-8.89
X51.816Y-11.43
T4
X2.159Y-5.715
X2.159Y-8.255
X20.676Y-2.159
X23.216Y-2.159
X30.988Y-12.319
X33.528Y-12.319
X37.338Y-2.159
X37.338Y-12.319
X39.878Y-2.159
X39.878Y-12.319
X42.418Y-2.159
X42.418Y-12.319
X44.958Y-2.159
X44.958Y-12.319
T0
M30
