%TF.GenerationSoftware,KiCad,Pcbnew,6.0.11*%
%TF.CreationDate,2024-08-22T19:43:04+01:00*%
%TF.ProjectId,ESPower,4553506f-7765-4722-9e6b-696361645f70,rev?*%
%TF.SameCoordinates,PX4f54d68PY59a0560*%
%TF.FileFunction,Legend,Top*%
%TF.FilePolarity,Positive*%
%FSLAX46Y46*%
G04 Gerber Fmt 4.6, Leading zero omitted, Abs format (unit mm)*
G04 Created by KiCad (PCBNEW 6.0.11) date 2024-08-22 19:43:04*
%MOMM*%
%LPD*%
G01*
G04 APERTURE LIST*
G04 Aperture macros list*
%AMRoundRect*
0 Rectangle with rounded corners*
0 $1 Rounding radius*
0 $2 $3 $4 $5 $6 $7 $8 $9 X,Y pos of 4 corners*
0 Add a 4 corners polygon primitive as box body*
4,1,4,$2,$3,$4,$5,$6,$7,$8,$9,$2,$3,0*
0 Add four circle primitives for the rounded corners*
1,1,$1+$1,$2,$3*
1,1,$1+$1,$4,$5*
1,1,$1+$1,$6,$7*
1,1,$1+$1,$8,$9*
0 Add four rect primitives between the rounded corners*
20,1,$1+$1,$2,$3,$4,$5,0*
20,1,$1+$1,$4,$5,$6,$7,0*
20,1,$1+$1,$6,$7,$8,$9,0*
20,1,$1+$1,$8,$9,$2,$3,0*%
G04 Aperture macros list end*
%ADD10C,0.150000*%
%ADD11C,0.120000*%
%ADD12C,0.127000*%
%ADD13C,0.200000*%
%ADD14RoundRect,0.250000X-0.787500X-0.925000X0.787500X-0.925000X0.787500X0.925000X-0.787500X0.925000X0*%
%ADD15RoundRect,0.225000X-0.225000X-0.250000X0.225000X-0.250000X0.225000X0.250000X-0.225000X0.250000X0*%
%ADD16RoundRect,0.225000X0.250000X-0.225000X0.250000X0.225000X-0.250000X0.225000X-0.250000X-0.225000X0*%
%ADD17R,1.700000X1.700000*%
%ADD18O,1.700000X1.700000*%
%ADD19R,0.650000X1.060000*%
%ADD20R,1.500000X1.500000*%
%ADD21C,1.500000*%
%ADD22RoundRect,0.200000X0.275000X-0.200000X0.275000X0.200000X-0.275000X0.200000X-0.275000X-0.200000X0*%
%ADD23RoundRect,0.225000X0.225000X0.250000X-0.225000X0.250000X-0.225000X-0.250000X0.225000X-0.250000X0*%
%ADD24R,0.900000X0.800000*%
%ADD25R,2.500000X1.800000*%
%ADD26RoundRect,0.200000X-0.275000X0.200000X-0.275000X-0.200000X0.275000X-0.200000X0.275000X0.200000X0*%
%ADD27R,0.800000X0.900000*%
%ADD28RoundRect,0.218750X-0.256250X0.218750X-0.256250X-0.218750X0.256250X-0.218750X0.256250X0.218750X0*%
%ADD29RoundRect,0.150000X0.150000X-0.650000X0.150000X0.650000X-0.150000X0.650000X-0.150000X-0.650000X0*%
%ADD30R,3.200000X2.400000*%
%ADD31RoundRect,0.200000X0.200000X0.275000X-0.200000X0.275000X-0.200000X-0.275000X0.200000X-0.275000X0*%
%ADD32RoundRect,0.150000X-0.150000X0.512500X-0.150000X-0.512500X0.150000X-0.512500X0.150000X0.512500X0*%
%ADD33RoundRect,0.225000X-0.250000X0.225000X-0.250000X-0.225000X0.250000X-0.225000X0.250000X0.225000X0*%
%ADD34RoundRect,0.200000X-0.200000X-0.275000X0.200000X-0.275000X0.200000X0.275000X-0.200000X0.275000X0*%
G04 APERTURE END LIST*
D10*
X59436000Y-13438142D02*
X59483619Y-13485761D01*
X59436000Y-13533380D01*
X59388380Y-13485761D01*
X59436000Y-13438142D01*
X59436000Y-13533380D01*
X25400000Y-10771142D02*
X25447619Y-10818761D01*
X25400000Y-10866380D01*
X25352380Y-10818761D01*
X25400000Y-10771142D01*
X25400000Y-10866380D01*
X8509000Y-2174142D02*
X8556619Y-2221761D01*
X8509000Y-2269380D01*
X8461380Y-2221761D01*
X8509000Y-2174142D01*
X8509000Y-2269380D01*
X10668000Y-8993142D02*
X10715619Y-9040761D01*
X10668000Y-9088380D01*
X10620380Y-9040761D01*
X10668000Y-8993142D01*
X10668000Y-9088380D01*
X10541000Y-2174142D02*
X10588619Y-2221761D01*
X10541000Y-2269380D01*
X10493380Y-2221761D01*
X10541000Y-2174142D01*
X10541000Y-2269380D01*
X9144000Y-10771142D02*
X9191619Y-10818761D01*
X9144000Y-10866380D01*
X9096380Y-10818761D01*
X9144000Y-10771142D01*
X9144000Y-10866380D01*
X746285Y-10612428D02*
X1508190Y-10612428D01*
X1127238Y-10993380D02*
X1127238Y-10231476D01*
X2460571Y-9993380D02*
X1984380Y-9993380D01*
X1936761Y-10469571D01*
X1984380Y-10421952D01*
X2079619Y-10374333D01*
X2317714Y-10374333D01*
X2412952Y-10421952D01*
X2460571Y-10469571D01*
X2508190Y-10564809D01*
X2508190Y-10802904D01*
X2460571Y-10898142D01*
X2412952Y-10945761D01*
X2317714Y-10993380D01*
X2079619Y-10993380D01*
X1984380Y-10945761D01*
X1936761Y-10898142D01*
X2793904Y-9993380D02*
X3127238Y-10993380D01*
X3460571Y-9993380D01*
X46942380Y-1611380D02*
X47037619Y-1611380D01*
X47132857Y-1659000D01*
X47180476Y-1706619D01*
X47228095Y-1801857D01*
X47275714Y-1992333D01*
X47275714Y-2230428D01*
X47228095Y-2420904D01*
X47180476Y-2516142D01*
X47132857Y-2563761D01*
X47037619Y-2611380D01*
X46942380Y-2611380D01*
X46847142Y-2563761D01*
X46799523Y-2516142D01*
X46751904Y-2420904D01*
X46704285Y-2230428D01*
X46704285Y-1992333D01*
X46751904Y-1801857D01*
X46799523Y-1706619D01*
X46847142Y-1659000D01*
X46942380Y-1611380D01*
X42608476Y-14628761D02*
X42513238Y-14676380D01*
X42322761Y-14676380D01*
X42227523Y-14628761D01*
X42179904Y-14533523D01*
X42179904Y-14152571D01*
X42227523Y-14057333D01*
X42322761Y-14009714D01*
X42513238Y-14009714D01*
X42608476Y-14057333D01*
X42656095Y-14152571D01*
X42656095Y-14247809D01*
X42179904Y-14343047D01*
X39039904Y-13912904D02*
X39535142Y-13912904D01*
X39268476Y-14217666D01*
X39382761Y-14217666D01*
X39458952Y-14255761D01*
X39497047Y-14293857D01*
X39535142Y-14370047D01*
X39535142Y-14560523D01*
X39497047Y-14636714D01*
X39458952Y-14674809D01*
X39382761Y-14712904D01*
X39154190Y-14712904D01*
X39078000Y-14674809D01*
X39039904Y-14636714D01*
X39878000Y-14636714D02*
X39916095Y-14674809D01*
X39878000Y-14712904D01*
X39839904Y-14674809D01*
X39878000Y-14636714D01*
X39878000Y-14712904D01*
X40182761Y-13912904D02*
X40678000Y-13912904D01*
X40411333Y-14217666D01*
X40525619Y-14217666D01*
X40601809Y-14255761D01*
X40639904Y-14293857D01*
X40678000Y-14370047D01*
X40678000Y-14560523D01*
X40639904Y-14636714D01*
X40601809Y-14674809D01*
X40525619Y-14712904D01*
X40297047Y-14712904D01*
X40220857Y-14674809D01*
X40182761Y-14636714D01*
X28829000Y-6326142D02*
X28876619Y-6373761D01*
X28829000Y-6421380D01*
X28781380Y-6373761D01*
X28829000Y-6326142D01*
X28829000Y-6421380D01*
X36957047Y-14295428D02*
X37718952Y-14295428D01*
X37338000Y-14676380D02*
X37338000Y-13914476D01*
X34718666Y-1738380D02*
X35337714Y-1738380D01*
X35004380Y-2119333D01*
X35147238Y-2119333D01*
X35242476Y-2166952D01*
X35290095Y-2214571D01*
X35337714Y-2309809D01*
X35337714Y-2547904D01*
X35290095Y-2643142D01*
X35242476Y-2690761D01*
X35147238Y-2738380D01*
X34861523Y-2738380D01*
X34766285Y-2690761D01*
X34718666Y-2643142D01*
X29972000Y-10068142D02*
X30019619Y-10115761D01*
X29972000Y-10163380D01*
X29924380Y-10115761D01*
X29972000Y-10068142D01*
X29972000Y-10163380D01*
X30226000Y-992142D02*
X30273619Y-1039761D01*
X30226000Y-1087380D01*
X30178380Y-1039761D01*
X30226000Y-992142D01*
X30226000Y-1087380D01*
X25455571Y-2706619D02*
X25503190Y-2563761D01*
X25550809Y-2516142D01*
X25646047Y-2468523D01*
X25788904Y-2468523D01*
X25884142Y-2516142D01*
X25931761Y-2563761D01*
X25979380Y-2659000D01*
X25979380Y-3039952D01*
X24979380Y-3039952D01*
X24979380Y-2706619D01*
X25027000Y-2611380D01*
X25074619Y-2563761D01*
X25169857Y-2516142D01*
X25265095Y-2516142D01*
X25360333Y-2563761D01*
X25407952Y-2611380D01*
X25455571Y-2706619D01*
X25455571Y-3039952D01*
X25598428Y-2039952D02*
X25598428Y-1278047D01*
X1397095Y-2548000D02*
X1301857Y-2500380D01*
X1159000Y-2500380D01*
X1016142Y-2548000D01*
X920904Y-2643238D01*
X873285Y-2738476D01*
X825666Y-2928952D01*
X825666Y-3071809D01*
X873285Y-3262285D01*
X920904Y-3357523D01*
X1016142Y-3452761D01*
X1159000Y-3500380D01*
X1254238Y-3500380D01*
X1397095Y-3452761D01*
X1444714Y-3405142D01*
X1444714Y-3071809D01*
X1254238Y-3071809D01*
X1873285Y-3500380D02*
X1873285Y-2500380D01*
X2444714Y-3500380D01*
X2444714Y-2500380D01*
X2920904Y-3500380D02*
X2920904Y-2500380D01*
X3159000Y-2500380D01*
X3301857Y-2548000D01*
X3397095Y-2643238D01*
X3444714Y-2738476D01*
X3492333Y-2928952D01*
X3492333Y-3071809D01*
X3444714Y-3262285D01*
X3397095Y-3357523D01*
X3301857Y-3452761D01*
X3159000Y-3500380D01*
X2920904Y-3500380D01*
X39116000Y-10136142D02*
X39163619Y-10183761D01*
X39116000Y-10231380D01*
X39068380Y-10183761D01*
X39116000Y-10136142D01*
X39116000Y-10231380D01*
X17962571Y-2706619D02*
X18010190Y-2563761D01*
X18057809Y-2516142D01*
X18153047Y-2468523D01*
X18295904Y-2468523D01*
X18391142Y-2516142D01*
X18438761Y-2563761D01*
X18486380Y-2659000D01*
X18486380Y-3039952D01*
X17486380Y-3039952D01*
X17486380Y-2706619D01*
X17534000Y-2611380D01*
X17581619Y-2563761D01*
X17676857Y-2516142D01*
X17772095Y-2516142D01*
X17867333Y-2563761D01*
X17914952Y-2611380D01*
X17962571Y-2706619D01*
X17962571Y-3039952D01*
X18105428Y-2039952D02*
X18105428Y-1278047D01*
X18486380Y-1659000D02*
X17724476Y-1659000D01*
X44577047Y-14295428D02*
X45338952Y-14295428D01*
X33792333Y-8251000D02*
X33759000Y-8284333D01*
X33659000Y-8317666D01*
X33592333Y-8317666D01*
X33492333Y-8284333D01*
X33425666Y-8217666D01*
X33392333Y-8151000D01*
X33359000Y-8017666D01*
X33359000Y-7917666D01*
X33392333Y-7784333D01*
X33425666Y-7717666D01*
X33492333Y-7651000D01*
X33592333Y-7617666D01*
X33659000Y-7617666D01*
X33759000Y-7651000D01*
X33792333Y-7684333D01*
X34459000Y-8317666D02*
X34059000Y-8317666D01*
X34259000Y-8317666D02*
X34259000Y-7617666D01*
X34192333Y-7717666D01*
X34125666Y-7784333D01*
X34059000Y-7817666D01*
D11*
X27315333Y-12696000D02*
X27282000Y-12729333D01*
X27182000Y-12762666D01*
X27115333Y-12762666D01*
X27015333Y-12729333D01*
X26948666Y-12662666D01*
X26915333Y-12596000D01*
X26882000Y-12462666D01*
X26882000Y-12362666D01*
X26915333Y-12229333D01*
X26948666Y-12162666D01*
X27015333Y-12096000D01*
X27115333Y-12062666D01*
X27182000Y-12062666D01*
X27282000Y-12096000D01*
X27315333Y-12129333D01*
X27915333Y-12296000D02*
X27915333Y-12762666D01*
X27748666Y-12029333D02*
X27582000Y-12529333D01*
X28015333Y-12529333D01*
X25156333Y-4949000D02*
X25123000Y-4982333D01*
X25023000Y-5015666D01*
X24956333Y-5015666D01*
X24856333Y-4982333D01*
X24789666Y-4915666D01*
X24756333Y-4849000D01*
X24723000Y-4715666D01*
X24723000Y-4615666D01*
X24756333Y-4482333D01*
X24789666Y-4415666D01*
X24856333Y-4349000D01*
X24956333Y-4315666D01*
X25023000Y-4315666D01*
X25123000Y-4349000D01*
X25156333Y-4382333D01*
X25789666Y-4315666D02*
X25456333Y-4315666D01*
X25423000Y-4649000D01*
X25456333Y-4615666D01*
X25523000Y-4582333D01*
X25689666Y-4582333D01*
X25756333Y-4615666D01*
X25789666Y-4649000D01*
X25823000Y-4715666D01*
X25823000Y-4882333D01*
X25789666Y-4949000D01*
X25756333Y-4982333D01*
X25689666Y-5015666D01*
X25523000Y-5015666D01*
X25456333Y-4982333D01*
X25423000Y-4949000D01*
D10*
X42505833Y-8251000D02*
X42472500Y-8284333D01*
X42372500Y-8317666D01*
X42305833Y-8317666D01*
X42205833Y-8284333D01*
X42139166Y-8217666D01*
X42105833Y-8151000D01*
X42072500Y-8017666D01*
X42072500Y-7917666D01*
X42105833Y-7784333D01*
X42139166Y-7717666D01*
X42205833Y-7651000D01*
X42305833Y-7617666D01*
X42372500Y-7617666D01*
X42472500Y-7651000D01*
X42505833Y-7684333D01*
X42739166Y-7617666D02*
X43205833Y-7617666D01*
X42905833Y-8317666D01*
D11*
X26390666Y-5331666D02*
X26390666Y-5898333D01*
X26424000Y-5965000D01*
X26457333Y-5998333D01*
X26524000Y-6031666D01*
X26657333Y-6031666D01*
X26724000Y-5998333D01*
X26757333Y-5965000D01*
X26790666Y-5898333D01*
X26790666Y-5331666D01*
X27090666Y-5398333D02*
X27124000Y-5365000D01*
X27190666Y-5331666D01*
X27357333Y-5331666D01*
X27424000Y-5365000D01*
X27457333Y-5398333D01*
X27490666Y-5465000D01*
X27490666Y-5531666D01*
X27457333Y-5631666D01*
X27057333Y-6031666D01*
X27490666Y-6031666D01*
X61351333Y-1888000D02*
X61318000Y-1921333D01*
X61218000Y-1954666D01*
X61151333Y-1954666D01*
X61051333Y-1921333D01*
X60984666Y-1854666D01*
X60951333Y-1788000D01*
X60918000Y-1654666D01*
X60918000Y-1554666D01*
X60951333Y-1421333D01*
X60984666Y-1354666D01*
X61051333Y-1288000D01*
X61151333Y-1254666D01*
X61218000Y-1254666D01*
X61318000Y-1288000D01*
X61351333Y-1321333D01*
X61951333Y-1254666D02*
X61818000Y-1254666D01*
X61751333Y-1288000D01*
X61718000Y-1321333D01*
X61651333Y-1421333D01*
X61618000Y-1554666D01*
X61618000Y-1821333D01*
X61651333Y-1888000D01*
X61684666Y-1921333D01*
X61751333Y-1954666D01*
X61884666Y-1954666D01*
X61951333Y-1921333D01*
X61984666Y-1888000D01*
X62018000Y-1821333D01*
X62018000Y-1654666D01*
X61984666Y-1588000D01*
X61951333Y-1554666D01*
X61884666Y-1521333D01*
X61751333Y-1521333D01*
X61684666Y-1554666D01*
X61651333Y-1588000D01*
X61618000Y-1654666D01*
X54874333Y-10095666D02*
X54641000Y-9762333D01*
X54474333Y-10095666D02*
X54474333Y-9395666D01*
X54741000Y-9395666D01*
X54807666Y-9429000D01*
X54841000Y-9462333D01*
X54874333Y-9529000D01*
X54874333Y-9629000D01*
X54841000Y-9695666D01*
X54807666Y-9729000D01*
X54741000Y-9762333D01*
X54474333Y-9762333D01*
X55207666Y-10095666D02*
X55341000Y-10095666D01*
X55407666Y-10062333D01*
X55441000Y-10029000D01*
X55507666Y-9929000D01*
X55541000Y-9795666D01*
X55541000Y-9529000D01*
X55507666Y-9462333D01*
X55474333Y-9429000D01*
X55407666Y-9395666D01*
X55274333Y-9395666D01*
X55207666Y-9429000D01*
X55174333Y-9462333D01*
X55141000Y-9529000D01*
X55141000Y-9695666D01*
X55174333Y-9762333D01*
X55207666Y-9795666D01*
X55274333Y-9829000D01*
X55407666Y-9829000D01*
X55474333Y-9795666D01*
X55507666Y-9762333D01*
X55541000Y-9695666D01*
X58303333Y-6981000D02*
X58270000Y-7014333D01*
X58170000Y-7047666D01*
X58103333Y-7047666D01*
X58003333Y-7014333D01*
X57936666Y-6947666D01*
X57903333Y-6881000D01*
X57870000Y-6747666D01*
X57870000Y-6647666D01*
X57903333Y-6514333D01*
X57936666Y-6447666D01*
X58003333Y-6381000D01*
X58103333Y-6347666D01*
X58170000Y-6347666D01*
X58270000Y-6381000D01*
X58303333Y-6414333D01*
X58570000Y-6414333D02*
X58603333Y-6381000D01*
X58670000Y-6347666D01*
X58836666Y-6347666D01*
X58903333Y-6381000D01*
X58936666Y-6414333D01*
X58970000Y-6481000D01*
X58970000Y-6547666D01*
X58936666Y-6647666D01*
X58536666Y-7047666D01*
X58970000Y-7047666D01*
X60045666Y-13586666D02*
X60045666Y-14153333D01*
X60079000Y-14220000D01*
X60112333Y-14253333D01*
X60179000Y-14286666D01*
X60312333Y-14286666D01*
X60379000Y-14253333D01*
X60412333Y-14220000D01*
X60445666Y-14153333D01*
X60445666Y-13586666D01*
X60712333Y-13586666D02*
X61145666Y-13586666D01*
X60912333Y-13853333D01*
X61012333Y-13853333D01*
X61079000Y-13886666D01*
X61112333Y-13920000D01*
X61145666Y-13986666D01*
X61145666Y-14153333D01*
X61112333Y-14220000D01*
X61079000Y-14253333D01*
X61012333Y-14286666D01*
X60812333Y-14286666D01*
X60745666Y-14253333D01*
X60712333Y-14220000D01*
X56997666Y-1267666D02*
X56997666Y-1834333D01*
X57031000Y-1901000D01*
X57064333Y-1934333D01*
X57131000Y-1967666D01*
X57264333Y-1967666D01*
X57331000Y-1934333D01*
X57364333Y-1901000D01*
X57397666Y-1834333D01*
X57397666Y-1267666D01*
X58031000Y-1501000D02*
X58031000Y-1967666D01*
X57864333Y-1234333D02*
X57697666Y-1734333D01*
X58131000Y-1734333D01*
X21682333Y-13143666D02*
X21682333Y-12443666D01*
X21849000Y-12443666D01*
X21949000Y-12477000D01*
X22015666Y-12543666D01*
X22049000Y-12610333D01*
X22082333Y-12743666D01*
X22082333Y-12843666D01*
X22049000Y-12977000D01*
X22015666Y-13043666D01*
X21949000Y-13110333D01*
X21849000Y-13143666D01*
X21682333Y-13143666D01*
X22349000Y-12510333D02*
X22382333Y-12477000D01*
X22449000Y-12443666D01*
X22615666Y-12443666D01*
X22682333Y-12477000D01*
X22715666Y-12510333D01*
X22749000Y-12577000D01*
X22749000Y-12643666D01*
X22715666Y-12743666D01*
X22315666Y-13143666D01*
X22749000Y-13143666D01*
X22108333Y-10476666D02*
X21875000Y-10143333D01*
X21708333Y-10476666D02*
X21708333Y-9776666D01*
X21975000Y-9776666D01*
X22041666Y-9810000D01*
X22075000Y-9843333D01*
X22108333Y-9910000D01*
X22108333Y-10010000D01*
X22075000Y-10076666D01*
X22041666Y-10110000D01*
X21975000Y-10143333D01*
X21708333Y-10143333D01*
X22508333Y-10076666D02*
X22441666Y-10043333D01*
X22408333Y-10010000D01*
X22375000Y-9943333D01*
X22375000Y-9910000D01*
X22408333Y-9843333D01*
X22441666Y-9810000D01*
X22508333Y-9776666D01*
X22641666Y-9776666D01*
X22708333Y-9810000D01*
X22741666Y-9843333D01*
X22775000Y-9910000D01*
X22775000Y-9943333D01*
X22741666Y-10010000D01*
X22708333Y-10043333D01*
X22641666Y-10076666D01*
X22508333Y-10076666D01*
X22441666Y-10110000D01*
X22408333Y-10143333D01*
X22375000Y-10210000D01*
X22375000Y-10343333D01*
X22408333Y-10410000D01*
X22441666Y-10443333D01*
X22508333Y-10476666D01*
X22641666Y-10476666D01*
X22708333Y-10443333D01*
X22741666Y-10410000D01*
X22775000Y-10343333D01*
X22775000Y-10210000D01*
X22741666Y-10143333D01*
X22708333Y-10110000D01*
X22641666Y-10076666D01*
X20634333Y-5590333D02*
X20567666Y-5557000D01*
X20501000Y-5490333D01*
X20401000Y-5390333D01*
X20334333Y-5357000D01*
X20267666Y-5357000D01*
X20301000Y-5523666D02*
X20234333Y-5490333D01*
X20167666Y-5423666D01*
X20134333Y-5290333D01*
X20134333Y-5057000D01*
X20167666Y-4923666D01*
X20234333Y-4857000D01*
X20301000Y-4823666D01*
X20434333Y-4823666D01*
X20501000Y-4857000D01*
X20567666Y-4923666D01*
X20601000Y-5057000D01*
X20601000Y-5290333D01*
X20567666Y-5423666D01*
X20501000Y-5490333D01*
X20434333Y-5523666D01*
X20301000Y-5523666D01*
X21267666Y-5523666D02*
X20867666Y-5523666D01*
X21067666Y-5523666D02*
X21067666Y-4823666D01*
X21001000Y-4923666D01*
X20934333Y-4990333D01*
X20867666Y-5023666D01*
X6950933Y-1459666D02*
X6950933Y-759666D01*
X7117600Y-759666D01*
X7217600Y-793000D01*
X7284266Y-859666D01*
X7317600Y-926333D01*
X7350933Y-1059666D01*
X7350933Y-1159666D01*
X7317600Y-1293000D01*
X7284266Y-1359666D01*
X7217600Y-1426333D01*
X7117600Y-1459666D01*
X6950933Y-1459666D01*
X7584266Y-759666D02*
X8017600Y-759666D01*
X7784266Y-1026333D01*
X7884266Y-1026333D01*
X7950933Y-1059666D01*
X7984266Y-1093000D01*
X8017600Y-1159666D01*
X8017600Y-1326333D01*
X7984266Y-1393000D01*
X7950933Y-1426333D01*
X7884266Y-1459666D01*
X7684266Y-1459666D01*
X7617600Y-1426333D01*
X7584266Y-1393000D01*
X6412666Y-2402666D02*
X6079333Y-2636000D01*
X6412666Y-2802666D02*
X5712666Y-2802666D01*
X5712666Y-2536000D01*
X5746000Y-2469333D01*
X5779333Y-2436000D01*
X5846000Y-2402666D01*
X5946000Y-2402666D01*
X6012666Y-2436000D01*
X6046000Y-2469333D01*
X6079333Y-2536000D01*
X6079333Y-2802666D01*
X5712666Y-2169333D02*
X5712666Y-1702666D01*
X6412666Y-2002666D01*
X9408333Y-9460666D02*
X9175000Y-9127333D01*
X9008333Y-9460666D02*
X9008333Y-8760666D01*
X9275000Y-8760666D01*
X9341666Y-8794000D01*
X9375000Y-8827333D01*
X9408333Y-8894000D01*
X9408333Y-8994000D01*
X9375000Y-9060666D01*
X9341666Y-9094000D01*
X9275000Y-9127333D01*
X9008333Y-9127333D01*
X10008333Y-8994000D02*
X10008333Y-9460666D01*
X9841666Y-8727333D02*
X9675000Y-9227333D01*
X10108333Y-9227333D01*
X7376333Y-9460666D02*
X7143000Y-9127333D01*
X6976333Y-9460666D02*
X6976333Y-8760666D01*
X7243000Y-8760666D01*
X7309666Y-8794000D01*
X7343000Y-8827333D01*
X7376333Y-8894000D01*
X7376333Y-8994000D01*
X7343000Y-9060666D01*
X7309666Y-9094000D01*
X7243000Y-9127333D01*
X6976333Y-9127333D01*
X7609666Y-8760666D02*
X8043000Y-8760666D01*
X7809666Y-9027333D01*
X7909666Y-9027333D01*
X7976333Y-9060666D01*
X8009666Y-9094000D01*
X8043000Y-9160666D01*
X8043000Y-9327333D01*
X8009666Y-9394000D01*
X7976333Y-9427333D01*
X7909666Y-9460666D01*
X7709666Y-9460666D01*
X7643000Y-9427333D01*
X7609666Y-9394000D01*
X9008333Y-1459666D02*
X9008333Y-759666D01*
X9175000Y-759666D01*
X9275000Y-793000D01*
X9341666Y-859666D01*
X9375000Y-926333D01*
X9408333Y-1059666D01*
X9408333Y-1159666D01*
X9375000Y-1293000D01*
X9341666Y-1359666D01*
X9275000Y-1426333D01*
X9175000Y-1459666D01*
X9008333Y-1459666D01*
X10008333Y-993000D02*
X10008333Y-1459666D01*
X9841666Y-726333D02*
X9675000Y-1226333D01*
X10108333Y-1226333D01*
X13055666Y-632666D02*
X13055666Y-1199333D01*
X13089000Y-1266000D01*
X13122333Y-1299333D01*
X13189000Y-1332666D01*
X13322333Y-1332666D01*
X13389000Y-1299333D01*
X13422333Y-1266000D01*
X13455666Y-1199333D01*
X13455666Y-632666D01*
X14155666Y-1332666D02*
X13755666Y-1332666D01*
X13955666Y-1332666D02*
X13955666Y-632666D01*
X13889000Y-732666D01*
X13822333Y-799333D01*
X13755666Y-832666D01*
X6412666Y-5958666D02*
X6079333Y-6192000D01*
X6412666Y-6358666D02*
X5712666Y-6358666D01*
X5712666Y-6092000D01*
X5746000Y-6025333D01*
X5779333Y-5992000D01*
X5846000Y-5958666D01*
X5946000Y-5958666D01*
X6012666Y-5992000D01*
X6046000Y-6025333D01*
X6079333Y-6092000D01*
X6079333Y-6358666D01*
X5712666Y-5358666D02*
X5712666Y-5492000D01*
X5746000Y-5558666D01*
X5779333Y-5592000D01*
X5879333Y-5658666D01*
X6012666Y-5692000D01*
X6279333Y-5692000D01*
X6346000Y-5658666D01*
X6379333Y-5625333D01*
X6412666Y-5558666D01*
X6412666Y-5425333D01*
X6379333Y-5358666D01*
X6346000Y-5325333D01*
X6279333Y-5292000D01*
X6112666Y-5292000D01*
X6046000Y-5325333D01*
X6012666Y-5358666D01*
X5979333Y-5425333D01*
X5979333Y-5558666D01*
X6012666Y-5625333D01*
X6046000Y-5658666D01*
X6112666Y-5692000D01*
X6412666Y-9514666D02*
X6079333Y-9748000D01*
X6412666Y-9914666D02*
X5712666Y-9914666D01*
X5712666Y-9648000D01*
X5746000Y-9581333D01*
X5779333Y-9548000D01*
X5846000Y-9514666D01*
X5946000Y-9514666D01*
X6012666Y-9548000D01*
X6046000Y-9581333D01*
X6079333Y-9648000D01*
X6079333Y-9914666D01*
X5712666Y-8881333D02*
X5712666Y-9214666D01*
X6046000Y-9248000D01*
X6012666Y-9214666D01*
X5979333Y-9148000D01*
X5979333Y-8981333D01*
X6012666Y-8914666D01*
X6046000Y-8881333D01*
X6112666Y-8848000D01*
X6279333Y-8848000D01*
X6346000Y-8881333D01*
X6379333Y-8914666D01*
X6412666Y-8981333D01*
X6412666Y-9148000D01*
X6379333Y-9214666D01*
X6346000Y-9248000D01*
X5706333Y-13270666D02*
X5706333Y-12570666D01*
X5873000Y-12570666D01*
X5973000Y-12604000D01*
X6039666Y-12670666D01*
X6073000Y-12737333D01*
X6106333Y-12870666D01*
X6106333Y-12970666D01*
X6073000Y-13104000D01*
X6039666Y-13170666D01*
X5973000Y-13237333D01*
X5873000Y-13270666D01*
X5706333Y-13270666D01*
X6773000Y-13270666D02*
X6373000Y-13270666D01*
X6573000Y-13270666D02*
X6573000Y-12570666D01*
X6506333Y-12670666D01*
X6439666Y-12737333D01*
X6373000Y-12770666D01*
X33030333Y-2856666D02*
X32797000Y-2523333D01*
X32630333Y-2856666D02*
X32630333Y-2156666D01*
X32897000Y-2156666D01*
X32963666Y-2190000D01*
X32997000Y-2223333D01*
X33030333Y-2290000D01*
X33030333Y-2390000D01*
X32997000Y-2456666D01*
X32963666Y-2490000D01*
X32897000Y-2523333D01*
X32630333Y-2523333D01*
X33297000Y-2223333D02*
X33330333Y-2190000D01*
X33397000Y-2156666D01*
X33563666Y-2156666D01*
X33630333Y-2190000D01*
X33663666Y-2223333D01*
X33697000Y-2290000D01*
X33697000Y-2356666D01*
X33663666Y-2456666D01*
X33263666Y-2856666D01*
X33697000Y-2856666D01*
X18806333Y-10476666D02*
X18573000Y-10143333D01*
X18406333Y-10476666D02*
X18406333Y-9776666D01*
X18673000Y-9776666D01*
X18739666Y-9810000D01*
X18773000Y-9843333D01*
X18806333Y-9910000D01*
X18806333Y-10010000D01*
X18773000Y-10076666D01*
X18739666Y-10110000D01*
X18673000Y-10143333D01*
X18406333Y-10143333D01*
X19473000Y-10476666D02*
X19073000Y-10476666D01*
X19273000Y-10476666D02*
X19273000Y-9776666D01*
X19206333Y-9876666D01*
X19139666Y-9943333D01*
X19073000Y-9976666D01*
D10*
X36380000Y-5396666D02*
X36146666Y-5063333D01*
X35980000Y-5396666D02*
X35980000Y-4696666D01*
X36246666Y-4696666D01*
X36313333Y-4730000D01*
X36346666Y-4763333D01*
X36380000Y-4830000D01*
X36380000Y-4930000D01*
X36346666Y-4996666D01*
X36313333Y-5030000D01*
X36246666Y-5063333D01*
X35980000Y-5063333D01*
X37046666Y-5396666D02*
X36646666Y-5396666D01*
X36846666Y-5396666D02*
X36846666Y-4696666D01*
X36780000Y-4796666D01*
X36713333Y-4863333D01*
X36646666Y-4896666D01*
X37480000Y-4696666D02*
X37546666Y-4696666D01*
X37613333Y-4730000D01*
X37646666Y-4763333D01*
X37680000Y-4830000D01*
X37713333Y-4963333D01*
X37713333Y-5130000D01*
X37680000Y-5263333D01*
X37646666Y-5330000D01*
X37613333Y-5363333D01*
X37546666Y-5396666D01*
X37480000Y-5396666D01*
X37413333Y-5363333D01*
X37380000Y-5330000D01*
X37346666Y-5263333D01*
X37313333Y-5130000D01*
X37313333Y-4963333D01*
X37346666Y-4830000D01*
X37380000Y-4763333D01*
X37413333Y-4730000D01*
X37480000Y-4696666D01*
X30667333Y-2288333D02*
X30600666Y-2255000D01*
X30534000Y-2188333D01*
X30434000Y-2088333D01*
X30367333Y-2055000D01*
X30300666Y-2055000D01*
X30334000Y-2221666D02*
X30267333Y-2188333D01*
X30200666Y-2121666D01*
X30167333Y-1988333D01*
X30167333Y-1755000D01*
X30200666Y-1621666D01*
X30267333Y-1555000D01*
X30334000Y-1521666D01*
X30467333Y-1521666D01*
X30534000Y-1555000D01*
X30600666Y-1621666D01*
X30634000Y-1755000D01*
X30634000Y-1988333D01*
X30600666Y-2121666D01*
X30534000Y-2188333D01*
X30467333Y-2221666D01*
X30334000Y-2221666D01*
X30900666Y-1588333D02*
X30934000Y-1555000D01*
X31000666Y-1521666D01*
X31167333Y-1521666D01*
X31234000Y-1555000D01*
X31267333Y-1588333D01*
X31300666Y-1655000D01*
X31300666Y-1721666D01*
X31267333Y-1821666D01*
X30867333Y-2221666D01*
X31300666Y-2221666D01*
X18933333Y-4822000D02*
X18900000Y-4855333D01*
X18800000Y-4888666D01*
X18733333Y-4888666D01*
X18633333Y-4855333D01*
X18566666Y-4788666D01*
X18533333Y-4722000D01*
X18500000Y-4588666D01*
X18500000Y-4488666D01*
X18533333Y-4355333D01*
X18566666Y-4288666D01*
X18633333Y-4222000D01*
X18733333Y-4188666D01*
X18800000Y-4188666D01*
X18900000Y-4222000D01*
X18933333Y-4255333D01*
X19333333Y-4488666D02*
X19266666Y-4455333D01*
X19233333Y-4422000D01*
X19200000Y-4355333D01*
X19200000Y-4322000D01*
X19233333Y-4255333D01*
X19266666Y-4222000D01*
X19333333Y-4188666D01*
X19466666Y-4188666D01*
X19533333Y-4222000D01*
X19566666Y-4255333D01*
X19600000Y-4322000D01*
X19600000Y-4355333D01*
X19566666Y-4422000D01*
X19533333Y-4455333D01*
X19466666Y-4488666D01*
X19333333Y-4488666D01*
X19266666Y-4522000D01*
X19233333Y-4555333D01*
X19200000Y-4622000D01*
X19200000Y-4755333D01*
X19233333Y-4822000D01*
X19266666Y-4855333D01*
X19333333Y-4888666D01*
X19466666Y-4888666D01*
X19533333Y-4855333D01*
X19566666Y-4822000D01*
X19600000Y-4755333D01*
X19600000Y-4622000D01*
X19566666Y-4555333D01*
X19533333Y-4522000D01*
X19466666Y-4488666D01*
X57033333Y-10029000D02*
X57000000Y-10062333D01*
X56900000Y-10095666D01*
X56833333Y-10095666D01*
X56733333Y-10062333D01*
X56666666Y-9995666D01*
X56633333Y-9929000D01*
X56600000Y-9795666D01*
X56600000Y-9695666D01*
X56633333Y-9562333D01*
X56666666Y-9495666D01*
X56733333Y-9429000D01*
X56833333Y-9395666D01*
X56900000Y-9395666D01*
X57000000Y-9429000D01*
X57033333Y-9462333D01*
X57266666Y-9395666D02*
X57700000Y-9395666D01*
X57466666Y-9662333D01*
X57566666Y-9662333D01*
X57633333Y-9695666D01*
X57666666Y-9729000D01*
X57700000Y-9795666D01*
X57700000Y-9962333D01*
X57666666Y-10029000D01*
X57633333Y-10062333D01*
X57566666Y-10095666D01*
X57366666Y-10095666D01*
X57300000Y-10062333D01*
X57266666Y-10029000D01*
X45778000Y-5396666D02*
X45544666Y-5063333D01*
X45378000Y-5396666D02*
X45378000Y-4696666D01*
X45644666Y-4696666D01*
X45711333Y-4730000D01*
X45744666Y-4763333D01*
X45778000Y-4830000D01*
X45778000Y-4930000D01*
X45744666Y-4996666D01*
X45711333Y-5030000D01*
X45644666Y-5063333D01*
X45378000Y-5063333D01*
X46444666Y-5396666D02*
X46044666Y-5396666D01*
X46244666Y-5396666D02*
X46244666Y-4696666D01*
X46178000Y-4796666D01*
X46111333Y-4863333D01*
X46044666Y-4896666D01*
X47111333Y-5396666D02*
X46711333Y-5396666D01*
X46911333Y-5396666D02*
X46911333Y-4696666D01*
X46844666Y-4796666D01*
X46778000Y-4863333D01*
X46711333Y-4896666D01*
D11*
X30149000Y-9711000D02*
X36909000Y-9711000D01*
X36909000Y-6291000D02*
X30149000Y-6291000D01*
X30149000Y-6291000D02*
X30149000Y-9711000D01*
X27291420Y-11686000D02*
X27572580Y-11686000D01*
X27291420Y-10666000D02*
X27572580Y-10666000D01*
X24259000Y-5855580D02*
X24259000Y-5574420D01*
X23239000Y-5855580D02*
X23239000Y-5574420D01*
X38862500Y-6291000D02*
X38862500Y-9711000D01*
X45622500Y-6291000D02*
X38862500Y-6291000D01*
X38862500Y-9711000D02*
X45622500Y-9711000D01*
X30988000Y-13649000D02*
X29658000Y-13649000D01*
X32258000Y-13649000D02*
X32258000Y-10989000D01*
X29658000Y-13649000D02*
X29658000Y-12319000D01*
X32258000Y-10989000D02*
X34858000Y-10989000D01*
X32258000Y-13649000D02*
X34858000Y-13649000D01*
X34858000Y-13649000D02*
X34858000Y-10989000D01*
X43688000Y-13649000D02*
X36008000Y-13649000D01*
X43688000Y-10989000D02*
X43688000Y-13649000D01*
X43688000Y-10989000D02*
X36008000Y-10989000D01*
X36008000Y-10989000D02*
X36008000Y-13649000D01*
X46288000Y-10989000D02*
X46288000Y-12319000D01*
X44958000Y-10989000D02*
X46288000Y-10989000D01*
X46288000Y-829000D02*
X46288000Y-2159000D01*
X44958000Y-829000D02*
X46288000Y-829000D01*
X43688000Y-829000D02*
X43688000Y-3489000D01*
X43688000Y-3489000D02*
X36008000Y-3489000D01*
X43688000Y-829000D02*
X36008000Y-829000D01*
X36008000Y-829000D02*
X36008000Y-3489000D01*
X28534000Y-9028000D02*
X28534000Y-6578000D01*
X25314000Y-7228000D02*
X25314000Y-9028000D01*
D12*
X65776000Y-14710000D02*
X47776000Y-14710000D01*
X72476000Y-310000D02*
X72476000Y-14710000D01*
X65776000Y-310000D02*
X72476000Y-310000D01*
X65776000Y-14710000D02*
X65776000Y-310000D01*
X47776000Y-14710000D02*
X47776000Y-310000D01*
X47776000Y-310000D02*
X65776000Y-310000D01*
X72476000Y-14710000D02*
X65776000Y-14710000D01*
D13*
X51916000Y440000D02*
G75*
G03*
X51916000Y440000I-100000J0D01*
G01*
D11*
X21946000Y-829000D02*
X19346000Y-829000D01*
X21946000Y-829000D02*
X21946000Y-3489000D01*
X23216000Y-829000D02*
X24546000Y-829000D01*
X19346000Y-829000D02*
X19346000Y-3489000D01*
X24546000Y-829000D02*
X24546000Y-2159000D01*
X21946000Y-3489000D02*
X19346000Y-3489000D01*
X61978000Y-4077580D02*
X61978000Y-3796420D01*
X60958000Y-4077580D02*
X60958000Y-3796420D01*
X54468500Y-12175258D02*
X54468500Y-11700742D01*
X55513500Y-12175258D02*
X55513500Y-11700742D01*
X60846580Y-7241000D02*
X60565420Y-7241000D01*
X60846580Y-6221000D02*
X60565420Y-6221000D01*
X62189000Y-12203000D02*
X62189000Y-10403000D01*
X58969000Y-10403000D02*
X58969000Y-12853000D01*
X58672000Y-2357000D02*
X58672000Y-3287000D01*
X58672000Y-5517000D02*
X58672000Y-4587000D01*
X58672000Y-5517000D02*
X57212000Y-5517000D01*
X58672000Y-2357000D02*
X56512000Y-2357000D01*
X25625000Y-14477000D02*
X25625000Y-11177000D01*
X25625000Y-11177000D02*
X20225000Y-11177000D01*
X25625000Y-14477000D02*
X20225000Y-14477000D01*
X23226500Y-8906742D02*
X23226500Y-9381258D01*
X24271500Y-8906742D02*
X24271500Y-9381258D01*
X22281000Y-6733000D02*
X22281000Y-8193000D01*
X19121000Y-6733000D02*
X20051000Y-6733000D01*
X19121000Y-6733000D02*
X19121000Y-8893000D01*
X22281000Y-6733000D02*
X21351000Y-6733000D01*
X6758000Y-1817000D02*
X6758000Y-4102000D01*
X8228000Y-1817000D02*
X6758000Y-1817000D01*
X8228000Y-4102000D02*
X8228000Y-1817000D01*
X4303500Y-2523258D02*
X4303500Y-2048742D01*
X5348500Y-2523258D02*
X5348500Y-2048742D01*
X9002500Y-7349258D02*
X9002500Y-6874742D01*
X10047500Y-7349258D02*
X10047500Y-6874742D01*
X8015500Y-7349258D02*
X8015500Y-6874742D01*
X6970500Y-7349258D02*
X6970500Y-6874742D01*
X10260000Y-4102000D02*
X10260000Y-1817000D01*
X10260000Y-1817000D02*
X8790000Y-1817000D01*
X8790000Y-1817000D02*
X8790000Y-4102000D01*
X11029000Y-5715000D02*
X11029000Y-9165000D01*
X16149000Y-5715000D02*
X16149000Y-3765000D01*
X16149000Y-5715000D02*
X16149000Y-7665000D01*
X11029000Y-5715000D02*
X11029000Y-3765000D01*
X4303500Y-6079258D02*
X4303500Y-5604742D01*
X5348500Y-6079258D02*
X5348500Y-5604742D01*
X5348500Y-9635258D02*
X5348500Y-9160742D01*
X4303500Y-9635258D02*
X4303500Y-9160742D01*
X9623000Y-14477000D02*
X4223000Y-14477000D01*
X9623000Y-11177000D02*
X4223000Y-11177000D01*
X9623000Y-14477000D02*
X9623000Y-11177000D01*
X3489000Y-6985000D02*
X3489000Y-9585000D01*
X829000Y-5715000D02*
X829000Y-4385000D01*
X829000Y-6985000D02*
X829000Y-9585000D01*
X829000Y-4385000D02*
X2159000Y-4385000D01*
X829000Y-6985000D02*
X3489000Y-6985000D01*
X829000Y-9585000D02*
X3489000Y-9585000D01*
X32272500Y-4301258D02*
X32272500Y-3826742D01*
X31227500Y-4301258D02*
X31227500Y-3826742D01*
X17003500Y-10143258D02*
X17003500Y-9668742D01*
X18048500Y-10143258D02*
X18048500Y-9668742D01*
X39607258Y-4557500D02*
X39132742Y-4557500D01*
X39607258Y-5602500D02*
X39132742Y-5602500D01*
X26634000Y-2794000D02*
X26634000Y-1994000D01*
X26634000Y-2794000D02*
X26634000Y-3594000D01*
X29754000Y-2794000D02*
X29754000Y-994000D01*
X29754000Y-2794000D02*
X29754000Y-3594000D01*
X18036000Y-5193420D02*
X18036000Y-5474580D01*
X17016000Y-5193420D02*
X17016000Y-5474580D01*
X57660000Y-12078580D02*
X57660000Y-11797420D01*
X56640000Y-12078580D02*
X56640000Y-11797420D01*
X43450742Y-5602500D02*
X43925258Y-5602500D01*
X43450742Y-4557500D02*
X43925258Y-4557500D01*
%LPC*%
D14*
X31446500Y-8001000D03*
X36371500Y-8001000D03*
D15*
X26657000Y-11176000D03*
X28207000Y-11176000D03*
D16*
X23749000Y-6490000D03*
X23749000Y-4940000D03*
D14*
X40160000Y-8001000D03*
X45085000Y-8001000D03*
D17*
X30988000Y-12319000D03*
D18*
X33528000Y-12319000D03*
D17*
X44958000Y-12319000D03*
D18*
X42418000Y-12319000D03*
X39878000Y-12319000D03*
X37338000Y-12319000D03*
D17*
X44958000Y-2159000D03*
D18*
X42418000Y-2159000D03*
X39878000Y-2159000D03*
X37338000Y-2159000D03*
D19*
X27874000Y-7028000D03*
X26924000Y-7028000D03*
X25974000Y-7028000D03*
X25974000Y-9228000D03*
X26924000Y-9228000D03*
X27874000Y-9228000D03*
D20*
X51816000Y-3810000D03*
D21*
X51816000Y-6350000D03*
X51816000Y-8890000D03*
X51816000Y-11430000D03*
X49276000Y-3810000D03*
X49276000Y-6350000D03*
X49276000Y-8890000D03*
X49276000Y-11430000D03*
D17*
X23216000Y-2159000D03*
D18*
X20676000Y-2159000D03*
D16*
X61468000Y-4712000D03*
X61468000Y-3162000D03*
D22*
X54991000Y-12763000D03*
X54991000Y-11113000D03*
D23*
X61481000Y-6731000D03*
X59931000Y-6731000D03*
D19*
X59629000Y-12403000D03*
X60579000Y-12403000D03*
X61529000Y-12403000D03*
X61529000Y-10203000D03*
X59629000Y-10203000D03*
D24*
X56912000Y-2987000D03*
X56912000Y-4887000D03*
X58912000Y-3937000D03*
D25*
X24225000Y-12827000D03*
X20225000Y-12827000D03*
D26*
X23749000Y-8319000D03*
X23749000Y-9969000D03*
D27*
X19751000Y-8493000D03*
X21651000Y-8493000D03*
X20701000Y-6493000D03*
D28*
X7493000Y-2514500D03*
X7493000Y-4089500D03*
D22*
X4826000Y-3111000D03*
X4826000Y-1461000D03*
X9525000Y-7937000D03*
X9525000Y-6287000D03*
X7493000Y-7937000D03*
X7493000Y-6287000D03*
D28*
X9525000Y-2514500D03*
X9525000Y-4089500D03*
D29*
X11684000Y-8365000D03*
X12954000Y-8365000D03*
X14224000Y-8365000D03*
X15494000Y-8365000D03*
X15494000Y-3065000D03*
X14224000Y-3065000D03*
X12954000Y-3065000D03*
X11684000Y-3065000D03*
D30*
X13589000Y-5715000D03*
D22*
X4826000Y-6667000D03*
X4826000Y-5017000D03*
X4826000Y-10223000D03*
X4826000Y-8573000D03*
D25*
X8223000Y-12827000D03*
X4223000Y-12827000D03*
D17*
X2159000Y-5715000D03*
D18*
X2159000Y-8255000D03*
D22*
X31750000Y-4889000D03*
X31750000Y-3239000D03*
X17526000Y-10731000D03*
X17526000Y-9081000D03*
D31*
X40195000Y-5080000D03*
X38545000Y-5080000D03*
D32*
X29144000Y-1656500D03*
X28194000Y-1656500D03*
X27244000Y-1656500D03*
X27244000Y-3931500D03*
X28194000Y-3931500D03*
X29144000Y-3931500D03*
D33*
X17526000Y-4559000D03*
X17526000Y-6109000D03*
D16*
X57150000Y-12713000D03*
X57150000Y-11163000D03*
D34*
X42863000Y-5080000D03*
X44513000Y-5080000D03*
M02*
